{
.appVersion = "1342";
copyright = "Copyright 2020 The Space Grotesk Project Authors https:github.comfloriankarstenspace-grotesk";
customParameters = (
{
name = vendorID;
value = FK;
},
{
name = panose;
value = (
0,
0,
0,
0,
0,
0,
0,
0,
0,
0
);
},
{
name = unicodeRanges;
value = (
0,
1,
2,
3,
4,
5,
6,
7,
24,
29,
31,
32,
33,
35,
36,
37,
38,
45,
60,
62
);
},
{
name = fsType;
value = (
);
},
{
name = blueScale;
value = 0.05357;
},
{
name = glyphOrder;
value = (
.notdef,
NULL,
CR,
space,
A,
B,
C,
D,
E,
F,
G,
H,
I,
J,
K,
L,
M,
N,
O,
P,
Q,
R,
S,
T,
U,
V,
W,
X,
Y,
Z,
a,
b,
c,
d,
e,
f,
g,
h,
i,
j,
k,
l,
m,
n,
o,
p,
q,
r,
s,
t,
u,
v,
w,
x,
y,
z,
zero,
one,
two,
three,
four,
five,
six,
seven,
eight,
nine,
bracketleft,
bracketright,
braceleft,
braceright,
parenleft,
parenright,
slash,
bar,
brokenbar,
backslash,
quotesingle,
quotedbl,
quoteleft,
quoteright,
quotedblleft,
quotedblright,
quotesinglbase,
quotedblbase,
period,
comma,
colon,
semicolon,
ellipsis,
exclam,
exclamdown,
question,
questiondown,
guilsinglleft,
guilsinglright,
hyphen,
endash,
emdash,
periodcentered,
bullet,
underscore,
at,
ampersand,
asterisk,
Agrave,
Aacute,
Acircumflex,
Atilde,
Adieresis,
Amacron,
Abreve,
Aring,
Aogonek,
AE,
Ccedilla,
Cacute,
Ccircumflex,
Ccaron,
Cdotaccent,
Eth,
Dcaron,
uni1E0E,
Dcroat,
Egrave,
Eacute,
Ecircumflex,
Ecaron,
Edieresis,
Emacron,
Ebreve,
Edotaccent,
Eogonek,
Gcircumflex,
Gbreve,
Gdotaccent,
Hcircumflex,
Hbar,
Igrave,
Iacute,
Icircumflex,
Itilde,
Idieresis,
Imacron,
Idotaccent,
Iogonek,
Ibreve,
Jcircumflex,
Lacute,
Lcaron,
uni1E38,
uni1E3A,
Lslash,
Ldot,
Nacute,
Ncaron,
Ntilde,
uni1E48,
Ograve,
Oacute,
Ocircumflex,
Otilde,
Odieresis,
Omacron,
Ohungarumlaut,
Obreve,
Oslash,
OE,
Racute,
Rcaron,
uni1E5C,
uni1E5E,
Sacute,
Scircumflex,
Scaron,
Scedilla,
Tcaron,
uni1E6E,
Tbar,
Ugrave,
Uacute,
Ucircumflex,
Utilde,
Udieresis,
Umacron,
Ubreve,
Uring,
Uhungarumlaut,
Uogonek,
Wcircumflex,
Yacute,
Ycircumflex,
Ydieresis,
Zacute,
Zcaron,
Zdotaccent,
Thorn,
Eng,
IJ,
IJacute,
agrave,

glyphs = (
{
glyphname = .notdef;
lastChange = "2020-07-28 15:47:08 +0000";
layers = (
{
layerId = "83CEB4AC-2A3F-4494-A887-C39963512B94";
paths = (
{
closed = 1;
nodes = (
"92 81 LINE SMOOTH",
"92 -49 OFFCURVE",
"159 -112 OFFCURVE",
"278 -112 CURVE SMOOTH",
"589 -112 LINE SMOOTH",
"707 -112 OFFCURVE",
"775 -49 OFFCURVE",
"775 81 CURVE SMOOTH",
"775 609 LINE SMOOTH",
"775 739 OFFCURVE",
"707 802 OFFCURVE",
"589 802 CURVE SMOOTH",
"278 802 LINE SMOOTH",
"159 802 OFFCURVE",
"92 739 OFFCURVE",
"92 609 CURVE SMOOTH"
);
},
{
closed = 1;
nodes = (
"162 604 LINE SMOOTH",
"162 691 OFFCURVE",
"198 737 OFFCURVE",
"282 737 CURVE SMOOTH",
"586 737 LINE SMOOTH",
"669 737 OFFCURVE",
"705 691 OFFCURVE",
"705 604 CURVE SMOOTH",
"705 86 LINE SMOOTH",
"705 -1 OFFCURVE",
"669 -47 OFFCURVE",
"586 -47 CURVE SMOOTH",
"282 -47 LINE SMOOTH",
"198 -47 OFFCURVE",
"162 -1 OFFCURVE",
"162 86 CURVE SMOOTH"
);
},
{
closed = 1;
nodes = (
"266 426 LINE",
"329 426 LINE",
"329 450 LINE SMOOTH",
"329 511 OFFCURVE",
"379 540 OFFCURVE",
"437 540 CURVE SMOOTH",
"494 540 OFFCURVE",
"540 511 OFFCURVE",
"540 460 CURVE SMOOTH",
"540 413 OFFCURVE",
"512 396 OFFCURVE",
"466 375 CURVE SMOOTH",
"451 368 LINE SMOOTH",
"407 347 OFFCURVE",
"395 321 OFFCURVE",
"395 281 CURVE SMOOTH",
"395 243 LINE",
"459 243 LINE",
"459 279 LINE SMOOTH",
"459 302 OFFCURVE",
"466 312 OFFCURVE",
"483 321 CURVE SMOOTH",
"499 328 LINE SMOOTH",
"553 352 OFFCURVE",
"603 385 OFFCURVE",
"603 459 CURVE SMOOTH",
"603 463 LINE SMOOTH",
"603 545 OFFCURVE",
"528 599 OFFCURVE",
"437 599 CURVE SMOOTH",
"340 599 OFFCURVE",
"266 545 OFFCURVE",
"266 453 CURVE SMOOTH"
);
},
{
closed = 1;
nodes = (
"377 123 OFFCURVE",
"399 102 OFFCURVE",
"428 102 CURVE SMOOTH",
"457 102 OFFCURVE",
"479 123 OFFCURVE",
"479 151 CURVE SMOOTH",
"479 180 OFFCURVE",
"457 201 OFFCURVE",
"428 201 CURVE SMOOTH",
"399 201 OFFCURVE",
"377 180 OFFCURVE",
"377 151 CURVE SMOOTH"
);
}
);
width = 867;
},
{
layerId = "8F42668C-F186-4E73-94E7-C31CD8308E50";
paths = (
{
closed = 1;
nodes = (
"92 81 LINE SMOOTH",
"92 -49 OFFCURVE",
"159 -112 OFFCURVE",
"278 -112 CURVE SMOOTH",
"589 -112 LINE SMOOTH",
"707 -112 OFFCURVE",
"775 -49 OFFCURVE",
"775 81 CURVE SMOOTH",
"775 609 LINE SMOOTH",
"775 739 OFFCURVE",
"707 802 OFFCURVE",
"589 802 CURVE SMOOTH",
"278 802 LINE SMOOTH",
"159 802 OFFCURVE",
"92 739 OFFCURVE",
"92 609 CURVE SMOOTH"
);
},
{
closed = 1;
nodes = (
"162 604 LINE SMOOTH",
"162 691 OFFCURVE",
"198 737 OFFCURVE",
"282 737 CURVE SMOOTH",
"586 737 LINE SMOOTH",
"669 737 OFFCURVE",
"705 691 OFFCURVE",
"705 604 CURVE SMOOTH",
"705 86 LINE SMOOTH",
"705 -1 OFFCURVE",
"669 -47 OFFCURVE",
"586 -47 CURVE SMOOTH",
"282 -47 LINE SMOOTH",
"198 -47 OFFCURVE",
"162 -1 OFFCURVE",
"162 86 CURVE SMOOTH"
);
},
{
closed = 1;
nodes = (
"266 426 LINE",
"329 426 LINE",
"329 450 LINE SMOOTH",
"329 511 OFFCURVE",
"379 540 OFFCURVE",
"437 540 CURVE SMOOTH",
"494 540 OFFCURVE",
"540 511 OFFCURVE",
"540 460 CURVE SMOOTH",
"540 413 OFFCURVE",
"512 396 OFFCURVE",
"466 375 CURVE SMOOTH",
"451 368 LINE SMOOTH",
"407 347 OFFCURVE",
"395 321 OFFCURVE",
"395 281 CURVE SMOOTH",
"395 243 LINE",
"459 243 LINE",
"459 279 LINE SMOOTH",
"459 302 OFFCURVE",
"466 312 OFFCURVE",
"483 321 CURVE SMOOTH",
"499 328 LINE SMOOTH",
"553 352 OFFCURVE",
"603 385 OFFCURVE",
"603 459 CURVE SMOOTH",
"603 463 LINE SMOOTH",
"603 545 OFFCURVE",
"528 599 OFFCURVE",
"437 599 CURVE SMOOTH",
"340 599 OFFCURVE",
"266 545 OFFCURVE",
"266 453 CURVE SMOOTH"
);
},
{
closed = 1;
nodes = (
"377 123 OFFCURVE",
"399 102 OFFCURVE",
"428 102 CURVE SMOOTH",
"457 102 OFFCURVE",
"479 123 OFFCURVE",
"479 151 CURVE SMOOTH",
"479 180 OFFCURVE",
"457 201 OFFCURVE",
"428 201 CURVE SMOOTH",
"399 201 OFFCURVE",
"377 180 OFFCURVE",
"377 151 CURVE SMOOTH"
);
}
);
width = 867;
}
);
note = .notdef;
},
{
glyphname = A;
lastChange = "2020-07-28 15:47:08 +0000";
layers = (
{
layerId = "83CEB4AC-2A3F-4494-A887-C39963512B94";
paths = (
{
closed = 1;
nodes = (
"241 700 LINE",
"25 0 LINE",
"112 0 LINE",
"166 177 LINE",
"464 177 LINE",
"518 0 LINE",
"605 0 LINE",
"389 700 LINE"
);
},
{
closed = 1;
nodes = (
"188 253 LINE",
"308 649 LINE",
"322 649 LINE",
"442 253 LINE"
);
}
);
width = 630;
},
{
layerId = "8F42668C-F186-4E73-94E7-C31CD8308E50";
paths = (
{
closed = 1;
nodes = (
"241 700 LINE",
"25 0 LINE",
"112 0 LINE",
"166 177 LINE",
"464 177 LINE",
"518 0 LINE",
"605 0 LINE",
"389 700 LINE"
);
},
{
closed = 1;
nodes = (
"188 253 LINE",
"308 649 LINE",
"322 649 LINE",
"442 253 LINE"
);
}
);
width = 630;
}
);
leftKerningGroup = A;
note = A;
rightKerningGroup = A;
unicode = 0041;
},
{
glyphname = B;
lastChange = "2020-07-28 15:47:08 +0000";
layers = (
{
layerId = "83CEB4AC-2A3F-4494-A887-C39963512B94";
paths = (
{
closed = 1;
nodes = (
"47 0 LINE",
"397 0 LINE SMOOTH",
"518 0 OFFCURVE",
"608 68 OFFCURVE",
"608 183 CURVE SMOOTH",
"608 193 LINE SMOOTH",
"608 291 OFFCURVE",
"542 335 OFFCURVE",
"492 347 CURVE",
"492 361 LINE",
"541 376 OFFCURVE",
"607 418 OFFCURVE",
"607 516 CURVE SMOOTH",
"607 524 LINE SMOOTH",
"607 630 OFFCURVE",
"521 700 OFFCURVE",
"398 700 CURVE SMOOTH",
"47 700 LINE",
"47 625 LINE",
"145 625 LINE",
"145 75 LINE",
"47 75 LINE"
);
},
{
closed = 1;
nodes = (
"229 391 LINE",
"229 624 LINE",
"391 624 LINE SMOOTH",
"472 624 OFFCURVE",
"523 580 OFFCURVE",
"523 512 CURVE SMOOTH",
"523 502 LINE SMOOTH",
"523 435 OFFCURVE",
"472 391 OFFCURVE",
"391 391 CURVE SMOOTH"
);
},
{
closed = 1;
nodes = (
"229 76 LINE",
"229 315 LINE",
"388 315 LINE SMOOTH",
"476 315 OFFCURVE",
"524 271 OFFCURVE",
"524 200 CURVE SMOOTH",
"524 191 LINE SMOOTH",
"524 120 OFFCURVE",
"476 76 OFFCURVE",
"388 76 CURVE SMOOTH"
);
}
);
width = 661;
},
{
layerId = "8F42668C-F186-4E73-94E7-C31CD8308E50";
paths = (
{
closed = 1;
nodes = (
"47 0 LINE",
"397 0 LINE SMOOTH",
"518 0 OFFCURVE",
"608 68 OFFCURVE",
"608 183 CURVE SMOOTH",
"608 193 LINE SMOOTH",
"608 291 OFFCURVE",
"542 335 OFFCURVE",
"492 347 CURVE",
"492 361 LINE",
"541 376 OFFCURVE",
"607 418 OFFCURVE",
"607 516 CURVE SMOOTH",
"607 524 LINE SMOOTH",
"607 630 OFFCURVE",
"521 700 OFFCURVE",
"398 700 CURVE SMOOTH",
"47 700 LINE",
"47 625 LINE",
"145 625 LINE",
"145 75 LINE",
"47 75 LINE"
);
},
{
closed = 1;
nodes = (
"229 391 LINE",
"229 624 LINE",
"391 624 LINE SMOOTH",
"472 624 OFFCURVE",
"523 580 OFFCURVE",
"523 512 CURVE SMOOTH",
"523 502 LINE SMOOTH",
"523 435 OFFCURVE",
"472 391 OFFCURVE",
"391 391 CURVE SMOOTH"
);
},
{
closed = 1;
nodes = (
"229 76 LINE",
"229 315 LINE",
"388 315 LINE SMOOTH",
"476 315 OFFCURVE",
"524 271 OFFCURVE",
"524 200 CURVE SMOOTH",
"524 191 LINE SMOOTH",
"524 120 OFFCURVE",
"476 76 OFFCURVE",
"388 76 CURVE SMOOTH"
);
}
);
width = 661;
}
);
leftKerningGroup = B;
note = B;
rightKerningGroup = B;
unicode = 0042;
},
{
glyphname = C;
lastChange = "2020-07-28 15:47:08 +0000";
layers = (
{
layerId = "83CEB4AC-2A3F-4494-A887-C39963512B94";
paths = (
{
closed = 1;
nodes = (
"60 270 LINE SMOOTH",
"60 85 OFFCURVE",
"167 -14 OFFCURVE",
"333 -14 CURVE SMOOTH",
"498 -14 OFFCURVE",
"590 85 OFFCURVE",
"590 244 CURVE SMOOTH",
"590 257 LINE",
"507 257 LINE",
"507 241 LINE SMOOTH",
"507 136 OFFCURVE",
"452 61 OFFCURVE",
"333 61 CURVE SMOOTH",
"214 61 OFFCURVE",
"144 138 OFFCURVE",
"144 268 CURVE SMOOTH",
"144 432 LINE SMOOTH",
"144 562 OFFCURVE",
"214 639 OFFCURVE",
"333 639 CURVE SMOOTH",
"452 639 OFFCURVE",
"507 564 OFFCURVE",
"507 459 CURVE SMOOTH",
"507 451 LINE",
"590 451 LINE",
"590 456 LINE SMOOTH",
"590 615 OFFCURVE",
"498 714 OFFCURVE",
"333 714 CURVE SMOOTH",
"167 714 OFFCURVE",
"60 615 OFFCURVE",
"60 430 CURVE SMOOTH"
);
}
);
width = 642;
},
{
layerId = "8F42668C-F186-4E73-94E7-C31CD8308E50";
paths = (
{
closed = 1;
nodes = (
"60 270 LINE SMOOTH",
"60 85 OFFCURVE",
"167 -14 OFFCURVE",
"333 -14 CURVE SMOOTH",
"498 -14 OFFCURVE",
"590 85 OFFCURVE",
"590 244 CURVE SMOOTH",
"590 257 LINE",
"507 257 LINE",
"507 241 LINE SMOOTH",
"507 136 OFFCURVE",
"452 61 OFFCURVE",
"333 61 CURVE SMOOTH",
"214 61 OFFCURVE",
"144 138 OFFCURVE",
"144 268 CURVE SMOOTH",
"144 432 LINE SMOOTH",
"144 562 OFFCURVE",
"214 639 OFFCURVE",
"333 639 CURVE SMOOTH",
"452 639 OFFCURVE",
"507 564 OFFCURVE",
"507 459 CURVE SMOOTH",
"507 451 LINE",
"590 451 LINE",
"590 456 LINE SMOOTH",
"590 615 OFFCURVE",
"498 714 OFFCURVE",
"333 714 CURVE SMOOTH",
"167 714 OFFCURVE",
"60 615 OFFCURVE",
"60 430 CURVE SMOOTH"
);
}
);
width = 642;
}
);
leftKerningGroup = C;
note = C;
rightKerningGroup = C;
unicode = 0043;
},
{
glyphname = D;
lastChange = "2020-07-28 15:47:08 +0000";
layers = (
{
layerId = "83CEB4AC-2A3F-4494-A887-C39963512B94";
paths = (
{
closed = 1;
nodes = (
"47 700 LINE",
"47 625 LINE",
"145 625 LINE",
"145 75 LINE",
"47 75 LINE",
"47 0 LINE",
"320 0 LINE SMOOTH",
"504 0 OFFCURVE",
"609 91 OFFCURVE",
"609 285 CURVE SMOOTH",
"609 415 LINE SMOOTH",
"609 608 OFFCURVE",
"504 700 OFFCURVE",
"320 700 CURVE SMOOTH"
);
},
{
closed = 1;
nodes = (
"229 623 LINE",
"320 623 LINE SMOOTH",
"455 623 OFFCURVE",
"526 560 OFFCURVE",
"526 418 CURVE SMOOTH",
"526 281 LINE SMOOTH",
"526 140 OFFCURVE",
"455 76 OFFCURVE",
"320 76 CURVE SMOOTH",
"229 76 LINE"
);
}
);
width = 663;
},
{
layerId = "8F42668C-F186-4E73-94E7-C31CD8308E50";
paths = (
{
closed = 1;
nodes = (
"47 700 LINE",
"47 625 LINE",
"145 625 LINE",
"145 75 LINE",
"47 75 LINE",
"47 0 LINE",
"320 0 LINE SMOOTH",
"504 0 OFFCURVE",
"609 91 OFFCURVE",
"609 285 CURVE SMOOTH",
"609 415 LINE SMOOTH",
"609 608 OFFCURVE",
"504 700 OFFCURVE",
"320 700 CURVE SMOOTH"
);
},
{
closed = 1;
nodes = (
"229 623 LINE",
"320 623 LINE SMOOTH",
"455 623 OFFCURVE",
"526 560 OFFCURVE",
"526 418 CURVE SMOOTH",
"526 281 LINE SMOOTH",
"526 140 OFFCURVE",
"455 76 OFFCURVE",
"320 76 CURVE SMOOTH",
"229 76 LINE"
);
}
);
width = 663;
}
);
leftKerningGroup = B;
note = D;
rightKerningGroup = D;
unicode = 0044;
},
{
glyphname = E;
lastChange = "2020-07-28 15:47:08 +0000";
layers = (
{
layerId = "83CEB4AC-2A3F-4494-A887-C39963512B94";
paths = (
{
closed = 1;
nodes = (
"80 700 LINE",
"80 0 LINE",
"516 0 LINE",
"516 76 LINE",
"164 76 LINE",
"164 314 LINE",
"483 314 LINE",
"483 390 LINE",
"164 390 LINE",
"164 624 LINE",
"511 624 LINE",
"511 700 LINE"
);
}
);
width = 563;
},
{
layerId = "8F42668C-F186-4E73-94E7-C31CD8308E50";
paths = (
{
closed = 1;
nodes = (
"80 700 LINE",
"80 0 LINE",
"516 0 LINE",
"516 76 LINE",
"164 76 LINE",
"164 314 LINE",
"483 314 LINE",
"483 390 LINE",
"164 390 LINE",
"164 624 LINE",
"511 624 LINE",
"511 700 LINE"
);
}
);
width = 563;
}
);
note = E;
rightKerningGroup = E;
unicode = 0045;
},
{
glyphname = F;
lastChange = "2020-07-28 15:55:44 +0000";
layers = (
{
layerId = "83CEB4AC-2A3F-4494-A887-C39963512B94";
paths = (
{
closed = 1;
nodes = (
"95 700 LINE",
"95 0 LINE",
"179 0 LINE",
"179 312 LINE",
"519 312 LINE",
"519 390 LINE",
"179 390 LINE",
"179 622 LINE",
"525 622 LINE",
"525 700 LINE"
);
}
);
width = 612;
},
{
layerId = "8F42668C-F186-4E73-94E7-C31CD8308E50";
paths = (
{
closed = 1;
nodes = (
"80 700 LINE",
"80 0 LINE",
"164 0 LINE",
"164 313 LINE",
"476 313 LINE",
"476 389 LINE",
"164 389 LINE",
"164 624 LINE",
"503 624 LINE",
"503 700 LINE"
);
}
);
width = 540;
}
);
note = F;
rightKerningGroup = F;
unicode = 0046;
},
{
glyphname = G;
lastChange = "2020-07-28 15:58:10 +0000";
layers = (
{
layerId = "83CEB4AC-2A3F-4494-A887-C39963512B94";
paths = (
{
closed = 1;
nodes = (
"59 272 LINE SMOOTH",
"59 85 OFFCURVE",
"150 -14 OFFCURVE",
"301 -14 CURVE SMOOTH",
"377 -14 OFFCURVE",
"438 25 OFFCURVE",
"461 84 CURVE",
"473 84 LINE",
"473 0 LINE",
"551 0 LINE",
"551 336 LINE",
"239 336 LINE",
"239 258 LINE",
"467 258 LINE",
"467 246 LINE SMOOTH",
"467 131 OFFCURVE",
"407 64 OFFCURVE",
"307 64 CURVE SMOOTH",
"196 64 OFFCURVE",
"143 141 OFFCURVE",
"143 278 CURVE SMOOTH",
"143 422 LINE SMOOTH",
"143 550 OFFCURVE",
"197 636 OFFCURVE",
"305 636 CURVE SMOOTH",
"414 636 OFFCURVE",
"467 558 OFFCURVE",
"467 460 CURVE SMOOTH",
"467 448 LINE",
"551 448 LINE",
"551 460 LINE SMOOTH",
"551 607 OFFCURVE",
"461 714 OFFCURVE",
"305 714 CURVE SMOOTH",
"150 714 OFFCURVE",
"59 609 OFFCURVE",
"59 428 CURVE SMOOTH"
);
}
);
width = 612;
},
{
layerId = "8F42668C-F186-4E73-94E7-C31CD8308E50";
paths = (
{
closed = 1;
nodes = (
"60 270 LINE SMOOTH",
"60 85 OFFCURVE",
"168 -14 OFFCURVE",
"324 -14 CURVE SMOOTH",
"432 -14 OFFCURVE",
"476 31 OFFCURVE",
"497 76 CURVE",
"511 76 LINE",
"511 0 LINE",
"587 0 LINE",
"587 333 LINE",
"293 333 LINE",
"293 261 LINE",
"505 261 LINE",
"505 244 LINE SMOOTH",
"505 133 OFFCURVE",
"451 61 OFFCURVE",
"334 61 CURVE SMOOTH",
"214 61 OFFCURVE",
"144 138 OFFCURVE",
"144 268 CURVE SMOOTH",
"144 432 LINE SMOOTH",
"144 562 OFFCURVE",
"214 639 OFFCURVE",
"333 639 CURVE SMOOTH",
"452 639 OFFCURVE",
"504 565 OFFCURVE",
"504 466 CURVE SMOOTH",
"504 459 LINE",
"587 459 LINE",
"587 464 LINE SMOOTH",
"587 616 OFFCURVE",
"498 714 OFFCURVE",
"333 714 CURVE SMOOTH",
"167 714 OFFCURVE",
"60 615 OFFCURVE",
"60 430 CURVE SMOOTH"
);
}
);
width = 660;
}
);
leftKerningGroup = C;
note = G;
rightKerningGroup = G;
unicode = 0047;
},
{
glyphname = H;
lastChange = "2020-07-28 15:47:08 +0000";
layers = (
{
layerId = "83CEB4AC-2A3F-4494-A887-C39963512B94";
paths = (
{
closed = 1;
nodes = (
"80 700 LINE",
"80 0 LINE",
"164 0 LINE",
"164 313 LINE",
"492 313 LINE",
"492 0 LINE",
"576 0 LINE",
"576 700 LINE",
"492 700 LINE",
"492 389 LINE",
"164 389 LINE",
"164 700 LINE"
);
}
);
width = 656;
},
{
layerId = "8F42668C-F186-4E73-94E7-C31CD8308E50";
paths = (
{
closed = 1;
nodes = (
"80 700 LINE",
"80 0 LINE",
"164 0 LINE",
"164 313 LINE",
"492 313 LINE",
"492 0 LINE",
"576 0 LINE",
"576 700 LINE",
"492 700 LINE",
"492 389 LINE",
"164 389 LINE",
"164 700 LINE"
);
}
);
width = 656;
}
);
note = H;
rightKerningGroup = H;
unicode = 0048;
},
{
glyphname = I;
lastChange = "2020-07-28 15:47:08 +0000";
layers = (
{
layerId = "83CEB4AC-2A3F-4494-A887-C39963512B94";
paths = (
{
closed = 1;
nodes = (
"80 700 LINE",
"80 0 LINE",
"164 0 LINE",
"164 700 LINE"
);
}
);
width = 244;
},
{
layerId = "8F42668C-F186-4E73-94E7-C31CD8308E50";
paths = (
{
closed = 1;
nodes = (
"80 700 LINE",
"80 0 LINE",
"164 0 LINE",
"164 700 LINE"
);
}
);
width = 244;
}
);
note = I;
rightKerningGroup = H;
unicode = 0049;
},
{
glyphname = J;
lastChange = "2020-07-28 15:47:08 +0000";
layers = (
{
layerId = "83CEB4AC-2A3F-4494-A887-C39963512B94";
paths = (
{
closed = 1;
nodes = (
"267 700 LINE",
"267 624 LINE",
"390 624 LINE",
"390 210 LINE SMOOTH",
"390 122 OFFCURVE",
"355 63 OFFCURVE",
"262 63 CURVE SMOOTH",
"170 63 OFFCURVE",
"124 122 OFFCURVE",
"124 210 CURVE SMOOTH",
"124 264 LINE",
"41 264 LINE",
"41 210 LINE SMOOTH",
"41 65 OFFCURVE",
"126 -14 OFFCURVE",
"263 -14 CURVE SMOOTH",
"400 -14 OFFCURVE",
"474 64 OFFCURVE",
"474 210 CURVE SMOOTH",
"474 624 LINE",
"550 624 LINE",
"550 700 LINE"
);
}
);
width = 594;
},
{
layerId = "8F42668C-F186-4E73-94E7-C31CD8308E50";
paths = (
{
closed = 1;
nodes = (
"267 700 LINE",
"267 624 LINE",
"390 624 LINE",
"390 210 LINE SMOOTH",
"390 122 OFFCURVE",
"355 63 OFFCURVE",
"262 63 CURVE SMOOTH",
"170 63 OFFCURVE",
"124 122 OFFCURVE",
"124 210 CURVE SMOOTH",
"124 264 LINE",
"41 264 LINE",
"41 210 LINE SMOOTH",
"41 65 OFFCURVE",
"126 -14 OFFCURVE",
"263 -14 CURVE SMOOTH",
"400 -14 OFFCURVE",
"474 64 OFFCURVE",
"474 210 CURVE SMOOTH",
"474 624 LINE",
"550 624 LINE",
"550 700 LINE"
);
}
);
width = 594;
}
);
leftKerningGroup = J;
note = J;
rightKerningGroup = J;
unicode = 004A;
},
{
glyphname = K;
lastChange = "2020-07-28 15:47:08 +0000";
layers = (
{
layerId = "83CEB4AC-2A3F-4494-A887-C39963512B94";
paths = (
{
closed = 1;
nodes = (
"80 0 LINE",
"164 0 LINE",
"164 311 LINE",
"178 311 LINE",
"483 0 LINE",
"598 0 LINE",
"245 354 LINE",
"586 700 LINE",
"474 700 LINE",
"178 395 LINE",
"164 395 LINE",
"164 700 LINE",
"80 700 LINE"
);
}
);
width = 610;
},
{
layerId = "8F42668C-F186-4E73-94E7-C31CD8308E50";
paths = (
{
closed = 1;
nodes = (
"80 0 LINE",
"164 0 LINE",
"164 311 LINE",
"178 311 LINE",
"483 0 LINE",
"598 0 LINE",
"245 354 LINE",
"586 700 LINE",
"474 700 LINE",
"178 395 LINE",
"164 395 LINE",
"164 700 LINE",
"80 700 LINE"
);
}
);
width = 610;
}
);
note = K;
rightKerningGroup = K;
unicode = 004B;
},
{
glyphname = L;
lastChange = "2020-07-28 15:47:08 +0000";
layers = (
{
layerId = "83CEB4AC-2A3F-4494-A887-C39963512B94";
paths = (
{
closed = 1;
nodes = (
"80 700 LINE",
"80 0 LINE",
"518 0 LINE",
"518 76 LINE",
"164 76 LINE",
"164 700 LINE"
);
}
);
width = 546;
},
{
layerId = "8F42668C-F186-4E73-94E7-C31CD8308E50";
paths = (
{
closed = 1;
nodes = (
"80 700 LINE",
"80 0 LINE",
"518 0 LINE",
"518 76 LINE",
"164 76 LINE",
"164 700 LINE"
);
}
);
width = 546;
}
);
note = L;
rightKerningGroup = L;
unicode = 004C;
},
{
glyphname = M;
lastChange = "2020-07-28 15:49:07 +0000";
layers = (
{
layerId = "83CEB4AC-2A3F-4494-A887-C39963512B94";
paths = (
{
closed = 1;
nodes = (
"46 700 LINE",
"46 0 LINE",
"124 0 LINE",
"124 664 LINE",
"136 664 LINE",
"230 0 LINE",
"382 0 LINE",
"476 664 LINE",
"488 664 LINE",
"488 0 LINE",
"566 0 LINE",
"566 700 LINE",
"406 700 LINE",
"312 36 LINE",
"300 36 LINE",
"206 700 LINE"
);
}
);
width = 612;
},
{
layerId = "8F42668C-F186-4E73-94E7-C31CD8308E50";
paths = (
{
closed = 1;
nodes = (
"80 700 LINE",
"80 0 LINE",
"161 0 LINE",
"161 645 LINE",
"175 645 LINE",
"360 0 LINE",
"505 0 LINE",
"690 645 LINE",
"704 645 LINE",
"704 0 LINE",
"785 0 LINE",
"785 700 LINE",
"625 700 LINE",
"439 53 LINE",
"426 53 LINE",
"240 700 LINE"
);
}
);
width = 865;
}
);
note = M;
rightKerningGroup = H;
unicode = 004D;
},
{
glyphname = N;
lastChange = "2020-07-28 15:47:08 +0000";
layers = (
{
layerId = "83CEB4AC-2A3F-4494-A887-C39963512B94";
paths = (
{
closed = 1;
nodes = (
"80 700 LINE",
"80 0 LINE",
"163 0 LINE",
"163 648 LINE",
"177 648 LINE",
"420 0 LINE",
"583 0 LINE",
"583 700 LINE",
"500 700 LINE",
"500 53 LINE",
"487 53 LINE",
"243 700 LINE"
);
}
);
width = 664;
},
{
layerId = "8F42668C-F186-4E73-94E7-C31CD8308E50";
paths = (
{
closed = 1;
nodes = (
"80 700 LINE",
"80 0 LINE",
"163 0 LINE",
"163 648 LINE",
"177 648 LINE",
"420 0 LINE",
"583 0 LINE",
"583 700 LINE",
"500 700 LINE",
"500 53 LINE",
"487 53 LINE",
"243 700 LINE"
);
}
);
width = 664;
}
);
note = N;
rightKerningGroup = H;
unicode = 004E;
},
{
glyphname = O;
lastChange = "2020-07-28 15:47:08 +0000";
layers = (
{
layerId = "83CEB4AC-2A3F-4494-A887-C39963512B94";
paths = (
{
closed = 1;
nodes = (
"60 270 LINE SMOOTH",
"60 85 OFFCURVE",
"167 -14 OFFCURVE",
"334 -14 CURVE SMOOTH",
"502 -14 OFFCURVE",
"609 85 OFFCURVE",
"609 270 CURVE SMOOTH",
"609 430 LINE SMOOTH",
"609 615 OFFCURVE",
"502 714 OFFCURVE",
"334 714 CURVE SMOOTH",
"167 714 OFFCURVE",
"60 615 OFFCURVE",
"60 430 CURVE SMOOTH"
);
},
{
closed = 1;
nodes = (
"144 433 LINE SMOOTH",
"144 562 OFFCURVE",
"214 639 OFFCURVE",
"334 639 CURVE SMOOTH",
"455 639 OFFCURVE",
"525 562 OFFCURVE",
"525 433 CURVE SMOOTH",
"525 267 LINE SMOOTH",
"525 138 OFFCURVE",
"455 61 OFFCURVE",
"334 61 CURVE SMOOTH",
"214 61 OFFCURVE",
"144 138 OFFCURVE",
"144 267 CURVE SMOOTH"
);
}
);
width = 669;
},
{
layerId = "8F42668C-F186-4E73-94E7-C31CD8308E50";
paths = (
{
closed = 1;
nodes = (
"60 270 LINE SMOOTH",
"60 85 OFFCURVE",
"167 -14 OFFCURVE",
"334 -14 CURVE SMOOTH",
"502 -14 OFFCURVE",
"609 85 OFFCURVE",
"609 270 CURVE SMOOTH",
"609 430 LINE SMOOTH",
"609 615 OFFCURVE",
"502 714 OFFCURVE",
"334 714 CURVE SMOOTH",
"167 714 OFFCURVE",
"60 615 OFFCURVE",
"60 430 CURVE SMOOTH"
);
},
{
closed = 1;
nodes = (
"144 433 LINE SMOOTH",
"144 562 OFFCURVE",
"214 639 OFFCURVE",
"334 639 CURVE SMOOTH",
"455 639 OFFCURVE",
"525 562 OFFCURVE",
"525 433 CURVE SMOOTH",
"525 267 LINE SMOOTH",
"525 138 OFFCURVE",
"455 61 OFFCURVE",
"334 61 CURVE SMOOTH",
"214 61 OFFCURVE",
"144 138 OFFCURVE",
"144 267 CURVE SMOOTH"
);
}
);
width = 669;
}
);
leftKerningGroup = C;
note = O;
rightKerningGroup = D;
unicode = 004F;
},
{
glyphname = P;
lastChange = "2020-07-28 15:47:08 +0000";
layers = (
{
layerId = "83CEB4AC-2A3F-4494-A887-C39963512B94";
paths = (
{
closed = 1;
nodes = (
"80 700 LINE",
"80 0 LINE",
"164 0 LINE",
"164 282 LINE",
"348 282 LINE SMOOTH",
"471 282 OFFCURVE",
"568 357 OFFCURVE",
"568 484 CURVE SMOOTH",
"568 497 LINE SMOOTH",
"568 625 OFFCURVE",
"473 700 OFFCURVE",
"348 700 CURVE SMOOTH"
);
},
{
closed = 1;
nodes = (
"164 624 LINE",
"339 624 LINE SMOOTH",
"430 624 OFFCURVE",
"484 577 OFFCURVE",
"484 496 CURVE SMOOTH",
"484 486 LINE SMOOTH",
"484 404 OFFCURVE",
"428 358 OFFCURVE",
"339 358 CURVE SMOOTH",
"164 358 LINE"
);
}
);
width = 601;
},
{
layerId = "8F42668C-F186-4E73-94E7-C31CD8308E50";
paths = (
{
closed = 1;
nodes = (
"80 700 LINE",
"80 0 LINE",
"164 0 LINE",
"164 282 LINE",
"348 282 LINE SMOOTH",
"471 282 OFFCURVE",
"568 357 OFFCURVE",
"568 484 CURVE SMOOTH",
"568 497 LINE SMOOTH",
"568 625 OFFCURVE",
"473 700 OFFCURVE",
"348 700 CURVE SMOOTH"
);
},
{
closed = 1;
nodes = (
"164 624 LINE",
"339 624 LINE SMOOTH",
"430 624 OFFCURVE",
"484 577 OFFCURVE",
"484 496 CURVE SMOOTH",
"484 486 LINE SMOOTH",
"484 404 OFFCURVE",
"428 358 OFFCURVE",
"339 358 CURVE SMOOTH",
"164 358 LINE"
);
}
);
width = 601;
}
);
note = P;
rightKerningGroup = P;
unicode = 0050;
},
{
glyphname = Q;
lastChange = "2020-07-28 15:47:08 +0000";
layers = (
{
layerId = "83CEB4AC-2A3F-4494-A887-C39963512B94";
paths = (
{
closed = 1;
nodes = (
"60 270 LINE SMOOTH",
"60 100 OFFCURVE",
"150 3 OFFCURVE",
"293 -12 CURVE",
"293 -78 LINE SMOOTH",
"293 -130 OFFCURVE",
"325 -162 OFFCURVE",
"375 -162 CURVE SMOOTH",
"469 -162 LINE",
"469 -93 LINE",
"403 -93 LINE SMOOTH",
"385 -93 OFFCURVE",
"375 -83 OFFCURVE",
"375 -63 CURVE SMOOTH",
"375 -12 LINE",
"519 3 OFFCURVE",
"609 100 OFFCURVE",
"609 270 CURVE SMOOTH",
"609 430 LINE SMOOTH",
"609 615 OFFCURVE",
"502 714 OFFCURVE",
"334 714 CURVE SMOOTH",
"167 714 OFFCURVE",
"60 615 OFFCURVE",
"60 430 CURVE SMOOTH"
);
},
{
closed = 1;
nodes = (
"144 433 LINE SMOOTH",
"144 562 OFFCURVE",
"214 639 OFFCURVE",
"334 639 CURVE SMOOTH",
"455 639 OFFCURVE",
"525 562 OFFCURVE",
"525 433 CURVE SMOOTH",
"525 267 LINE SMOOTH",
"525 138 OFFCURVE",
"455 61 OFFCURVE",
"334 61 CURVE SMOOTH",
"214 61 OFFCURVE",
"144 138 OFFCURVE",
"144 267 CURVE SMOOTH"
);
}
);
width = 669;
},
{
layerId = "8F42668C-F186-4E73-94E7-C31CD8308E50";
paths = (
{
closed = 1;
nodes = (
"60 270 LINE SMOOTH",
"60 100 OFFCURVE",
"150 3 OFFCURVE",
"293 -12 CURVE",
"293 -78 LINE SMOOTH",
"293 -130 OFFCURVE",
"325 -162 OFFCURVE",
"375 -162 CURVE SMOOTH",
"469 -162 LINE",
"469 -93 LINE",
"403 -93 LINE SMOOTH",
"385 -93 OFFCURVE",
"375 -83 OFFCURVE",
"375 -63 CURVE SMOOTH",
"375 -12 LINE",
"519 3 OFFCURVE",
"609 100 OFFCURVE",
"609 270 CURVE SMOOTH",
"609 430 LINE SMOOTH",
"609 615 OFFCURVE",
"502 714 OFFCURVE",
"334 714 CURVE SMOOTH",
"167 714 OFFCURVE",
"60 615 OFFCURVE",
"60 430 CURVE SMOOTH"
);
},
{
closed = 1;
nodes = (
"144 433 LINE SMOOTH",
"144 562 OFFCURVE",
"214 639 OFFCURVE",
"334 639 CURVE SMOOTH",
"455 639 OFFCURVE",
"525 562 OFFCURVE",
"525 433 CURVE SMOOTH",
"525 267 LINE SMOOTH",
"525 138 OFFCURVE",
"455 61 OFFCURVE",
"334 61 CURVE SMOOTH",
"214 61 OFFCURVE",
"144 138 OFFCURVE",
"144 267 CURVE SMOOTH"
);
}
);
width = 669;
}
);
leftKerningGroup = C;
note = Q;
rightKerningGroup = D;
unicode = 0051;
},
{
glyphname = R;
lastChange = "2020-07-28 15:47:08 +0000";
layers = (
{
layerId = "83CEB4AC-2A3F-4494-A887-C39963512B94";
paths = (
{
closed = 1;
nodes = (
"80 700 LINE",
"80 0 LINE",
"164 0 LINE",
"164 287 LINE",
"406 287 LINE SMOOTH",
"451 287 OFFCURVE",
"472 265 OFFCURVE",
"472 225 CURVE SMOOTH",
"472 0 LINE",
"555 0 LINE",
"555 235 LINE SMOOTH",
"555 295 OFFCURVE",
"520 324 OFFCURVE",
"472 326 CURVE",
"472 340 LINE",
"532 359 OFFCURVE",
"583 411 OFFCURVE",
"583 503 CURVE SMOOTH",
"583 514 LINE SMOOTH",
"583 630 OFFCURVE",
"492 700 OFFCURVE",
"363 700 CURVE SMOOTH"
);
},
{
closed = 1;
nodes = (
"164 624 LINE",
"355 624 LINE SMOOTH",
"448 624 OFFCURVE",
"499 578 OFFCURVE",
"499 497 CURVE SMOOTH",
"499 490 LINE SMOOTH",
"499 410 OFFCURVE",
"446 363 OFFCURVE",
"355 363 CURVE SMOOTH",
"164 363 LINE"
);
}
);
width = 631;
},
{
layerId = "8F42668C-F186-4E73-94E7-C31CD8308E50";
paths = (
{
closed = 1;
nodes = (
"80 700 LINE",
"80 0 LINE",
"164 0 LINE",
"164 287 LINE",
"406 287 LINE SMOOTH",
"451 287 OFFCURVE",
"472 265 OFFCURVE",
"472 225 CURVE SMOOTH",
"472 0 LINE",
"555 0 LINE",
"555 235 LINE SMOOTH",
"555 295 OFFCURVE",
"520 324 OFFCURVE",
"472 326 CURVE",
"472 340 LINE",
"532 359 OFFCURVE",
"583 411 OFFCURVE",
"583 503 CURVE SMOOTH",
"583 514 LINE SMOOTH",
"583 630 OFFCURVE",
"492 700 OFFCURVE",
"363 700 CURVE SMOOTH"
);
},
{
closed = 1;
nodes = (
"164 624 LINE",
"355 624 LINE SMOOTH",
"448 624 OFFCURVE",
"499 578 OFFCURVE",
"499 497 CURVE SMOOTH",
"499 490 LINE SMOOTH",
"499 410 OFFCURVE",
"446 363 OFFCURVE",
"355 363 CURVE SMOOTH",
"164 363 LINE"
);
}
);
width = 631;
}
);
note = R;
rightKerningGroup = R;
unicode = 0052;
},
{
glyphname = S;
lastChange = "2020-07-28 15:47:08 +0000";
layers = (
{
layerId = "83CEB4AC-2A3F-4494-A887-C39963512B94";
paths = (
{
closed = 1;
nodes = (
"160 714 OFFCURVE",
"65 641 OFFCURVE",
"65 523 CURVE SMOOTH",
"65 405 OFFCURVE",
"149 357 OFFCURVE",
"273 327 CURVE SMOOTH",
"325 314 LINE SMOOTH",
"419 292 OFFCURVE",
"481 266 OFFCURVE",
"481 189 CURVE SMOOTH",
"481 114 OFFCURVE",
"422 59 OFFCURVE",
"313 59 CURVE SMOOTH",
"206 59 OFFCURVE",
"131 114 OFFCURVE",
"131 231 CURVE SMOOTH",
"131 252 LINE",
"48 252 LINE",
"48 231 LINE SMOOTH",
"48 67 OFFCURVE",
"160 -14 OFFCURVE",
"313 -14 CURVE SMOOTH",
"465 -14 OFFCURVE",
"564 67 OFFCURVE",
"564 191 CURVE SMOOTH",
"564 314 OFFCURVE",
"469 360 OFFCURVE",
"348 388 CURVE SMOOTH",
"296 401 LINE SMOOTH",
"203 424 OFFCURVE",
"148 449 OFFCURVE",
"148 524 CURVE SMOOTH",
"148 599 OFFCURVE",
"208 641 OFFCURVE",
"301 641 CURVE SMOOTH",
"397 641 OFFCURVE",
"467 599 OFFCURVE",
"467 498 CURVE SMOOTH",
"467 456 LINE",
"550 456 LINE",
"550 498 LINE SMOOTH",
"550 641 OFFCURVE",
"442 714 OFFCURVE",
"301 714 CURVE SMOOTH"
);
}
);
width = 613;
},
{
layerId = "8F42668C-F186-4E73-94E7-C31CD8308E50";
paths = (
{
closed = 1;
nodes = (
"160 714 OFFCURVE",
"65 641 OFFCURVE",
"65 523 CURVE SMOOTH",
"65 405 OFFCURVE",
"149 357 OFFCURVE",
"273 327 CURVE SMOOTH",
"325 314 LINE SMOOTH",
"419 292 OFFCURVE",
"481 266 OFFCURVE",
"481 189 CURVE SMOOTH",
"481 114 OFFCURVE",
"422 59 OFFCURVE",
"313 59 CURVE SMOOTH",
"206 59 OFFCURVE",
"131 114 OFFCURVE",
"131 231 CURVE SMOOTH",
"131 252 LINE",
"48 252 LINE",
"48 231 LINE SMOOTH",
"48 67 OFFCURVE",
"160 -14 OFFCURVE",
"313 -14 CURVE SMOOTH",
"465 -14 OFFCURVE",
"564 67 OFFCURVE",
"564 191 CURVE SMOOTH",
"564 314 OFFCURVE",
"469 360 OFFCURVE",
"348 388 CURVE SMOOTH",
"296 401 LINE SMOOTH",
"203 424 OFFCURVE",
"148 449 OFFCURVE",
"148 524 CURVE SMOOTH",
"148 599 OFFCURVE",
"208 641 OFFCURVE",
"301 641 CURVE SMOOTH",
"397 641 OFFCURVE",
"467 599 OFFCURVE",
"467 498 CURVE SMOOTH",
"467 456 LINE",
"550 456 LINE",
"550 498 LINE SMOOTH",
"550 641 OFFCURVE",
"442 714 OFFCURVE",
"301 714 CURVE SMOOTH"
);
}
);
width = 613;
}
);
leftKerningGroup = S;
note = S;
rightKerningGroup = S;
unicode = 0053;
},
{
glyphname = T;
lastChange = "2020-07-28 15:47:08 +0000";
layers = (
{
layerId = "83CEB4AC-2A3F-4494-A887-C39963512B94";
paths = (
{
closed = 1;
nodes = (
"27 700 LINE",
"27 624 LINE",
"252 624 LINE",
"252 0 LINE",
"336 0 LINE",
"336 624 LINE",
"561 624 LINE",
"561 700 LINE"
);
}
);
width = 588;
},
{
layerId = "8F42668C-F186-4E73-94E7-C31CD8308E50";
paths = (
{
closed = 1;
nodes = (
"27 700 LINE",
"27 624 LINE",
"252 624 LINE",
"252 0 LINE",
"336 0 LINE",
"336 624 LINE",
"561 624 LINE",
"561 700 LINE"
);
}
);
width = 588;
}
);
leftKerningGroup = T;
note = T;
rightKerningGroup = T;
unicode = 0054;
},
{
glyphname = U;
lastChange = "2020-07-28 15:47:08 +0000";
layers = (
{
layerId = "83CEB4AC-2A3F-4494-A887-C39963512B94";
paths = (
{
closed = 1;
nodes = (
"75 700 LINE",
"75 234 LINE SMOOTH",
"75 71 OFFCURVE",
"177 -14 OFFCURVE",
"333 -14 CURVE SMOOTH",
"490 -14 OFFCURVE",
"592 71 OFFCURVE",
"592 234 CURVE SMOOTH",
"592 700 LINE",
"508 700 LINE",
"508 233 LINE SMOOTH",
"508 119 OFFCURVE",
"444 61 OFFCURVE",
"333 61 CURVE SMOOTH",
"222 61 OFFCURVE",
"159 119 OFFCURVE",
"159 233 CURVE SMOOTH",
"159 700 LINE"
);
}
);
width = 666;
},
{
layerId = "8F42668C-F186-4E73-94E7-C31CD8308E50";
paths = (
{
closed = 1;
nodes = (
"75 700 LINE",
"75 234 LINE SMOOTH",
"75 71 OFFCURVE",
"177 -14 OFFCURVE",
"333 -14 CURVE SMOOTH",
"490 -14 OFFCURVE",
"592 71 OFFCURVE",
"592 234 CURVE SMOOTH",
"592 700 LINE",
"508 700 LINE",
"508 233 LINE SMOOTH",
"508 119 OFFCURVE",
"444 61 OFFCURVE",
"333 61 CURVE SMOOTH",
"222 61 OFFCURVE",
"159 119 OFFCURVE",
"159 233 CURVE SMOOTH",
"159 700 LINE"
);
}
);
width = 666;
}
);
leftKerningGroup = U;
note = U;
rightKerningGroup = U;
unicode = 0055;
},
{
glyphname = V;
lastChange = "2020-07-28 15:47:08 +0000";
layers = (
{
layerId = "83CEB4AC-2A3F-4494-A887-C39963512B94";
paths = (
{
closed = 1;
nodes = (
"25 700 LINE",
"236 0 LINE",
"383 0 LINE",
"594 700 LINE",
"507 700 LINE",
"316 51 LINE",
"303 51 LINE",
"112 700 LINE"
);
}
);
width = 619;
},
{
layerId = "8F42668C-F186-4E73-94E7-C31CD8308E50";
paths = (
{
closed = 1;
nodes = (
"25 700 LINE",
"236 0 LINE",
"383 0 LINE",
"594 700 LINE",
"507 700 LINE",
"316 51 LINE",
"303 51 LINE",
"112 700 LINE"
);
}
);
width = 619;
}
);
leftKerningGroup = V;
note = V;
rightKerningGroup = V;
unicode = 0056;
},
{
glyphname = W;
lastChange = "2020-07-28 16:01:58 +0000";
layers = (
{
layerId = "83CEB4AC-2A3F-4494-A887-C39963512B94";
paths = (
{
closed = 1;
nodes = (
"11 700 LINE",
"82 0 LINE",
"235 0 LINE",
"300 664 LINE",
"312 664 LINE",
"377 0 LINE",
"530 0 LINE",
"601 700 LINE",
"525 700 LINE",
"458 36 LINE",
"446 36 LINE",
"383 700 LINE",
"229 700 LINE",
"166 36 LINE",
"154 36 LINE",
"87 700 LINE"
);
}
);
width = 612;
},
{
layerId = "8F42668C-F186-4E73-94E7-C31CD8308E50";
paths = (
{
closed = 1;
nodes = (
"37 700 LINE",
"151 0 LINE",
"302 0 LINE",
"431 650 LINE",
"445 650 LINE",
"574 0 LINE",
"724 0 LINE",
"838 700 LINE",
"754 700 LINE",
"655 54 LINE",
"641 54 LINE",
"513 700 LINE",
"363 700 LINE",
"234 54 LINE",
"220 54 LINE",
"121 700 LINE"
);
}
);
width = 875;
}
);
leftKerningGroup = W;
note = W;
rightKerningGroup = W;
unicode = 0057;
},
{
glyphname = X;
lastChange = "2020-07-28 15:47:08 +0000";
layers = (
{
layerId = "83CEB4AC-2A3F-4494-A887-C39963512B94";
paths = (
{
closed = 1;
nodes = (
"35 700 LINE",
"258 353 LINE",
"32 0 LINE",
"130 0 LINE",
"312 295 LINE",
"325 295 LINE",
"508 0 LINE",
"606 0 LINE",
"380 353 LINE",
"602 700 LINE",
"504 700 LINE",
"325 412 LINE",
"312 412 LINE",
"134 700 LINE"
);
}
);
width = 638;
},
{
layerId = "8F42668C-F186-4E73-94E7-C31CD8308E50";
paths = (
{
closed = 1;
nodes = (
"35 700 LINE",
"258 353 LINE",
"32 0 LINE",
"130 0 LINE",
"312 295 LINE",
"325 295 LINE",
"508 0 LINE",
"606 0 LINE",
"380 353 LINE",
"602 700 LINE",
"504 700 LINE",
"325 412 LINE",
"312 412 LINE",
"134 700 LINE"
);
}
);
width = 638;
}
);
leftKerningGroup = X;
note = X;
rightKerningGroup = X;
unicode = 0058;
},
{
glyphname = Y;
lastChange = "2020-07-28 15:47:08 +0000";
layers = (
{
layerId = "83CEB4AC-2A3F-4494-A887-C39963512B94";
paths = (
{
closed = 1;
nodes = (
"14 700 LINE",
"263 267 LINE",
"263 0 LINE",
"347 0 LINE",
"347 267 LINE",
"596 700 LINE",
"500 700 LINE",
"312 365 LINE",
"298 365 LINE",
"110 700 LINE"
);
}
);
width = 610;
},
{
layerId = "8F42668C-F186-4E73-94E7-C31CD8308E50";
paths = (
{
closed = 1;
nodes = (
"14 700 LINE",
"263 267 LINE",
"263 0 LINE",
"347 0 LINE",
"347 267 LINE",
"596 700 LINE",
"500 700 LINE",
"312 365 LINE",
"298 365 LINE",
"110 700 LINE"
);
}
);
width = 610;
}
);
leftKerningGroup = Y;
note = Y;
rightKerningGroup = Y;
unicode = 0059;
},
{
glyphname = Z;
lastChange = "2020-07-28 15:47:08 +0000";
layers = (
{
layerId = "83CEB4AC-2A3F-4494-A887-C39963512B94";
paths = (
{
closed = 1;
nodes = (
"62 700 LINE",
"62 625 LINE",
"440 625 LINE",
"440 613 LINE",
"50 111 LINE",
"50 0 LINE",
"531 0 LINE",
"531 75 LINE",
"133 75 LINE",
"133 87 LINE",
"523 589 LINE",
"523 700 LINE"
);
}
);
width = 577;
},
{
layerId = "8F42668C-F186-4E73-94E7-C31CD8308E50";
paths = (
{
closed = 1;
nodes = (
"62 700 LINE",
"62 625 LINE",
"440 625 LINE",
"440 613 LINE",
"50 111 LINE",
"50 0 LINE",
"531 0 LINE",
"531 75 LINE",
"133 75 LINE",
"133 87 LINE",
"523 589 LINE",
"523 700 LINE"
);
}
);
width = 577;
}
);
leftKerningGroup = Z;
note = Z;
rightKerningGroup = Z;
unicode = 005A;
},
{
glyphname = a;
lastChange = "2020-07-28 15:47:08 +0000";
layers = (
{
layerId = "83CEB4AC-2A3F-4494-A887-C39963512B94";
paths = (
{
closed = 1;
nodes = (
"141 330 LINE",
"156 393 OFFCURVE",
"199 435 OFFCURVE",
"278 435 CURVE SMOOTH",
"359 435 OFFCURVE",
"399 392 OFFCURVE",
"399 323 CURVE SMOOTH",
"399 287 LINE",
"234 287 LINE SMOOTH",
"129 287 OFFCURVE",
"50 238 OFFCURVE",
"50 139 CURVE SMOOTH",
"50 41 OFFCURVE",
"129 -14 OFFCURVE",
"233 -14 CURVE SMOOTH",
"334 -14 OFFCURVE",
"375 34 OFFCURVE",
"396 73 CURVE",
"407 74 LINE",
"407 29 OFFCURVE",
"436 0 OFFCURVE",
"481 0 CURVE SMOOTH",
"550 0 LINE",
"550 67 LINE",
"505 67 LINE SMOOTH",
"487 67 OFFCURVE",
"477 77 OFFCURVE",
"477 97 CURVE SMOOTH",
"477 318 LINE SMOOTH",
"477 435 OFFCURVE",
"403 503 OFFCURVE",
"279 503 CURVE SMOOTH",
"156 503 OFFCURVE",
"90 436 OFFCURVE",
"67 354 CURVE"
);
},
{
closed = 1;
nodes = (
"129 196 OFFCURVE",
"174 223 OFFCURVE",
"237 223 CURVE SMOOTH",
"399 223 LINE",
"399 212 LINE SMOOTH",
"399 112 OFFCURVE",
"336 54 OFFCURVE",
"242 54 CURVE SMOOTH",
"174 54 OFFCURVE",
"129 86 OFFCURVE",
"129 141 CURVE SMOOTH"
);
}
);
width = 575;
},
{
layerId = "8F42668C-F186-4E73-94E7-C31CD8308E50";
paths = (
{
closed = 1;
nodes = (
"141 330 LINE",
"156 393 OFFCURVE",
"199 435 OFFCURVE",
"278 435 CURVE SMOOTH",
"359 435 OFFCURVE",
"399 392 OFFCURVE",
"399 323 CURVE SMOOTH",
"399 287 LINE",
"234 287 LINE SMOOTH",
"129 287 OFFCURVE",
"50 238 OFFCURVE",
"50 139 CURVE SMOOTH",
"50 41 OFFCURVE",
"129 -14 OFFCURVE",
"233 -14 CURVE SMOOTH",
"334 -14 OFFCURVE",
"375 34 OFFCURVE",
"396 73 CURVE",
"407 74 LINE",
"407 29 OFFCURVE",
"436 0 OFFCURVE",
"481 0 CURVE SMOOTH",
"550 0 LINE",
"550 67 LINE",
"505 67 LINE SMOOTH",
"487 67 OFFCURVE",
"477 77 OFFCURVE",
"477 97 CURVE SMOOTH",
"477 318 LINE SMOOTH",
"477 435 OFFCURVE",
"403 503 OFFCURVE",
"279 503 CURVE SMOOTH",
"156 503 OFFCURVE",
"90 436 OFFCURVE",
"67 354 CURVE"
);
},
{
closed = 1;
nodes = (
"129 196 OFFCURVE",
"174 223 OFFCURVE",
"237 223 CURVE SMOOTH",
"399 223 LINE",
"399 212 LINE SMOOTH",
"399 112 OFFCURVE",
"336 54 OFFCURVE",
"242 54 CURVE SMOOTH",
"174 54 OFFCURVE",
"129 86 OFFCURVE",
"129 141 CURVE SMOOTH"
);
}
);
width = 575;
}
);
leftKerningGroup = a;
note = a;
rightKerningGroup = a;
unicode = 0061;
},
{
glyphname = b;
lastChange = "2020-07-28 15:47:08 +0000";
layers = (
{
layerId = "83CEB4AC-2A3F-4494-A887-C39963512B94";
paths = (
{
closed = 1;
nodes = (
"83 700 LINE",
"83 0 LINE",
"160 0 LINE",
"160 81 LINE",
"174 81 LINE",
"200 32 OFFCURVE",
"252 -14 OFFCURVE",
"354 -14 CURVE SMOOTH",
"481 -14 OFFCURVE",
"585 81 OFFCURVE",
"585 238 CURVE SMOOTH",
"585 251 LINE SMOOTH",
"585 407 OFFCURVE",
"482 503 OFFCURVE",
"354 503 CURVE SMOOTH",
"252 503 OFFCURVE",
"200 457 OFFCURVE",
"176 412 CURVE",
"162 412 LINE",
"162 700 LINE"
);
},
{
closed = 1;
nodes = (
"434 433 OFFCURVE",
"504 365 OFFCURVE",
"504 249 CURVE SMOOTH",
"504 240 LINE SMOOTH",
"504 124 OFFCURVE",
"433 56 OFFCURVE",
"333 56 CURVE SMOOTH",
"232 56 OFFCURVE",
"161 124 OFFCURVE",
"161 240 CURVE SMOOTH",
"161 249 LINE SMOOTH",
"161 365 OFFCURVE",
"232 433 OFFCURVE",
"333 433 CURVE SMOOTH"
);
}
);
width = 644;
},
{
layerId = "8F42668C-F186-4E73-94E7-C31CD8308E50";
paths = (
{
closed = 1;
nodes = (
"83 700 LINE",
"83 0 LINE",
"160 0 LINE",
"160 81 LINE",
"174 81 LINE",
"200 32 OFFCURVE",
"252 -14 OFFCURVE",
"354 -14 CURVE SMOOTH",
"481 -14 OFFCURVE",
"585 81 OFFCURVE",
"585 238 CURVE SMOOTH",
"585 251 LINE SMOOTH",
"585 407 OFFCURVE",
"482 503 OFFCURVE",
"354 503 CURVE SMOOTH",
"252 503 OFFCURVE",
"200 457 OFFCURVE",
"176 412 CURVE",
"162 412 LINE",
"162 700 LINE"
);
},
{
closed = 1;
nodes = (
"434 433 OFFCURVE",
"504 365 OFFCURVE",
"504 249 CURVE SMOOTH",
"504 240 LINE SMOOTH",
"504 124 OFFCURVE",
"433 56 OFFCURVE",
"333 56 CURVE SMOOTH",
"232 56 OFFCURVE",
"161 124 OFFCURVE",
"161 240 CURVE SMOOTH",
"161 249 LINE SMOOTH",
"161 365 OFFCURVE",
"232 433 OFFCURVE",
"333 433 CURVE SMOOTH"
);
}
);
width = 644;
}
);
leftKerningGroup = b;
note = b;
rightKerningGroup = b;
unicode = 0062;
},
{
glyphname = c;
lastChange = "2020-07-28 15:47:08 +0000";
layers = (
{
layerId = "83CEB4AC-2A3F-4494-A887-C39963512B94";
paths = (
{
closed = 1;
nodes = (
"59 239 LINE SMOOTH",
"59 82 OFFCURVE",
"165 -14 OFFCURVE",
"308 -14 CURVE SMOOTH",
"449 -14 OFFCURVE",
"525 74 OFFCURVE",
"546 172 CURVE",
"468 189 LINE",
"456 114 OFFCURVE",
"406 57 OFFCURVE",
"309 57 CURVE SMOOTH",
"212 57 OFFCURVE",
"138 126 OFFCURVE",
"138 240 CURVE SMOOTH",
"138 249 LINE SMOOTH",
"138 363 OFFCURVE",
"212 432 OFFCURVE",
"309 432 CURVE SMOOTH",
"406 432 OFFCURVE",
"455 372 OFFCURVE",
"465 300 CURVE",
"542 316 LINE",
"526 415 OFFCURVE",
"449 503 OFFCURVE",
"308 503 CURVE SMOOTH",
"165 503 OFFCURVE",
"59 407 OFFCURVE",
"59 250 CURVE SMOOTH"
);
}
);
width = 598;
},
{
layerId = "8F42668C-F186-4E73-94E7-C31CD8308E50";
paths = (
{
closed = 1;
nodes = (
"59 239 LINE SMOOTH",
"59 82 OFFCURVE",
"165 -14 OFFCURVE",
"308 -14 CURVE SMOOTH",
"449 -14 OFFCURVE",
"525 74 OFFCURVE",
"546 172 CURVE",
"468 189 LINE",
"456 114 OFFCURVE",
"406 57 OFFCURVE",
"309 57 CURVE SMOOTH",
"212 57 OFFCURVE",
"138 126 OFFCURVE",
"138 240 CURVE SMOOTH",
"138 249 LINE SMOOTH",
"138 363 OFFCURVE",
"212 432 OFFCURVE",
"309 432 CURVE SMOOTH",
"406 432 OFFCURVE",
"455 372 OFFCURVE",
"465 300 CURVE",
"542 316 LINE",
"526 415 OFFCURVE",
"449 503 OFFCURVE",
"308 503 CURVE SMOOTH",
"165 503 OFFCURVE",
"59 407 OFFCURVE",
"59 250 CURVE SMOOTH"
);
}
);
width = 598;
}
);
leftKerningGroup = c;
note = c;
rightKerningGroup = b;
unicode = 0063;
},
{
glyphname = d;
lastChange = "2020-07-28 15:57:54 +0000";
layers = (
{
layerId = "83CEB4AC-2A3F-4494-A887-C39963512B94";
paths = (
{
closed = 1;
nodes = (
"549 700 LINE",
"471 700 LINE",
"471 418 LINE",
"459 418 LINE",
"427 481 OFFCURVE",
"363 510 OFFCURVE",
"295 510 CURVE SMOOTH",
"161 510 OFFCURVE",
"59 411 OFFCURVE",
"59 256 CURVE SMOOTH",
"59 240 LINE SMOOTH",
"59 84 OFFCURVE",
"159 -14 OFFCURVE",
"297 -14 CURVE SMOOTH",
"359 -14 OFFCURVE",
"428 17 OFFCURVE",
"459 76 CURVE",
"471 76 LINE",
"471 0 LINE",
"549 0 LINE"
);
},
{
closed = 1;
nodes = (
"399 436 OFFCURVE",
"471 358 OFFCURVE",
"471 254 CURVE SMOOTH",
"471 242 LINE SMOOTH",
"471 136 OFFCURVE",
"400 60 OFFCURVE",
"305 60 CURVE SMOOTH",
"207 60 OFFCURVE",
"139 132 OFFCURVE",
"139 240 CURVE SMOOTH",
"139 256 LINE SMOOTH",
"139 361 OFFCURVE",
"209 436 OFFCURVE",
"305 436 CURVE SMOOTH"
);
}
);
width = 612;
},
{
layerId = "8F42668C-F186-4E73-94E7-C31CD8308E50";
paths = (
{
closed = 1;
nodes = (
"561 700 LINE",
"482 700 LINE",
"482 412 LINE",
"468 412 LINE",
"443 457 OFFCURVE",
"392 503 OFFCURVE",
"290 503 CURVE SMOOTH",
"162 503 OFFCURVE",
"59 407 OFFCURVE",
"59 251 CURVE SMOOTH",
"59 238 LINE SMOOTH",
"59 81 OFFCURVE",
"163 -14 OFFCURVE",
"290 -14 CURVE SMOOTH",
"392 -14 OFFCURVE",
"443 32 OFFCURVE",
"470 81 CURVE",
"484 81 LINE",
"484 0 LINE",
"561 0 LINE"
);
},
{
closed = 1;
nodes = (
"412 433 OFFCURVE",
"482 365 OFFCURVE",
"482 249 CURVE SMOOTH",
"482 240 LINE SMOOTH",
"482 124 OFFCURVE",
"411 56 OFFCURVE",
"311 56 CURVE SMOOTH",
"210 56 OFFCURVE",
"139 124 OFFCURVE",
"139 240 CURVE SMOOTH",
"139 249 LINE SMOOTH",
"139 365 OFFCURVE",
"210 433 OFFCURVE",
"311 433 CURVE SMOOTH"
);
}
);
width = 644;
}
);
leftKerningGroup = c;
note = d;
rightKerningGroup = d;
unicode = 0064;
},
{
glyphname = e;
lastChange = "2020-07-28 16:02:07 +0000";
layers = (
{
layerId = "83CEB4AC-2A3F-4494-A887-C39963512B94";
paths = (
{
closed = 1;
nodes = (
"66 242 LINE SMOOTH",
"66 92 OFFCURVE",
"166 -14 OFFCURVE",
"308 -14 CURVE SMOOTH",
"436 -14 OFFCURVE",
"510 50 OFFCURVE",
"538 142 CURVE",
"464 162 LINE",
"443 100 OFFCURVE",
"398 60 OFFCURVE",
"310 60 CURVE SMOOTH",
"207 60 OFFCURVE",
"148 125 OFFCURVE",
"144 224 CURVE",
"544 224 LINE",
"544 288 LINE SMOOTH",
"544 392 OFFCURVE",
"459 510 OFFCURVE",
"310 510 CURVE SMOOTH",
"171 510 OFFCURVE",
"66 405 OFFCURVE",
"66 266 CURVE SMOOTH"
);
},
{
closed = 1;
nodes = (
"146 296 LINE",
"157 378 OFFCURVE",
"223 436 OFFCURVE",
"310 436 CURVE SMOOTH",
"391 436 OFFCURVE",
"461 379 OFFCURVE",
"466 296 CURVE"
);
}
);
width = 612;
},
{
layerId = "8F42668C-F186-4E73-94E7-C31CD8308E50";
paths = (
{
closed = 1;
nodes = (
"59 238 LINE SMOOTH",
"59 87 OFFCURVE",
"158 -14 OFFCURVE",
"307 -14 CURVE SMOOTH",
"438 -14 OFFCURVE",
"496 59 OFFCURVE",
"526 121 CURVE",
"458 154 LINE",
"434 100 OFFCURVE",
"393 56 OFFCURVE",
"309 56 CURVE SMOOTH",
"212 56 OFFCURVE",
"142 119 OFFCURVE",
"139 224 CURVE",
"537 224 LINE",
"537 260 LINE SMOOTH",
"537 409 OFFCURVE",
"441 503 OFFCURVE",
"302 503 CURVE SMOOTH",
"159 503 OFFCURVE",
"59 401 OFFCURVE",
"59 250 CURVE SMOOTH"
);
},
{
closed = 1;
nodes = (
"140 289 LINE",
"152 380 OFFCURVE",
"213 433 OFFCURVE",
"302 433 CURVE SMOOTH",
"390 433 OFFCURVE",
"451 380 OFFCURVE",
"457 289 CURVE"
);
}
);
width = 592;
}
);
leftKerningGroup = c;
note = e;
rightKerningGroup = b;
unicode = 0065;
},
{
glyphname = f;
lastChange = "2020-07-28 15:47:08 +0000";
layers = (
{
layerId = "83CEB4AC-2A3F-4494-A887-C39963512B94";
paths = (
{
closed = 1;
nodes = (
"29 489 LINE",
"29 420 LINE",
"179 420 LINE",
"179 0 LINE",
"258 0 LINE",
"258 420 LINE",
"412 420 LINE",
"412 489 LINE",
"258 489 LINE",
"258 602 LINE SMOOTH",
"258 622 OFFCURVE",
"267 632 OFFCURVE",
"288 632 CURVE SMOOTH",
"389 632 LINE",
"389 700 LINE",
"266 700 LINE SMOOTH",
"210 700 OFFCURVE",
"179 667 OFFCURVE",
"179 614 CURVE SMOOTH",
"179 489 LINE"
);
}
);
width = 442;
},
{
layerId = "8F42668C-F186-4E73-94E7-C31CD8308E50";
paths = (
{
closed = 1;
nodes = (
"29 489 LINE",
"29 420 LINE",
"179 420 LINE",
"179 0 LINE",
"258 0 LINE",
"258 420 LINE",
"412 420 LINE",
"412 489 LINE",
"258 489 LINE",
"258 602 LINE SMOOTH",
"258 622 OFFCURVE",
"267 632 OFFCURVE",
"288 632 CURVE SMOOTH",
"389 632 LINE",
"389 700 LINE",
"266 700 LINE SMOOTH",
"210 700 OFFCURVE",
"179 667 OFFCURVE",
"179 614 CURVE SMOOTH",
"179 489 LINE"
);
}
);
width = 442;
}
);
leftKerningGroup = f;
note = f;
rightKerningGroup = f;
unicode = 0066;
},
{
glyphname = g;
lastChange = "2020-07-28 15:47:08 +0000";
layers = (
{
layerId = "83CEB4AC-2A3F-4494-A887-C39963512B94";
paths = (
{
closed = 1;
nodes = (
"141 -130 LINE",
"141 -200 LINE",
"473 -200 LINE SMOOTH",
"529 -200 OFFCURVE",
"560 -167 OFFCURVE",
"560 -114 CURVE SMOOTH",
"560 0 LINE",
"561 489 LINE",
"484 489 LINE",
"484 408 LINE",
"470 408 LINE",
"444 456 OFFCURVE",
"393 503 OFFCURVE",
"290 503 CURVE SMOOTH",
"162 503 OFFCURVE",
"59 409 OFFCURVE",
"59 256 CURVE SMOOTH",
"59 242 LINE SMOOTH",
"59 89 OFFCURVE",
"162 -5 OFFCURVE",
"290 -5 CURVE SMOOTH",
"393 -5 OFFCURVE",
"444 42 OFFCURVE",
"468 86 CURVE",
"482 86 LINE",
"481 0 LINE",
"481 -100 LINE SMOOTH",
"481 -120 OFFCURVE",
"472 -130 OFFCURVE",
"452 -130 CURVE SMOOTH"
);
},
{
closed = 1;
nodes = (
"412 433 OFFCURVE",
"482 366 OFFCURVE",
"482 253 CURVE SMOOTH",
"482 245 LINE SMOOTH",
"482 132 OFFCURVE",
"411 65 OFFCURVE",
"311 65 CURVE SMOOTH",
"210 65 OFFCURVE",
"139 132 OFFCURVE",
"139 245 CURVE SMOOTH",
"139 253 LINE SMOOTH",
"139 366 OFFCURVE",
"210 433 OFFCURVE",
"311 433 CURVE SMOOTH"
);
}
);
width = 644;
},
{
layerId = "8F42668C-F186-4E73-94E7-C31CD8308E50";
paths = (
{
closed = 1;
nodes = (
"141 -130 LINE",
"141 -200 LINE",
"473 -200 LINE SMOOTH",
"529 -200 OFFCURVE",
"560 -167 OFFCURVE",
"560 -114 CURVE SMOOTH",
"560 0 LINE",
"561 489 LINE",
"484 489 LINE",
"484 408 LINE",
"470 408 LINE",
"444 456 OFFCURVE",
"393 503 OFFCURVE",
"290 503 CURVE SMOOTH",
"162 503 OFFCURVE",
"59 409 OFFCURVE",
"59 256 CURVE SMOOTH",
"59 242 LINE SMOOTH",
"59 89 OFFCURVE",
"162 -5 OFFCURVE",
"290 -5 CURVE SMOOTH",
"393 -5 OFFCURVE",
"444 42 OFFCURVE",
"468 86 CURVE",
"482 86 LINE",
"481 0 LINE",
"481 -100 LINE SMOOTH",
"481 -120 OFFCURVE",
"472 -130 OFFCURVE",
"452 -130 CURVE SMOOTH"
);
},
{
closed = 1;
nodes = (
"412 433 OFFCURVE",
"482 366 OFFCURVE",
"482 253 CURVE SMOOTH",
"482 245 LINE SMOOTH",
"482 132 OFFCURVE",
"411 65 OFFCURVE",
"311 65 CURVE SMOOTH",
"210 65 OFFCURVE",
"139 132 OFFCURVE",
"139 245 CURVE SMOOTH",
"139 253 LINE SMOOTH",
"139 366 OFFCURVE",
"210 433 OFFCURVE",
"311 433 CURVE SMOOTH"
);
}
);
width = 644;
}
);
leftKerningGroup = c;
note = g;
unicode = 0067;
},
{
glyphname = h;
lastChange = "2020-07-28 15:47:08 +0000";
layers = (
{
layerId = "83CEB4AC-2A3F-4494-A887-C39963512B94";
paths = (
{
closed = 1;
nodes = (
"83 700 LINE",
"83 0 LINE",
"162 0 LINE",
"162 246 LINE SMOOTH",
"162 367 OFFCURVE",
"228 429 OFFCURVE",
"322 429 CURVE SMOOTH",
"404 429 OFFCURVE",
"457 387 OFFCURVE",
"457 290 CURVE SMOOTH",
"457 0 LINE",
"536 0 LINE",
"536 296 LINE SMOOTH",
"536 427 OFFCURVE",
"450 498 OFFCURVE",
"342 498 CURVE SMOOTH",
"243 498 OFFCURVE",
"197 454 OFFCURVE",
"176 411 CURVE",
"162 411 LINE",
"162 700 LINE"
);
}
);
width = 613;
},
{
layerId = "8F42668C-F186-4E73-94E7-C31CD8308E50";
paths = (
{
closed = 1;
nodes = (
"83 700 LINE",
"83 0 LINE",
"162 0 LINE",
"162 246 LINE SMOOTH",
"162 367 OFFCURVE",
"228 429 OFFCURVE",
"322 429 CURVE SMOOTH",
"404 429 OFFCURVE",
"457 387 OFFCURVE",
"457 290 CURVE SMOOTH",
"457 0 LINE",
"536 0 LINE",
"536 296 LINE SMOOTH",
"536 427 OFFCURVE",
"450 498 OFFCURVE",
"342 498 CURVE SMOOTH",
"243 498 OFFCURVE",
"197 454 OFFCURVE",
"176 411 CURVE",
"162 411 LINE",
"162 700 LINE"
);
}
);
width = 613;
}
);
leftKerningGroup = b;
note = h;
rightKerningGroup = h;
unicode = 0068;
},
{
glyphname = i;
lastChange = "2020-07-28 15:56:41 +0000";
layers = (
{
layerId = "83CEB4AC-2A3F-4494-A887-C39963512B94";
paths = (
{
closed = 1;
nodes = (
"117 496 LINE",
"117 424 LINE",
"273 424 LINE",
"273 72 LINE",
"99 72 LINE",
"99 0 LINE",
"513 0 LINE",
"513 72 LINE",
"351 72 LINE",
"351 496 LINE"
);
},
{
closed = 1;
nodes = (
"241 605 OFFCURVE",
"272 574 OFFCURVE",
"311 574 CURVE SMOOTH",
"350 574 OFFCURVE",
"381 605 OFFCURVE",
"381 644 CURVE SMOOTH",
"381 683 OFFCURVE",
"350 714 OFFCURVE",
"311 714 CURVE SMOOTH",
"272 714 OFFCURVE",
"241 683 OFFCURVE",
"241 644 CURVE SMOOTH"
);
}
);
width = 612;
},
{
layerId = "8F42668C-F186-4E73-94E7-C31CD8308E50";
paths = (
{
closed = 1;
nodes = (
"83 489 LINE",
"83 417 LINE",
"83 417 LINE",
"83 72 LINE",
"83 72 LINE",
"83 0 LINE",
"162 0 LINE",
"162 72 LINE",
"162 72 LINE",
"162 489 LINE"
);
},
{
closed = 1;
nodes = (
"62 589 OFFCURVE",
"88 564 OFFCURVE",
"122 564 CURVE SMOOTH",
"157 564 OFFCURVE",
"183 589 OFFCURVE",
"183 624 CURVE SMOOTH",
"183 660 OFFCURVE",
"157 684 OFFCURVE",
"122 684 CURVE SMOOTH",
"88 684 OFFCURVE",
"62 660 OFFCURVE",
"62 624 CURVE SMOOTH"
);
}
);
width = 245;
}
);
leftKerningGroup = i;
note = i;
rightKerningGroup = i;
unicode = 0069;
},
{
glyphname = j;
lastChange = "2020-07-28 15:47:08 +0000";
layers = (
{
layerId = "83CEB4AC-2A3F-4494-A887-C39963512B94";
paths = (
{
closed = 1;
nodes = (
"64 589 OFFCURVE",
"90 564 OFFCURVE",
"124 564 CURVE SMOOTH",
"159 564 OFFCURVE",
"185 589 OFFCURVE",
"185 624 CURVE SMOOTH",
"185 660 OFFCURVE",
"159 684 OFFCURVE",
"124 684 CURVE SMOOTH",
"90 684 OFFCURVE",
"64 660 OFFCURVE",
"64 624 CURVE SMOOTH"
);
},
{
closed = 1;
nodes = (
"164 489 LINE",
"85 489 LINE",
"85 -100 LINE SMOOTH",
"85 -120 OFFCURVE",
"76 -130 OFFCURVE",
"55 -130 CURVE SMOOTH",
"-13 -130 LINE",
"-13 -200 LINE",
"77 -200 LINE SMOOTH",
"133 -200 OFFCURVE",
"164 -167 OFFCURVE",
"164 -114 CURVE SMOOTH"
);
}
);
width = 247;
},
{
layerId = "8F42668C-F186-4E73-94E7-C31CD8308E50";
paths = (
{
closed = 1;
nodes = (
"64 589 OFFCURVE",
"90 564 OFFCURVE",
"124 564 CURVE SMOOTH",
"159 564 OFFCURVE",
"185 589 OFFCURVE",
"185 624 CURVE SMOOTH",
"185 660 OFFCURVE",
"159 684 OFFCURVE",
"124 684 CURVE SMOOTH",
"90 684 OFFCURVE",
"64 660 OFFCURVE",
"64 624 CURVE SMOOTH"
);
},
{
closed = 1;
nodes = (
"164 489 LINE",
"85 489 LINE",
"85 -100 LINE SMOOTH",
"85 -120 OFFCURVE",
"76 -130 OFFCURVE",
"55 -130 CURVE SMOOTH",
"-13 -130 LINE",
"-13 -200 LINE",
"77 -200 LINE SMOOTH",
"133 -200 OFFCURVE",
"164 -167 OFFCURVE",
"164 -114 CURVE SMOOTH"
);
}
);
width = 247;
}
);
leftKerningGroup = i;
note = j;
rightKerningGroup = i;
unicode = 006A;
},
{
glyphname = k;
lastChange = "2020-07-28 16:01:37 +0000";
layers = (
{
layerId = "83CEB4AC-2A3F-4494-A887-C39963512B94";
paths = (
{
closed = 1;
nodes = (
"137 0 LINE",
"215 0 LINE",
"215 218 LINE",
"234 218 LINE",
"445 0 LINE",
"547 0 LINE",
"311 245 LINE",
"311 263 LINE",
"522 496 LINE",
"421 496 LINE",
"232 290 LINE",
"215 290 LINE",
"215 700 LINE",
"137 700 LINE"
);
}
);
width = 612;
},
{
layerId = "8F42668C-F186-4E73-94E7-C31CD8308E50";
paths = (
{
closed = 1;
nodes = (
"83 0 LINE",
"162 0 LINE",
"162 213 LINE",
"176 213 LINE",
"409 0 LINE",
"518 0 LINE",
"239 251 LINE",
"239 251 LINE",
"510 489 LINE",
"400 489 LINE",
"176 288 LINE",
"162 288 LINE",
"162 700 LINE",
"83 700 LINE"
);
}
);
width = 538;
}
);
leftKerningGroup = b;
note = k;
rightKerningGroup = k;
unicode = 006B;
},
{
glyphname = l;
lastChange = "2020-07-28 15:47:08 +0000";
layers = (
{
layerId = "83CEB4AC-2A3F-4494-A887-C39963512B94";
paths = (
{
closed = 1;
nodes = (
"162 700 LINE",
"83 700 LINE",
"83 0 LINE",
"162 0 LINE"
);
}
);
width = 245;
},
{
layerId = "8F42668C-F186-4E73-94E7-C31CD8308E50";
paths = (
{
closed = 1;
nodes = (
"162 700 LINE",
"83 700 LINE",
"83 0 LINE",
"162 0 LINE"
);
}
);
width = 245;
}
);
leftKerningGroup = b;
note = l;
rightKerningGroup = d;
unicode = 006C;
},
{
glyphname = m;
lastChange = "2020-07-28 15:50:01 +0000";
layers = (
{
layerId = "83CEB4AC-2A3F-4494-A887-C39963512B94";
paths = (
{
closed = 1;
nodes = (
"48 496 LINE",
"48 0 LINE",
"126 0 LINE",
"126 342 LINE SMOOTH",
"126 398 OFFCURVE",
"153 436 OFFCURVE",
"201 436 CURVE SMOOTH",
"241 436 OFFCURVE",
"267 404 OFFCURVE",
"267 360 CURVE SMOOTH",
"267 0 LINE",
"345 0 LINE",
"345 336 LINE SMOOTH",
"345 404 OFFCURVE",
"375 436 OFFCURVE",
"419 436 CURVE SMOOTH",
"466 436 OFFCURVE",
"486 403 OFFCURVE",
"486 356 CURVE SMOOTH",
"486 0 LINE",
"564 0 LINE",
"564 382 LINE SMOOTH",
"564 458 OFFCURVE",
"522 510 OFFCURVE",
"447 510 CURVE SMOOTH",
"398 510 OFFCURVE",
"362 487 OFFCURVE",
"339 442 CURVE",
"327 442 LINE",
"315 482 OFFCURVE",
"283 510 OFFCURVE",
"235 510 CURVE SMOOTH",
"190 510 OFFCURVE",
"155 489 OFFCURVE",
"138 442 CURVE",
"126 442 LINE",
"126 496 LINE"
);
}
);
width = 612;
},
{
layerId = "8F42668C-F186-4E73-94E7-C31CD8308E50";
paths = (
{
closed = 1;
nodes = (
"83 489 LINE",
"83 0 LINE",
"162 0 LINE",
"162 294 LINE SMOOTH",
"162 382 OFFCURVE",
"213 430 OFFCURVE",
"285 430 CURVE SMOOTH",
"353 430 OFFCURVE",
"393 389 OFFCURVE",
"393 324 CURVE SMOOTH",
"393 0 LINE",
"472 0 LINE",
"472 294 LINE SMOOTH",
"472 382 OFFCURVE",
"523 430 OFFCURVE",
"595 430 CURVE SMOOTH",
"663 430 OFFCURVE",
"703 389 OFFCURVE",
"703 324 CURVE SMOOTH",
"703 0 LINE",
"782 0 LINE",
"782 331 LINE SMOOTH",
"782 435 OFFCURVE",
"713 498 OFFCURVE",
"616 498 CURVE SMOOTH",
"533 498 OFFCURVE",
"490 460 OFFCURVE",
"468 412 CURVE",
"454 412 LINE",
"432 460 OFFCURVE",
"386 498 OFFCURVE",
"310 498 CURVE SMOOTH",
"233 498 OFFCURVE",
"193 463 OFFCURVE",
"174 428 CURVE",
"160 428 LINE",
"160 489 LINE"
);
}
);
width = 860;
}
);
leftKerningGroup = m;
note = m;
rightKerningGroup = h;
unicode = 006D;
},
{
glyphname = n;
lastChange = "2020-07-28 15:55:29 +0000";
layers = (
{
layerId = "83CEB4AC-2A3F-4494-A887-C39963512B94";
paths = (
{
closed = 1;
nodes = (
"87 496 LINE",
"87 0 LINE",
"165 0 LINE",
"165 258 LINE SMOOTH",
"165 366 OFFCURVE",
"222 436 OFFCURVE",
"317 436 CURVE SMOOTH",
"397 436 OFFCURVE",
"447 384 OFFCURVE",
"447 280 CURVE SMOOTH",
"447 0 LINE",
"525 0 LINE",
"525 296 LINE SMOOTH",
"525 439 OFFCURVE",
"452 510 OFFCURVE",
"337 510 CURVE SMOOTH",
"261 510 OFFCURVE",
"208 477 OFFCURVE",
"177 412 CURVE",
"165 412 LINE",
"165 496 LINE"
);
}
);
width = 612;
},
{
layerId = "8F42668C-F186-4E73-94E7-C31CD8308E50";
paths = (
{
closed = 1;
nodes = (
"83 489 LINE",
"83 0 LINE",
"162 0 LINE",
"162 246 LINE SMOOTH",
"162 367 OFFCURVE",
"228 429 OFFCURVE",
"322 429 CURVE SMOOTH",
"404 429 OFFCURVE",
"457 387 OFFCURVE",
"457 290 CURVE SMOOTH",
"457 0 LINE",
"536 0 LINE",
"536 296 LINE SMOOTH",
"536 427 OFFCURVE",
"450 498 OFFCURVE",
"342 498 CURVE SMOOTH",
"242 498 OFFCURVE",
"195 453 OFFCURVE",
"174 406 CURVE",
"160 406 LINE",
"160 489 LINE"
);
}
);
width = 613;
}
);
leftKerningGroup = m;
note = n;
rightKerningGroup = h;
unicode = 006E;
},
{
glyphname = o;
lastChange = "2020-07-28 15:55:16 +0000";
layers = (
{
layerId = "83CEB4AC-2A3F-4494-A887-C39963512B94";
paths = (
{
closed = 1;
nodes = (
"57 242 LINE SMOOTH",
"57 84 OFFCURVE",
"168 -14 OFFCURVE",
"306 -14 CURVE SMOOTH",
"444 -14 OFFCURVE",
"555 84 OFFCURVE",
"555 242 CURVE SMOOTH",
"555 254 LINE SMOOTH",
"555 411 OFFCURVE",
"443 510 OFFCURVE",
"306 510 CURVE SMOOTH",
"169 510 OFFCURVE",
"57 411 OFFCURVE",
"57 254 CURVE SMOOTH"
);
},
{
closed = 1;
nodes = (
"137 254 LINE SMOOTH",
"137 358 OFFCURVE",
"209 436 OFFCURVE",
"306 436 CURVE SMOOTH",
"403 436 OFFCURVE",
"475 358 OFFCURVE",
"475 254 CURVE SMOOTH",
"475 242 LINE SMOOTH",
"475 133 OFFCURVE",
"404 60 OFFCURVE",
"306 60 CURVE SMOOTH",
"208 60 OFFCURVE",
"137 133 OFFCURVE",
"137 242 CURVE SMOOTH"
);
}
);
width = 612;
},
{
layerId = "8F42668C-F186-4E73-94E7-C31CD8308E50";
paths = (
{
closed = 1;
nodes = (
"59 238 LINE SMOOTH",
"59 85 OFFCURVE",
"161 -14 OFFCURVE",
"309 -14 CURVE SMOOTH",
"457 -14 OFFCURVE",
"559 85 OFFCURVE",
"559 238 CURVE SMOOTH",
"559 251 LINE SMOOTH",
"559 404 OFFCURVE",
"457 503 OFFCURVE",
"309 503 CURVE SMOOTH",
"161 503 OFFCURVE",
"59 404 OFFCURVE",
"59 251 CURVE SMOOTH"
);
},
{
closed = 1;
nodes = (
"138 249 LINE SMOOTH",
"138 361 OFFCURVE",
"205 432 OFFCURVE",
"309 432 CURVE SMOOTH",
"412 432 OFFCURVE",
"480 361 OFFCURVE",
"480 249 CURVE SMOOTH",
"480 240 LINE SMOOTH",
"480 128 OFFCURVE",
"412 57 OFFCURVE",
"309 57 CURVE SMOOTH",
"206 57 OFFCURVE",
"138 128 OFFCURVE",
"138 240 CURVE SMOOTH"
);
}
);
width = 618;
}
);
leftKerningGroup = c;
note = o;
rightKerningGroup = b;
unicode = 006F;
},
{
glyphname = p;
lastChange = "2020-07-28 15:47:08 +0000";
layers = (
{
layerId = "83CEB4AC-2A3F-4494-A887-C39963512B94";
paths = (
{
closed = 1;
nodes = (
"83 -200 LINE",
"162 -200 LINE",
"162 77 LINE",
"176 77 LINE",
"200 32 OFFCURVE",
"252 -14 OFFCURVE",
"354 -14 CURVE SMOOTH",
"482 -14 OFFCURVE",
"585 82 OFFCURVE",
"585 238 CURVE SMOOTH",
"585 251 LINE SMOOTH",
"585 408 OFFCURVE",
"481 503 OFFCURVE",
"354 503 CURVE SMOOTH",
"252 503 OFFCURVE",
"200 457 OFFCURVE",
"174 408 CURVE",
"160 408 LINE",
"160 489 LINE",
"83 489 LINE"
);
},
{
closed = 1;
nodes = (
"232 56 OFFCURVE",
"161 124 OFFCURVE",
"161 240 CURVE SMOOTH",
"161 249 LINE SMOOTH",
"161 365 OFFCURVE",
"232 433 OFFCURVE",
"333 433 CURVE SMOOTH",
"433 433 OFFCURVE",
"504 365 OFFCURVE",
"504 249 CURVE SMOOTH",
"504 240 LINE SMOOTH",
"504 124 OFFCURVE",
"434 56 OFFCURVE",
"333 56 CURVE SMOOTH"
);
}
);
width = 644;
},
{
layerId = "8F42668C-F186-4E73-94E7-C31CD8308E50";
paths = (
{
closed = 1;
nodes = (
"83 -200 LINE",
"162 -200 LINE",
"162 77 LINE",
"176 77 LINE",
"200 32 OFFCURVE",
"252 -14 OFFCURVE",
"354 -14 CURVE SMOOTH",
"482 -14 OFFCURVE",
"585 82 OFFCURVE",
"585 238 CURVE SMOOTH",
"585 251 LINE SMOOTH",
"585 408 OFFCURVE",
"481 503 OFFCURVE",
"354 503 CURVE SMOOTH",
"252 503 OFFCURVE",
"200 457 OFFCURVE",
"174 408 CURVE",
"160 408 LINE",
"160 489 LINE",
"83 489 LINE"
);
},
{
closed = 1;
nodes = (
"232 56 OFFCURVE",
"161 124 OFFCURVE",
"161 240 CURVE SMOOTH",
"161 249 LINE SMOOTH",
"161 365 OFFCURVE",
"232 433 OFFCURVE",
"333 433 CURVE SMOOTH",
"433 433 OFFCURVE",
"504 365 OFFCURVE",
"504 249 CURVE SMOOTH",
"504 240 LINE SMOOTH",
"504 124 OFFCURVE",
"434 56 OFFCURVE",
"333 56 CURVE SMOOTH"
);
}
);
width = 644;
}
);
leftKerningGroup = m;
note = p;
rightKerningGroup = b;
unicode = 0070;
},
{
glyphname = q;
lastChange = "2020-07-28 15:47:08 +0000";
layers = (
{
layerId = "83CEB4AC-2A3F-4494-A887-C39963512B94";
paths = (
{
closed = 1;
nodes = (
"561 -200 LINE",
"561 489 LINE",
"484 489 LINE",
"484 408 LINE",
"470 408 LINE",
"443 457 OFFCURVE",
"392 503 OFFCURVE",
"290 503 CURVE SMOOTH",
"163 503 OFFCURVE",
"59 408 OFFCURVE",
"59 251 CURVE SMOOTH",
"59 238 LINE SMOOTH",
"59 82 OFFCURVE",
"162 -14 OFFCURVE",
"290 -14 CURVE SMOOTH",
"392 -14 OFFCURVE",
"443 32 OFFCURVE",
"468 77 CURVE",
"482 77 LINE",
"482 -200 LINE"
);
},
{
closed = 1;
nodes = (
"210 56 OFFCURVE",
"139 124 OFFCURVE",
"139 240 CURVE SMOOTH",
"139 249 LINE SMOOTH",
"139 365 OFFCURVE",
"210 433 OFFCURVE",
"311 433 CURVE SMOOTH",
"411 433 OFFCURVE",
"482 365 OFFCURVE",
"482 249 CURVE SMOOTH",
"482 240 LINE SMOOTH",
"482 124 OFFCURVE",
"412 56 OFFCURVE",
"311 56 CURVE SMOOTH"
);
}
);
width = 644;
},
{
layerId = "8F42668C-F186-4E73-94E7-C31CD8308E50";
paths = (
{
closed = 1;
nodes = (
"561 -200 LINE",
"561 489 LINE",
"484 489 LINE",
"484 408 LINE",
"470 408 LINE",
"443 457 OFFCURVE",
"392 503 OFFCURVE",
"290 503 CURVE SMOOTH",
"163 503 OFFCURVE",
"59 408 OFFCURVE",
"59 251 CURVE SMOOTH",
"59 238 LINE SMOOTH",
"59 82 OFFCURVE",
"162 -14 OFFCURVE",
"290 -14 CURVE SMOOTH",
"392 -14 OFFCURVE",
"443 32 OFFCURVE",
"468 77 CURVE",
"482 77 LINE",
"482 -200 LINE"
);
},
{
closed = 1;
nodes = (
"210 56 OFFCURVE",
"139 124 OFFCURVE",
"139 240 CURVE SMOOTH",
"139 249 LINE SMOOTH",
"139 365 OFFCURVE",
"210 433 OFFCURVE",
"311 433 CURVE SMOOTH",
"411 433 OFFCURVE",
"482 365 OFFCURVE",
"482 249 CURVE SMOOTH",
"482 240 LINE SMOOTH",
"482 124 OFFCURVE",
"412 56 OFFCURVE",
"311 56 CURVE SMOOTH"
);
}
);
width = 644;
}
);
leftKerningGroup = c;
note = q;
unicode = 0071;
},
{
glyphname = r;
lastChange = "2020-07-28 15:47:08 +0000";
layers = (
{
layerId = "83CEB4AC-2A3F-4494-A887-C39963512B94";
paths = (
{
closed = 1;
nodes = (
"160 489 LINE",
"83 489 LINE",
"83 0 LINE",
"162 0 LINE",
"162 298 LINE SMOOTH",
"162 380 OFFCURVE",
"209 419 OFFCURVE",
"280 419 CURVE SMOOTH",
"343 419 LINE",
"343 491 LINE",
"285 491 LINE SMOOTH",
"226 491 OFFCURVE",
"191 472 OFFCURVE",
"174 429 CURVE",
"160 429 LINE"
);
}
);
width = 377;
},
{
layerId = "8F42668C-F186-4E73-94E7-C31CD8308E50";
paths = (
{
closed = 1;
nodes = (
"160 489 LINE",
"83 489 LINE",
"83 0 LINE",
"162 0 LINE",
"162 298 LINE SMOOTH",
"162 380 OFFCURVE",
"209 419 OFFCURVE",
"280 419 CURVE SMOOTH",
"343 419 LINE",
"343 491 LINE",
"285 491 LINE SMOOTH",
"226 491 OFFCURVE",
"191 472 OFFCURVE",
"174 429 CURVE",
"160 429 LINE"
);
}
);
width = 377;
}
);
leftKerningGroup = m;
note = r;
rightKerningGroup = r;
unicode = 0072;
},
{
glyphname = s;
lastChange = "2020-07-28 16:00:41 +0000";
layers = (
{
layerId = "83CEB4AC-2A3F-4494-A887-C39963512B94";
paths = (
{
closed = 1;
nodes = (
"114 275 OFFCURVE",
"177 231 OFFCURVE",
"292 223 CURVE SMOOTH",
"305 222 LINE SMOOTH",
"395 214 OFFCURVE",
"432 193 OFFCURVE",
"432 140 CURVE SMOOTH",
"432 88 OFFCURVE",
"383 58 OFFCURVE",
"310 58 CURVE SMOOTH",
"223 58 OFFCURVE",
"169 108 OFFCURVE",
"162 184 CURVE",
"88 166 LINE",
"94 65 OFFCURVE",
"173 -14 OFFCURVE",
"314 -14 CURVE SMOOTH",
"426 -14 OFFCURVE",
"510 41 OFFCURVE",
"510 143 CURVE SMOOTH",
"510 234 OFFCURVE",
"448 279 OFFCURVE",
"332 288 CURVE SMOOTH",
"321 289 LINE SMOOTH",
"247 295 OFFCURVE",
"190 311 OFFCURVE",
"190 368 CURVE SMOOTH",
"190 416 OFFCURVE",
"243 440 OFFCURVE",
"298 440 CURVE SMOOTH",
"370 440 OFFCURVE",
"417 402 OFFCURVE",
"424 338 CURVE",
"498 356 LINE",
"486 442 OFFCURVE",
"416 510 OFFCURVE",
"294 510 CURVE SMOOTH",
"200 510 OFFCURVE",
"114 460 OFFCURVE",
"114 365 CURVE SMOOTH"
);
}
);
width = 612;
},
{
layerId = "8F42668C-F186-4E73-94E7-C31CD8308E50";
paths = (
{
closed = 1;
nodes = (
"73 275 OFFCURVE",
"148 236 OFFCURVE",
"244 219 CURVE SMOOTH",
"285 212 LINE SMOOTH",
"356 199 OFFCURVE",
"399 183 OFFCURVE",
"399 133 CURVE SMOOTH",
"399 83 OFFCURVE",
"353 52 OFFCURVE",
"280 52 CURVE SMOOTH",
"206 52 OFFCURVE",
"140 82 OFFCURVE",
"126 178 CURVE",
"51 161 LINE",
"68 40 OFFCURVE",
"158 -14 OFFCURVE",
"280 -14 CURVE SMOOTH",
"400 -14 OFFCURVE",
"477 40 OFFCURVE",
"477 136 CURVE SMOOTH",
"477 231 OFFCURVE",
"396 263 OFFCURVE",
"293 281 CURVE SMOOTH",
"252 288 LINE SMOOTH",
"190 299 OFFCURVE",
"151 317 OFFCURVE",
"151 364 CURVE SMOOTH",
"151 411 OFFCURVE",
"192 437 OFFCURVE",
"259 437 CURVE SMOOTH",
"325 437 OFFCURVE",
"374 411 OFFCURVE",
"386 341 CURVE",
"460 360 LINE",
"440 451 OFFCURVE",
"369 503 OFFCURVE",
"259 503 CURVE SMOOTH",
"147 503 OFFCURVE",
"73 451 OFFCURVE",
"73 363 CURVE SMOOTH"
);
}
);
width = 527;
}
);
leftKerningGroup = s;
note = s;
rightKerningGroup = s;
unicode = 0073;
},
{
glyphname = t;
lastChange = "2020-07-28 16:02:13 +0000";
layers = (
{
layerId = "83CEB4AC-2A3F-4494-A887-C39963512B94";
paths = (
{
closed = 1;
nodes = (
"70 424 LINE",
"226 424 LINE",
"226 78 LINE SMOOTH",
"226 33 OFFCURVE",
"258 0 OFFCURVE",
"303 0 CURVE SMOOTH",
"472 0 LINE",
"472 72 LINE",
"331 72 LINE SMOOTH",
"313 72 OFFCURVE",
"304 82 OFFCURVE",
"304 102 CURVE SMOOTH",
"304 424 LINE",
"496 424 LINE",
"496 496 LINE",
"304 496 LINE",
"304 700 LINE",
"226 700 LINE",
"226 496 LINE",
"70 496 LINE"
);
}
);
width = 612;
},
{
layerId = "8F42668C-F186-4E73-94E7-C31CD8308E50";
paths = (
{
closed = 1;
nodes = (
"29 420 LINE",
"176 420 LINE",
"176 86 LINE SMOOTH",
"176 33 OFFCURVE",
"207 0 OFFCURVE",
"263 0 CURVE SMOOTH",
"393 0 LINE",
"393 69 LINE",
"284 69 LINE SMOOTH",
"263 69 OFFCURVE",
"255 79 OFFCURVE",
"255 99 CURVE SMOOTH",
"255 420 LINE",
"415 420 LINE",
"415 489 LINE",
"255 489 LINE",
"255 663 LINE",
"176 663 LINE",
"176 489 LINE",
"29 489 LINE"
);
}
);
width = 460;
}
);
leftKerningGroup = f;
note = t;
rightKerningGroup = t;
unicode = 0074;
},
{
glyphname = u;
lastChange = "2020-07-28 15:47:08 +0000";
layers = (
{
layerId = "83CEB4AC-2A3F-4494-A887-C39963512B94";
paths = (
{
closed = 1;
nodes = (
"530 0 LINE",
"530 489 LINE",
"451 489 LINE",
"451 243 LINE SMOOTH",
"451 122 OFFCURVE",
"384 60 OFFCURVE",
"291 60 CURVE SMOOTH",
"208 60 OFFCURVE",
"156 102 OFFCURVE",
"156 199 CURVE SMOOTH",
"156 489 LINE",
"77 489 LINE",
"77 193 LINE SMOOTH",
"77 62 OFFCURVE",
"162 -9 OFFCURVE",
"270 -9 CURVE SMOOTH",
"370 -9 OFFCURVE",
"417 36 OFFCURVE",
"439 83 CURVE",
"453 83 LINE",
"453 0 LINE"
);
}
);
width = 612;
},
{
layerId = "8F42668C-F186-4E73-94E7-C31CD8308E50";
paths = (
{
closed = 1;
nodes = (
"530 0 LINE",
"530 489 LINE",
"451 489 LINE",
"451 243 LINE SMOOTH",
"451 122 OFFCURVE",
"384 60 OFFCURVE",
"291 60 CURVE SMOOTH",
"208 60 OFFCURVE",
"156 102 OFFCURVE",
"156 199 CURVE SMOOTH",
"156 489 LINE",
"77 489 LINE",
"77 193 LINE SMOOTH",
"77 62 OFFCURVE",
"162 -9 OFFCURVE",
"270 -9 CURVE SMOOTH",
"370 -9 OFFCURVE",
"417 36 OFFCURVE",
"439 83 CURVE",
"453 83 LINE",
"453 0 LINE"
);
}
);
width = 612;
}
);
leftKerningGroup = u;
note = u;
unicode = 0075;
},
{
glyphname = v;
lastChange = "2020-07-28 15:47:08 +0000";
layers = (
{
layerId = "83CEB4AC-2A3F-4494-A887-C39963512B94";
paths = (
{
closed = 1;
nodes = (
"32 489 LINE",
"207 0 LINE",
"333 0 LINE",
"508 489 LINE",
"424 489 LINE",
"277 59 LINE",
"263 59 LINE",
"116 489 LINE"
);
}
);
width = 539;
},
{
layerId = "8F42668C-F186-4E73-94E7-C31CD8308E50";
paths = (
{
closed = 1;
nodes = (
"32 489 LINE",
"207 0 LINE",
"333 0 LINE",
"508 489 LINE",
"424 489 LINE",
"277 59 LINE",
"263 59 LINE",
"116 489 LINE"
);
}
);
width = 539;
}
);
leftKerningGroup = v;
note = v;
rightKerningGroup = v;
unicode = 0076;
},
{
glyphname = w;
lastChange = "2020-07-28 15:51:54 +0000";
layers = (
{
layerId = "83CEB4AC-2A3F-4494-A887-C39963512B94";
paths = (
{
closed = 1;
nodes = (
"18 496 LINE",
"96 0 LINE",
"240 0 LINE",
"300 460 LINE",
"312 460 LINE",
"372 0 LINE",
"516 0 LINE",
"594 496 LINE",
"514 496 LINE",
"448 36 LINE",
"436 36 LINE",
"378 496 LINE",
"234 496 LINE",
"176 36 LINE",
"164 36 LINE",
"98 496 LINE"
);
}
);
width = 612;
},
{
layerId = "8F42668C-F186-4E73-94E7-C31CD8308E50";
paths = (
{
closed = 1;
nodes = (
"53 489 LINE",
"151 0 LINE",
"286 0 LINE",
"394 436 LINE",
"407 436 LINE",
"515 0 LINE",
"650 0 LINE",
"748 489 LINE",
"668 489 LINE",
"587 53 LINE",
"573 53 LINE",
"466 489 LINE",
"335 489 LINE",
"228 53 LINE",
"214 53 LINE",
"133 489 LINE"
);
}
);
width = 801;
}
);
leftKerningGroup = w;
note = w;
rightKerningGroup = w;
unicode = 0077;
},
{
glyphname = x;
lastChange = "2020-07-28 15:57:16 +0000";
layers = (
{
layerId = "83CEB4AC-2A3F-4494-A887-C39963512B94";
paths = (
{
closed = 1;
nodes = (
"83 496 LINE",
"229 260 LINE",
"229 248 LINE",
"71 0 LINE",
"162 0 LINE",
"297 218 LINE",
"315 218 LINE",
"450 0 LINE",
"541 0 LINE",
"383 248 LINE",
"383 260 LINE",
"529 496 LINE",
"440 496 LINE",
"315 290 LINE",
"297 290 LINE",
"172 496 LINE"
);
}
);
width = 612;
},
{
layerId = "8F42668C-F186-4E73-94E7-C31CD8308E50";
paths = (
{
closed = 1;
nodes = (
"49 489 LINE",
"239 248 LINE",
"239 248 LINE",
"43 0 LINE",
"140 0 LINE",
"290 195 LINE",
"304 195 LINE",
"454 0 LINE",
"550 0 LINE",
"354 248 LINE",
"354 248 LINE",
"545 489 LINE",
"449 489 LINE",
"304 300 LINE",
"290 300 LINE",
"144 489 LINE"
);
}
);
width = 593;
}
);
leftKerningGroup = x;
note = x;
rightKerningGroup = x;
unicode = 0078;
},
{
glyphname = y;
lastChange = "2020-07-28 15:47:08 +0000";
layers = (
{
layerId = "83CEB4AC-2A3F-4494-A887-C39963512B94";
paths = (
{
closed = 1;
nodes = (
"142 -130 LINE",
"142 -200 LINE",
"442 -200 LINE SMOOTH",
"498 -200 OFFCURVE",
"530 -167 OFFCURVE",
"530 -114 CURVE SMOOTH",
"530 489 LINE",
"451 489 LINE",
"451 243 LINE SMOOTH",
"451 121 OFFCURVE",
"384 60 OFFCURVE",
"291 60 CURVE SMOOTH",
"208 60 OFFCURVE",
"156 101 OFFCURVE",
"156 198 CURVE SMOOTH",
"156 489 LINE",
"77 489 LINE",
"77 192 LINE SMOOTH",
"77 61 OFFCURVE",
"162 -9 OFFCURVE",
"270 -9 CURVE SMOOTH",
"370 -9 OFFCURVE",
"416 35 OFFCURVE",
"437 78 CURVE",
"451 78 LINE",
"451 -100 LINE SMOOTH",
"451 -120 OFFCURVE",
"443 -130 OFFCURVE",
"422 -130 CURVE SMOOTH"
);
}
);
width = 612;
},
{
layerId = "8F42668C-F186-4E73-94E7-C31CD8308E50";
paths = (
{
closed = 1;
nodes = (
"142 -130 LINE",
"142 -200 LINE",
"442 -200 LINE SMOOTH",
"498 -200 OFFCURVE",
"530 -167 OFFCURVE",
"530 -114 CURVE SMOOTH",
"530 489 LINE",
"451 489 LINE",
"451 243 LINE SMOOTH",
"451 121 OFFCURVE",
"384 60 OFFCURVE",
"291 60 CURVE SMOOTH",
"208 60 OFFCURVE",
"156 101 OFFCURVE",
"156 198 CURVE SMOOTH",
"156 489 LINE",
"77 489 LINE",
"77 192 LINE SMOOTH",
"77 61 OFFCURVE",
"162 -9 OFFCURVE",
"270 -9 CURVE SMOOTH",
"370 -9 OFFCURVE",
"416 35 OFFCURVE",
"437 78 CURVE",
"451 78 LINE",
"451 -100 LINE SMOOTH",
"451 -120 OFFCURVE",
"443 -130 OFFCURVE",
"422 -130 CURVE SMOOTH"
);
}
);
width = 612;
}
);
leftKerningGroup = u;
note = y;
unicode = 0079;
},
{
glyphname = z;
lastChange = "2020-07-28 15:47:08 +0000";
layers = (
{
layerId = "83CEB4AC-2A3F-4494-A887-C39963512B94";
paths = (
{
closed = 1;
nodes = (
"71 489 LINE",
"71 420 LINE",
"372 420 LINE",
"372 409 LINE",
"61 102 LINE",
"61 0 LINE",
"463 0 LINE",
"463 69 LINE",
"143 69 LINE",
"143 80 LINE",
"455 387 LINE",
"455 489 LINE"
);
}
);
width = 521;
},
{
layerId = "8F42668C-F186-4E73-94E7-C31CD8308E50";
paths = (
{
closed = 1;
nodes = (
"71 489 LINE",
"71 420 LINE",
"372 420 LINE",
"372 409 LINE",
"61 102 LINE",
"61 0 LINE",
"463 0 LINE",
"463 69 LINE",
"143 69 LINE",
"143 80 LINE",
"455 387 LINE",
"455 489 LINE"
);
}
);
width = 521;
}
);
leftKerningGroup = z;
note = z;
rightKerningGroup = z;
unicode = 007A;
},
{
glyphname = zero;
lastChange = "2020-07-28 15:47:08 +0000";
layers = (
{
layerId = "83CEB4AC-2A3F-4494-A887-C39963512B94";
paths = (
{
closed = 1;
nodes = (
"60 268 LINE SMOOTH",
"60 80 OFFCURVE",
"161 -14 OFFCURVE",
"320 -14 CURVE SMOOTH",
"480 -14 OFFCURVE",
"581 80 OFFCURVE",
"581 268 CURVE SMOOTH",
"581 432 LINE SMOOTH",
"581 618 OFFCURVE",
"480 714 OFFCURVE",
"320 714 CURVE SMOOTH",
"161 714 OFFCURVE",
"60 618 OFFCURVE",
"60 432 CURVE SMOOTH"
);
},
{
closed = 1;
nodes = (
"141 437 LINE SMOOTH",
"141 565 OFFCURVE",
"203 641 OFFCURVE",
"320 641 CURVE SMOOTH",
"437 641 OFFCURVE",
"500 566 OFFCURVE",
"500 437 CURVE SMOOTH",
"500 264 LINE SMOOTH",
"500 135 OFFCURVE",
"440 59 OFFCURVE",
"320 59 CURVE SMOOTH",
"201 59 OFFCURVE",
"141 134 OFFCURVE",
"141 264 CURVE SMOOTH"
);
}
);
width = 641;
},
{
layerId = "8F42668C-F186-4E73-94E7-C31CD8308E50";
paths = (
{
closed = 1;
nodes = (
"60 268 LINE SMOOTH",
"60 80 OFFCURVE",
"161 -14 OFFCURVE",
"320 -14 CURVE SMOOTH",
"480 -14 OFFCURVE",
"581 80 OFFCURVE",
"581 268 CURVE SMOOTH",
"581 432 LINE SMOOTH",
"581 618 OFFCURVE",
"480 714 OFFCURVE",
"320 714 CURVE SMOOTH",
"161 714 OFFCURVE",
"60 618 OFFCURVE",
"60 432 CURVE SMOOTH"
);
},
{
closed = 1;
nodes = (
"141 437 LINE SMOOTH",
"141 565 OFFCURVE",
"203 641 OFFCURVE",
"320 641 CURVE SMOOTH",
"437 641 OFFCURVE",
"500 566 OFFCURVE",
"500 437 CURVE SMOOTH",
"500 264 LINE SMOOTH",
"500 135 OFFCURVE",
"440 59 OFFCURVE",
"320 59 CURVE SMOOTH",
"201 59 OFFCURVE",
"141 134 OFFCURVE",
"141 264 CURVE SMOOTH"
);
}
);
width = 641;
}
);
leftKerningGroup = zero;
note = zero;
rightKerningGroup = zero;
unicode = 0030;
},
{
glyphname = one;
lastChange = "2020-07-28 15:50:58 +0000";
layers = (
{
layerId = "83CEB4AC-2A3F-4494-A887-C39963512B94";
paths = (
{
closed = 1;
nodes = (
"190 700 LINE",
"56 400 LINE",
"142 400 LINE",
"257 663 LINE",
"269 663 LINE",
"269 78 LINE",
"71 78 LINE",
"71 0 LINE",
"551 0 LINE",
"551 78 LINE",
"353 78 LINE",
"353 700 LINE"
);
}
);
width = 612;
},
{
layerId = "8F42668C-F186-4E73-94E7-C31CD8308E50";
paths = (
{
closed = 1;
nodes = (
"185 700 LINE",
"18 397 LINE",
"106 397 LINE",
"242 646 LINE",
"257 646 LINE",
"257 78 LINE",
"257 78 LINE",
"257 0 LINE",
"338 0 LINE",
"338 78 LINE",
"338 78 LINE",
"338 700 LINE"
);
}
);
width = 418;
}
);
leftKerningGroup = one;
note = one;
unicode = 0031;
},
{
glyphname = two;
lastChange = "2020-07-28 15:47:08 +0000";
layers = (
{
layerId = "83CEB4AC-2A3F-4494-A887-C39963512B94";
paths = (
{
closed = 1;
nodes = (
"57 464 LINE",
"137 464 LINE",
"137 478 LINE SMOOTH",
"137 587 OFFCURVE",
"207 641 OFFCURVE",
"309 641 CURVE SMOOTH",
"405 641 OFFCURVE",
"473 586 OFFCURVE",
"473 498 CURVE SMOOTH",
"473 494 LINE SMOOTH",
"473 401 OFFCURVE",
"413 358 OFFCURVE",
"322 330 CURVE SMOOTH",
"267 313 LINE SMOOTH",
"135 272 OFFCURVE",
"53 222 OFFCURVE",
"53 73 CURVE SMOOTH",
"53 0 LINE",
"548 0 LINE",
"548 73 LINE",
"135 73 LINE",
"135 90 LINE SMOOTH",
"135 182 OFFCURVE",
"186 209 OFFCURVE",
"287 241 CURVE SMOOTH",
"341 258 LINE SMOOTH",
"468 298 OFFCURVE",
"554 355 OFFCURVE",
"554 491 CURVE SMOOTH",
"554 500 LINE SMOOTH",
"554 628 OFFCURVE",
"453 714 OFFCURVE",
"309 714 CURVE SMOOTH",
"165 714 OFFCURVE",
"57 629 OFFCURVE",
"57 477 CURVE SMOOTH"
);
}
);
width = 603;
},
{
layerId = "8F42668C-F186-4E73-94E7-C31CD8308E50";
paths = (
{
closed = 1;
nodes = (
"57 464 LINE",
"137 464 LINE",
"137 478 LINE SMOOTH",
"137 587 OFFCURVE",
"207 641 OFFCURVE",
"309 641 CURVE SMOOTH",
"405 641 OFFCURVE",
"473 586 OFFCURVE",
"473 498 CURVE SMOOTH",
"473 494 LINE SMOOTH",
"473 401 OFFCURVE",
"413 358 OFFCURVE",
"322 330 CURVE SMOOTH",
"267 313 LINE SMOOTH",
"135 272 OFFCURVE",
"53 222 OFFCURVE",
"53 73 CURVE SMOOTH",
"53 0 LINE",
"548 0 LINE",
"548 73 LINE",
"135 73 LINE",
"135 90 LINE SMOOTH",
"135 182 OFFCURVE",
"186 209 OFFCURVE",
"287 241 CURVE SMOOTH",
"341 258 LINE SMOOTH",
"468 298 OFFCURVE",
"554 355 OFFCURVE",
"554 491 CURVE SMOOTH",
"554 500 LINE SMOOTH",
"554 628 OFFCURVE",
"453 714 OFFCURVE",
"309 714 CURVE SMOOTH",
"165 714 OFFCURVE",
"57 629 OFFCURVE",
"57 477 CURVE SMOOTH"
);
}
);
width = 603;
}
);
leftKerningGroup = two;
note = two;
rightKerningGroup = two;
unicode = 0032;
},
{
glyphname = three;
lastChange = "2020-07-28 15:47:08 +0000";
layers = (
{
layerId = "83CEB4AC-2A3F-4494-A887-C39963512B94";
paths = (
{
closed = 1;
nodes = (
"62 700 LINE",
"62 627 LINE",
"461 627 LINE",
"461 615 LINE",
"194 444 LINE",
"194 343 LINE",
"308 343 LINE SMOOTH",
"399 343 OFFCURVE",
"472 304 OFFCURVE",
"472 213 CURVE SMOOTH",
"472 205 LINE SMOOTH",
"472 121 OFFCURVE",
"409 59 OFFCURVE",
"303 59 CURVE SMOOTH",
"197 59 OFFCURVE",
"127 122 OFFCURVE",
"127 224 CURVE SMOOTH",
"127 242 LINE",
"45 242 LINE",
"45 223 LINE SMOOTH",
"45 73 OFFCURVE",
"153 -14 OFFCURVE",
"303 -14 CURVE SMOOTH",
"454 -14 OFFCURVE",
"553 72 OFFCURVE",
"553 204 CURVE SMOOTH",
"553 215 LINE SMOOTH",
"553 343 OFFCURVE",
"454 407 OFFCURVE",
"336 407 CURVE SMOOTH",
"286 407 LINE",
"286 419 LINE",
"547 587 LINE",
"547 700 LINE"
);
}
);
width = 604;
},
{
layerId = "8F42668C-F186-4E73-94E7-C31CD8308E50";
paths = (
{
closed = 1;
nodes = (
"62 700 LINE",
"62 627 LINE",
"461 627 LINE",
"461 615 LINE",
"194 444 LINE",
"194 343 LINE",
"308 343 LINE SMOOTH",
"399 343 OFFCURVE",
"472 304 OFFCURVE",
"472 213 CURVE SMOOTH",
"472 205 LINE SMOOTH",
"472 121 OFFCURVE",
"409 59 OFFCURVE",
"303 59 CURVE SMOOTH",
"197 59 OFFCURVE",
"127 122 OFFCURVE",
"127 224 CURVE SMOOTH",
"127 242 LINE",
"45 242 LINE",
"45 223 LINE SMOOTH",
"45 73 OFFCURVE",
"153 -14 OFFCURVE",
"303 -14 CURVE SMOOTH",
"454 -14 OFFCURVE",
"553 72 OFFCURVE",
"553 204 CURVE SMOOTH",
"553 215 LINE SMOOTH",
"553 343 OFFCURVE",
"454 407 OFFCURVE",
"336 407 CURVE SMOOTH",
"286 407 LINE",
"286 419 LINE",
"547 587 LINE",
"547 700 LINE"
);
}
);
width = 604;
}
);
leftKerningGroup = three;
note = three;
rightKerningGroup = three;
unicode = 0033;
},
{
glyphname = four;
lastChange = "2020-07-28 15:47:08 +0000";
layers = (
{
layerId = "83CEB4AC-2A3F-4494-A887-C39963512B94";
paths = (
{
closed = 1;
nodes = (
"326 700 LINE",
"32 239 LINE",
"32 143 LINE",
"397 143 LINE",
"397 0 LINE",
"478 0 LINE",
"478 143 LINE",
"598 143 LINE",
"598 216 LINE",
"478 216 LINE",
"478 700 LINE"
);
},
{
closed = 1;
nodes = (
"383 651 LINE",
"397 651 LINE",
"397 216 LINE",
"113 216 LINE",
"113 228 LINE"
);
}
);
width = 625;
},
{
layerId = "8F42668C-F186-4E73-94E7-C31CD8308E50";
paths = (
{
closed = 1;
nodes = (
"326 700 LINE",
"32 239 LINE",
"32 143 LINE",
"397 143 LINE",
"397 0 LINE",
"478 0 LINE",
"478 143 LINE",
"598 143 LINE",
"598 216 LINE",
"478 216 LINE",
"478 700 LINE"
);
},
{
closed = 1;
nodes = (
"383 651 LINE",
"397 651 LINE",
"397 216 LINE",
"113 216 LINE",
"113 228 LINE"
);
}
);
width = 625;
}
);
leftKerningGroup = four;
note = four;
rightKerningGroup = four;
unicode = 0034;
},
{
glyphname = five;
lastChange = "2020-07-28 15:47:08 +0000";
layers = (
{
layerId = "83CEB4AC-2A3F-4494-A887-C39963512B94";
paths = (
{
closed = 1;
nodes = (
"72 700 LINE",
"72 321 LINE",
"182 321 LINE",
"200 355 OFFCURVE",
"234 400 OFFCURVE",
"314 400 CURVE SMOOTH",
"406 400 OFFCURVE",
"470 336 OFFCURVE",
"470 236 CURVE SMOOTH",
"470 227 LINE SMOOTH",
"470 123 OFFCURVE",
"407 59 OFFCURVE",
"300 59 CURVE SMOOTH",
"199 59 OFFCURVE",
"133 117 OFFCURVE",
"133 222 CURVE SMOOTH",
"133 231 LINE",
"51 231 LINE",
"51 219 LINE SMOOTH",
"51 80 OFFCURVE",
"149 -14 OFFCURVE",
"302 -14 CURVE SMOOTH",
"456 -14 OFFCURVE",
"551 84 OFFCURVE",
"551 226 CURVE SMOOTH",
"551 237 LINE SMOOTH",
"551 382 OFFCURVE",
"453 469 OFFCURVE",
"332 469 CURVE SMOOTH",
"235 469 OFFCURVE",
"187 424 OFFCURVE",
"167 385 CURVE",
"153 385 LINE",
"153 627 LINE",
"532 627 LINE",
"532 700 LINE"
);
}
);
width = 599;
},
{
layerId = "8F42668C-F186-4E73-94E7-C31CD8308E50";
paths = (
{
closed = 1;
nodes = (
"72 700 LINE",
"72 321 LINE",
"182 321 LINE",
"200 355 OFFCURVE",
"234 400 OFFCURVE",
"314 400 CURVE SMOOTH",
"406 400 OFFCURVE",
"470 336 OFFCURVE",
"470 236 CURVE SMOOTH",
"470 227 LINE SMOOTH",
"470 123 OFFCURVE",
"407 59 OFFCURVE",
"300 59 CURVE SMOOTH",
"199 59 OFFCURVE",
"133 117 OFFCURVE",
"133 222 CURVE SMOOTH",
"133 231 LINE",
"51 231 LINE",
"51 219 LINE SMOOTH",
"51 80 OFFCURVE",
"149 -14 OFFCURVE",
"302 -14 CURVE SMOOTH",
"456 -14 OFFCURVE",
"551 84 OFFCURVE",
"551 226 CURVE SMOOTH",
"551 237 LINE SMOOTH",
"551 382 OFFCURVE",
"453 469 OFFCURVE",
"332 469 CURVE SMOOTH",
"235 469 OFFCURVE",
"187 424 OFFCURVE",
"167 385 CURVE",
"153 385 LINE",
"153 627 LINE",
"532 627 LINE",
"532 700 LINE"
);
}
);
width = 599;
}
);
note = five;
rightKerningGroup = five;
unicode = 0035;
},
{
glyphname = six;
lastChange = "2020-07-28 15:47:08 +0000";
layers = (
{
layerId = "83CEB4AC-2A3F-4494-A887-C39963512B94";
paths = (
{
closed = 1;
nodes = (
"141 377 LINE",
"141 474 LINE SMOOTH",
"141 578 OFFCURVE",
"203 641 OFFCURVE",
"313 641 CURVE SMOOTH",
"420 641 OFFCURVE",
"474 584 OFFCURVE",
"474 502 CURVE",
"556 502 LINE",
"556 625 OFFCURVE",
"468 714 OFFCURVE",
"313 714 CURVE SMOOTH",
"157 714 OFFCURVE",
"60 623 OFFCURVE",
"60 466 CURVE SMOOTH",
"60 222 LINE SMOOTH",
"60 76 OFFCURVE",
"165 -14 OFFCURVE",
"310 -14 CURVE SMOOTH",
"454 -14 OFFCURVE",
"561 76 OFFCURVE",
"561 218 CURVE SMOOTH",
"561 230 LINE SMOOTH",
"561 370 OFFCURVE",
"458 458 OFFCURVE",
"332 458 CURVE SMOOTH",
"232 458 OFFCURVE",
"179 417 OFFCURVE",
"155 377 CURVE"
);
},
{
closed = 1;
nodes = (
"410 390 OFFCURVE",
"480 326 OFFCURVE",
"480 227 CURVE SMOOTH",
"480 219 LINE SMOOTH",
"480 120 OFFCURVE",
"411 59 OFFCURVE",
"310 59 CURVE SMOOTH",
"209 59 OFFCURVE",
"141 120 OFFCURVE",
"141 219 CURVE SMOOTH",
"141 227 LINE SMOOTH",
"141 326 OFFCURVE",
"210 390 OFFCURVE",
"310 390 CURVE SMOOTH"
);
}
);
width = 612;
},
{
layerId = "8F42668C-F186-4E73-94E7-C31CD8308E50";
paths = (
{
closed = 1;
nodes = (
"141 377 LINE",
"141 474 LINE SMOOTH",
"141 578 OFFCURVE",
"203 641 OFFCURVE",
"313 641 CURVE SMOOTH",
"420 641 OFFCURVE",
"474 584 OFFCURVE",
"474 502 CURVE",
"556 502 LINE",
"556 625 OFFCURVE",
"468 714 OFFCURVE",
"313 714 CURVE SMOOTH",
"157 714 OFFCURVE",
"60 623 OFFCURVE",
"60 466 CURVE SMOOTH",
"60 222 LINE SMOOTH",
"60 76 OFFCURVE",
"165 -14 OFFCURVE",
"310 -14 CURVE SMOOTH",
"454 -14 OFFCURVE",
"561 76 OFFCURVE",
"561 218 CURVE SMOOTH",
"561 230 LINE SMOOTH",
"561 370 OFFCURVE",
"458 458 OFFCURVE",
"332 458 CURVE SMOOTH",
"232 458 OFFCURVE",
"179 417 OFFCURVE",
"155 377 CURVE"
);
},
{
closed = 1;
nodes = (
"410 390 OFFCURVE",
"480 326 OFFCURVE",
"480 227 CURVE SMOOTH",
"480 219 LINE SMOOTH",
"480 120 OFFCURVE",
"411 59 OFFCURVE",
"310 59 CURVE SMOOTH",
"209 59 OFFCURVE",
"141 120 OFFCURVE",
"141 219 CURVE SMOOTH",
"141 227 LINE SMOOTH",
"141 326 OFFCURVE",
"210 390 OFFCURVE",
"310 390 CURVE SMOOTH"
);
}
);
width = 612;
}
);
leftKerningGroup = six;
note = six;
rightKerningGroup = six;
unicode = 0036;
},
{
glyphname = seven;
lastChange = "2020-07-28 15:47:08 +0000";
layers = (
{
layerId = "83CEB4AC-2A3F-4494-A887-C39963512B94";
paths = (
{
closed = 1;
nodes = (
"32 700 LINE",
"32 627 LINE",
"448 627 LINE",
"448 616 LINE",
"181 141 LINE SMOOTH",
"157 97 OFFCURVE",
"152 72 OFFCURVE",
"152 25 CURVE SMOOTH",
"152 0 LINE",
"233 0 LINE",
"233 23 LINE SMOOTH",
"233 58 OFFCURVE",
"238 75 OFFCURVE",
"254 104 CURVE SMOOTH",
"533 604 LINE",
"533 700 LINE"
);
}
);
width = 564;
},
{
layerId = "8F42668C-F186-4E73-94E7-C31CD8308E50";
paths = (
{
closed = 1;
nodes = (
"32 700 LINE",
"32 627 LINE",
"448 627 LINE",
"448 616 LINE",
"181 141 LINE SMOOTH",
"157 97 OFFCURVE",
"152 72 OFFCURVE",
"152 25 CURVE SMOOTH",
"152 0 LINE",
"233 0 LINE",
"233 23 LINE SMOOTH",
"233 58 OFFCURVE",
"238 75 OFFCURVE",
"254 104 CURVE SMOOTH",
"533 604 LINE",
"533 700 LINE"
);
}
);
width = 564;
}
);
leftKerningGroup = seven;
note = seven;
rightKerningGroup = seven;
unicode = 0037;
},
{
glyphname = eight;
lastChange = "2020-07-28 15:47:08 +0000";
layers = (
{
layerId = "83CEB4AC-2A3F-4494-A887-C39963512B94";
paths = (
{
closed = 1;
nodes = (
"165 714 OFFCURVE",
"59 645 OFFCURVE",
"59 532 CURVE SMOOTH",
"59 521 LINE SMOOTH",
"59 431 OFFCURVE",
"125 385 OFFCURVE",
"180 370 CURVE",
"180 357 LINE",
"125 346 OFFCURVE",
"46 299 OFFCURVE",
"46 195 CURVE SMOOTH",
"46 184 LINE SMOOTH",
"46 64 OFFCURVE",
"149 -14 OFFCURVE",
"311 -14 CURVE SMOOTH",
"473 -14 OFFCURVE",
"576 64 OFFCURVE",
"576 184 CURVE SMOOTH",
"576 195 LINE SMOOTH",
"576 299 OFFCURVE",
"498 346 OFFCURVE",
"443 357 CURVE",
"443 370 LINE",
"498 385 OFFCURVE",
"563 431 OFFCURVE",
"563 521 CURVE SMOOTH",
"563 532 LINE SMOOTH",
"563 645 OFFCURVE",
"458 714 OFFCURVE",
"311 714 CURVE SMOOTH"
);
},
{
closed = 1;
nodes = (
"417 641 OFFCURVE",
"482 599 OFFCURVE",
"482 523 CURVE SMOOTH",
"482 515 LINE SMOOTH",
"482 440 OFFCURVE",
"418 398 OFFCURVE",
"311 398 CURVE SMOOTH",
"205 398 OFFCURVE",
"140 440 OFFCURVE",
"140 515 CURVE SMOOTH",
"140 523 LINE SMOOTH",
"140 599 OFFCURVE",
"206 641 OFFCURVE",
"311 641 CURVE SMOOTH"
);
},
{
closed = 1;
nodes = (
"425 325 OFFCURVE",
"495 280 OFFCURVE",
"495 196 CURVE SMOOTH",
"495 188 LINE SMOOTH",
"495 104 OFFCURVE",
"424 59 OFFCURVE",
"311 59 CURVE SMOOTH",
"199 59 OFFCURVE",
"128 104 OFFCURVE",
"128 188 CURVE SMOOTH",
"128 196 LINE SMOOTH",
"128 280 OFFCURVE",
"197 325 OFFCURVE",
"311 325 CURVE SMOOTH"
);
}
);
width = 623;
},
{
layerId = "8F42668C-F186-4E73-94E7-C31CD8308E50";
paths = (
{
closed = 1;
nodes = (
"165 714 OFFCURVE",
"59 645 OFFCURVE",
"59 532 CURVE SMOOTH",
"59 521 LINE SMOOTH",
"59 431 OFFCURVE",
"125 385 OFFCURVE",
"180 370 CURVE",
"180 357 LINE",
"125 346 OFFCURVE",
"46 299 OFFCURVE",
"46 195 CURVE SMOOTH",
"46 184 LINE SMOOTH",
"46 64 OFFCURVE",
"149 -14 OFFCURVE",
"311 -14 CURVE SMOOTH",
"473 -14 OFFCURVE",
"576 64 OFFCURVE",
"576 184 CURVE SMOOTH",
"576 195 LINE SMOOTH",
"576 299 OFFCURVE",
"498 346 OFFCURVE",
"443 357 CURVE",
"443 370 LINE",
"498 385 OFFCURVE",
"563 431 OFFCURVE",
"563 521 CURVE SMOOTH",
"563 532 LINE SMOOTH",
"563 645 OFFCURVE",
"458 714 OFFCURVE",
"311 714 CURVE SMOOTH"
);
},
{
closed = 1;
nodes = (
"417 641 OFFCURVE",
"482 599 OFFCURVE",
"482 523 CURVE SMOOTH",
"482 515 LINE SMOOTH",
"482 440 OFFCURVE",
"418 398 OFFCURVE",
"311 398 CURVE SMOOTH",
"205 398 OFFCURVE",
"140 440 OFFCURVE",
"140 515 CURVE SMOOTH",
"140 523 LINE SMOOTH",
"140 599 OFFCURVE",
"206 641 OFFCURVE",
"311 641 CURVE SMOOTH"
);
},
{
closed = 1;
nodes = (
"425 325 OFFCURVE",
"495 280 OFFCURVE",
"495 196 CURVE SMOOTH",
"495 188 LINE SMOOTH",
"495 104 OFFCURVE",
"424 59 OFFCURVE",
"311 59 CURVE SMOOTH",
"199 59 OFFCURVE",
"128 104 OFFCURVE",
"128 188 CURVE SMOOTH",
"128 196 LINE SMOOTH",
"128 280 OFFCURVE",
"197 325 OFFCURVE",
"311 325 CURVE SMOOTH"
);
}
);
width = 623;
}
);
leftKerningGroup = eight;
note = eight;
rightKerningGroup = eight;
unicode = 0038;
},
{
glyphname = nine;
lastChange = "2020-07-28 15:47:08 +0000";
layers = (
{
layerId = "83CEB4AC-2A3F-4494-A887-C39963512B94";
paths = (
{
closed = 1;
nodes = (
"471 323 LINE",
"471 226 LINE SMOOTH",
"471 122 OFFCURVE",
"409 59 OFFCURVE",
"299 59 CURVE SMOOTH",
"192 59 OFFCURVE",
"139 116 OFFCURVE",
"139 198 CURVE",
"57 198 LINE",
"57 75 OFFCURVE",
"145 -14 OFFCURVE",
"299 -14 CURVE SMOOTH",
"455 -14 OFFCURVE",
"552 77 OFFCURVE",
"552 234 CURVE SMOOTH",
"552 478 LINE SMOOTH",
"552 624 OFFCURVE",
"448 714 OFFCURVE",
"302 714 CURVE SMOOTH",
"158 714 OFFCURVE",
"51 624 OFFCURVE",
"51 482 CURVE SMOOTH",
"51 470 LINE SMOOTH",
"51 330 OFFCURVE",
"154 242 OFFCURVE",
"281 242 CURVE SMOOTH",
"381 242 OFFCURVE",
"433 283 OFFCURVE",
"458 323 CURVE"
);
},
{
closed = 1;
nodes = (
"202 310 OFFCURVE",
"133 374 OFFCURVE",
"133 473 CURVE SMOOTH",
"133 481 LINE SMOOTH",
"133 580 OFFCURVE",
"201 641 OFFCURVE",
"302 641 CURVE SMOOTH",
"403 641 OFFCURVE",
"471 580 OFFCURVE",
"471 481 CURVE SMOOTH",
"471 473 LINE SMOOTH",
"471 374 OFFCURVE",
"402 310 OFFCURVE",
"302 310 CURVE SMOOTH"
);
}
);
width = 612;
},
{
layerId = "8F42668C-F186-4E73-94E7-C31CD8308E50";
paths = (
{
closed = 1;
nodes = (
"471 323 LINE",
"471 226 LINE SMOOTH",
"471 122 OFFCURVE",
"409 59 OFFCURVE",
"299 59 CURVE SMOOTH",
"192 59 OFFCURVE",
"139 116 OFFCURVE",
"139 198 CURVE",
"57 198 LINE",
"57 75 OFFCURVE",
"145 -14 OFFCURVE",
"299 -14 CURVE SMOOTH",
"455 -14 OFFCURVE",
"552 77 OFFCURVE",
"552 234 CURVE SMOOTH",
"552 478 LINE SMOOTH",
"552 624 OFFCURVE",
"448 714 OFFCURVE",
"302 714 CURVE SMOOTH",
"158 714 OFFCURVE",
"51 624 OFFCURVE",
"51 482 CURVE SMOOTH",
"51 470 LINE SMOOTH",
"51 330 OFFCURVE",
"154 242 OFFCURVE",
"281 242 CURVE SMOOTH",
"381 242 OFFCURVE",
"433 283 OFFCURVE",
"458 323 CURVE"
);
},
{
closed = 1;
nodes = (
"202 310 OFFCURVE",
"133 374 OFFCURVE",
"133 473 CURVE SMOOTH",
"133 481 LINE SMOOTH",
"133 580 OFFCURVE",
"201 641 OFFCURVE",
"302 641 CURVE SMOOTH",
"403 641 OFFCURVE",
"471 580 OFFCURVE",
"471 481 CURVE SMOOTH",
"471 473 LINE SMOOTH",
"471 374 OFFCURVE",
"402 310 OFFCURVE",
"302 310 CURVE SMOOTH"
);
}
);
width = 612;
}
);
leftKerningGroup = nine;
note = nine;
rightKerningGroup = nine;
unicode = 0039;
},
{
glyphname = bracketleft;
lastChange = "2020-07-28 15:47:08 +0000";
layers = (
{
layerId = "83CEB4AC-2A3F-4494-A887-C39963512B94";
paths = (
{
closed = 1;
nodes = (
"83 -156 LINE SMOOTH",
"83 -201 OFFCURVE",
"115 -235 OFFCURVE",
"161 -235 CURVE SMOOTH",
"316 -235 LINE",
"316 -166 LINE",
"186 -166 LINE SMOOTH",
"168 -166 OFFCURVE",
"159 -156 OFFCURVE",
"159 -136 CURVE SMOOTH",
"159 646 LINE SMOOTH",
"159 666 OFFCURVE",
"168 676 OFFCURVE",
"186 676 CURVE SMOOTH",
"316 676 LINE",
"316 745 LINE",
"161 745 LINE SMOOTH",
"115 745 OFFCURVE",
"83 711 OFFCURVE",
"83 666 CURVE SMOOTH"
);
}
);
width = 335;
},
{
layerId = "8F42668C-F186-4E73-94E7-C31CD8308E50";
paths = (
{
closed = 1;
nodes = (
"83 -156 LINE SMOOTH",
"83 -201 OFFCURVE",
"115 -235 OFFCURVE",
"161 -235 CURVE SMOOTH",
"316 -235 LINE",
"316 -166 LINE",
"186 -166 LINE SMOOTH",
"168 -166 OFFCURVE",
"159 -156 OFFCURVE",
"159 -136 CURVE SMOOTH",
"159 646 LINE SMOOTH",
"159 666 OFFCURVE",
"168 676 OFFCURVE",
"186 676 CURVE SMOOTH",
"316 676 LINE",
"316 745 LINE",
"161 745 LINE SMOOTH",
"115 745 OFFCURVE",
"83 711 OFFCURVE",
"83 666 CURVE SMOOTH"
);
}
);
width = 335;
}
);
note = bracketleft;
rightKerningGroup = bracketleft;
unicode = 005B;
},
{
glyphname = bracketright;
lastChange = "2020-07-28 15:47:08 +0000";
layers = (
{
layerId = "83CEB4AC-2A3F-4494-A887-C39963512B94";
paths = (
{
closed = 1;
nodes = (
"253 666 LINE SMOOTH",
"253 711 OFFCURVE",
"220 745 OFFCURVE",
"175 745 CURVE SMOOTH",
"19 745 LINE",
"19 676 LINE",
"149 676 LINE SMOOTH",
"167 676 OFFCURVE",
"176 666 OFFCURVE",
"176 646 CURVE SMOOTH",
"176 -136 LINE SMOOTH",
"176 -156 OFFCURVE",
"167 -166 OFFCURVE",
"149 -166 CURVE SMOOTH",
"19 -166 LINE",
"19 -235 LINE",
"175 -235 LINE SMOOTH",
"220 -235 OFFCURVE",
"253 -201 OFFCURVE",
"253 -156 CURVE SMOOTH"
);
}
);
width = 335;
},
{
layerId = "8F42668C-F186-4E73-94E7-C31CD8308E50";
paths = (
{
closed = 1;
nodes = (
"253 666 LINE SMOOTH",
"253 711 OFFCURVE",
"220 745 OFFCURVE",
"175 745 CURVE SMOOTH",
"19 745 LINE",
"19 676 LINE",
"149 676 LINE SMOOTH",
"167 676 OFFCURVE",
"176 666 OFFCURVE",
"176 646 CURVE SMOOTH",
"176 -136 LINE SMOOTH",
"176 -156 OFFCURVE",
"167 -166 OFFCURVE",
"149 -166 CURVE SMOOTH",
"19 -166 LINE",
"19 -235 LINE",
"175 -235 LINE SMOOTH",
"220 -235 OFFCURVE",
"253 -201 OFFCURVE",
"253 -156 CURVE SMOOTH"
);
}
);
width = 335;
}
);
leftKerningGroup = bracketright;
note = bracketright;
unicode = 005D;
},
{
glyphname = braceleft;
lastChange = "2020-07-28 15:47:08 +0000";
layers = (
{
layerId = "83CEB4AC-2A3F-4494-A887-C39963512B94";
paths = (
{
closed = 1;
nodes = (
"39 293 LINE",
"39 217 LINE",
"125 217 LINE SMOOTH",
"162 217 OFFCURVE",
"179 200 OFFCURVE",
"179 167 CURVE SMOOTH",
"179 -156 LINE SMOOTH",
"179 -201 OFFCURVE",
"212 -235 OFFCURVE",
"257 -235 CURVE SMOOTH",
"413 -235 LINE",
"413 -166 LINE",
"283 -166 LINE SMOOTH",
"265 -166 OFFCURVE",
"256 -156 OFFCURVE",
"256 -136 CURVE SMOOTH",
"256 168 LINE SMOOTH",
"256 216 OFFCURVE",
"229 248 OFFCURVE",
"182 248 CURVE SMOOTH",
"175 248 LINE",
"175 262 LINE",
"182 262 LINE SMOOTH",
"229 262 OFFCURVE",
"256 294 OFFCURVE",
"256 342 CURVE SMOOTH",
"256 646 LINE SMOOTH",
"256 666 OFFCURVE",
"265 676 OFFCURVE",
"283 676 CURVE SMOOTH",
"413 676 LINE",
"413 745 LINE",
"257 745 LINE SMOOTH",
"212 745 OFFCURVE",
"179 711 OFFCURVE",
"179 666 CURVE SMOOTH",
"179 343 LINE SMOOTH",
"179 310 OFFCURVE",
"162 293 OFFCURVE",
"125 293 CURVE SMOOTH"
);
}
);
width = 432;
},
{
layerId = "8F42668C-F186-4E73-94E7-C31CD8308E50";
paths = (
{
closed = 1;
nodes = (
"39 293 LINE",
"39 217 LINE",
"125 217 LINE SMOOTH",
"162 217 OFFCURVE",
"179 200 OFFCURVE",
"179 167 CURVE SMOOTH",
"179 -156 LINE SMOOTH",
"179 -201 OFFCURVE",
"212 -235 OFFCURVE",
"257 -235 CURVE SMOOTH",
"413 -235 LINE",
"413 -166 LINE",
"283 -166 LINE SMOOTH",
"265 -166 OFFCURVE",
"256 -156 OFFCURVE",
"256 -136 CURVE SMOOTH",
"256 168 LINE SMOOTH",
"256 216 OFFCURVE",
"229 248 OFFCURVE",
"182 248 CURVE SMOOTH",
"175 248 LINE",
"175 262 LINE",
"182 262 LINE SMOOTH",
"229 262 OFFCURVE",
"256 294 OFFCURVE",
"256 342 CURVE SMOOTH",
"256 646 LINE SMOOTH",
"256 666 OFFCURVE",
"265 676 OFFCURVE",
"283 676 CURVE SMOOTH",
"413 676 LINE",
"413 745 LINE",
"257 745 LINE SMOOTH",
"212 745 OFFCURVE",
"179 711 OFFCURVE",
"179 666 CURVE SMOOTH",
"179 343 LINE SMOOTH",
"179 310 OFFCURVE",
"162 293 OFFCURVE",
"125 293 CURVE SMOOTH"
);
}
);
width = 432;
}
);
note = braceleft;
rightKerningGroup = bracketleft;
unicode = 007B;
},
{
glyphname = braceright;
lastChange = "2020-07-28 15:47:08 +0000";
layers = (
{
layerId = "83CEB4AC-2A3F-4494-A887-C39963512B94";
paths = (
{
closed = 1;
nodes = (
"393 293 LINE",
"306 293 LINE SMOOTH",
"270 293 OFFCURVE",
"253 310 OFFCURVE",
"253 343 CURVE SMOOTH",
"253 666 LINE SMOOTH",
"253 711 OFFCURVE",
"220 745 OFFCURVE",
"175 745 CURVE SMOOTH",
"19 745 LINE",
"19 676 LINE",
"149 676 LINE SMOOTH",
"167 676 OFFCURVE",
"176 666 OFFCURVE",
"176 646 CURVE SMOOTH",
"176 342 LINE SMOOTH",
"176 294 OFFCURVE",
"203 262 OFFCURVE",
"250 262 CURVE SMOOTH",
"257 262 LINE",
"257 248 LINE",
"250 248 LINE SMOOTH",
"203 248 OFFCURVE",
"176 216 OFFCURVE",
"176 168 CURVE SMOOTH",
"176 -136 LINE SMOOTH",
"176 -156 OFFCURVE",
"167 -166 OFFCURVE",
"149 -166 CURVE SMOOTH",
"19 -166 LINE",
"19 -235 LINE",
"175 -235 LINE SMOOTH",
"220 -235 OFFCURVE",
"253 -201 OFFCURVE",
"253 -156 CURVE SMOOTH",
"253 167 LINE SMOOTH",
"253 200 OFFCURVE",
"270 217 OFFCURVE",
"306 217 CURVE SMOOTH",
"393 217 LINE"
);
}
);
width = 432;
},
{
layerId = "8F42668C-F186-4E73-94E7-C31CD8308E50";
paths = (
{
closed = 1;
nodes = (
"393 293 LINE",
"306 293 LINE SMOOTH",
"270 293 OFFCURVE",
"253 310 OFFCURVE",
"253 343 CURVE SMOOTH",
"253 666 LINE SMOOTH",
"253 711 OFFCURVE",
"220 745 OFFCURVE",
"175 745 CURVE SMOOTH",
"19 745 LINE",
"19 676 LINE",
"149 676 LINE SMOOTH",
"167 676 OFFCURVE",
"176 666 OFFCURVE",
"176 646 CURVE SMOOTH",
"176 342 LINE SMOOTH",
"176 294 OFFCURVE",
"203 262 OFFCURVE",
"250 262 CURVE SMOOTH",
"257 262 LINE",
"257 248 LINE",
"250 248 LINE SMOOTH",
"203 248 OFFCURVE",
"176 216 OFFCURVE",
"176 168 CURVE SMOOTH",
"176 -136 LINE SMOOTH",
"176 -156 OFFCURVE",
"167 -166 OFFCURVE",
"149 -166 CURVE SMOOTH",
"19 -166 LINE",
"19 -235 LINE",
"175 -235 LINE SMOOTH",
"220 -235 OFFCURVE",
"253 -201 OFFCURVE",
"253 -156 CURVE SMOOTH",
"253 167 LINE SMOOTH",
"253 200 OFFCURVE",
"270 217 OFFCURVE",
"306 217 CURVE SMOOTH",
"393 217 LINE"
);
}
);
width = 432;
}
);
leftKerningGroup = bracketright;
note = braceright;
unicode = 007D;
},
{
glyphname = parenleft;
lastChange = "2020-07-28 15:47:08 +0000";
layers = (
{
layerId = "83CEB4AC-2A3F-4494-A887-C39963512B94";
paths = (
{
closed = 1;
nodes = (
"60 93 LINE SMOOTH",
"60 -138 OFFCURVE",
"176 -235 OFFCURVE",
"369 -235 CURVE",
"369 -166 LINE",
"209 -164 OFFCURVE",
"137 -80 OFFCURVE",
"137 98 CURVE SMOOTH",
"137 412 LINE SMOOTH",
"137 590 OFFCURVE",
"209 674 OFFCURVE",
"369 676 CURVE",
"369 745 LINE",
"176 745 OFFCURVE",
"60 648 OFFCURVE",
"60 417 CURVE SMOOTH"
);
}
);
width = 379;
},
{
layerId = "8F42668C-F186-4E73-94E7-C31CD8308E50";
paths = (
{
closed = 1;
nodes = (
"60 93 LINE SMOOTH",
"60 -138 OFFCURVE",
"176 -235 OFFCURVE",
"369 -235 CURVE",
"369 -166 LINE",
"209 -164 OFFCURVE",
"137 -80 OFFCURVE",
"137 98 CURVE SMOOTH",
"137 412 LINE SMOOTH",
"137 590 OFFCURVE",
"209 674 OFFCURVE",
"369 676 CURVE",
"369 745 LINE",
"176 745 OFFCURVE",
"60 648 OFFCURVE",
"60 417 CURVE SMOOTH"
);
}
);
width = 379;
}
);
note = parenleft;
unicode = 0028;
},
{
glyphname = parenright;
lastChange = "2020-07-28 15:47:08 +0000";
layers = (
{
layerId = "83CEB4AC-2A3F-4494-A887-C39963512B94";
paths = (
{
closed = 1;
nodes = (
"317 417 LINE SMOOTH",
"317 648 OFFCURVE",
"201 745 OFFCURVE",
"7 745 CURVE",
"7 676 LINE",
"167 674 OFFCURVE",
"240 590 OFFCURVE",
"240 412 CURVE SMOOTH",
"240 98 LINE SMOOTH",
"240 -80 OFFCURVE",
"167 -164 OFFCURVE",
"7 -166 CURVE",
"7 -235 LINE",
"201 -235 OFFCURVE",
"317 -138 OFFCURVE",
"317 93 CURVE SMOOTH"
);
}
);
width = 377;
},
{
layerId = "8F42668C-F186-4E73-94E7-C31CD8308E50";
paths = (
{
closed = 1;
nodes = (
"317 417 LINE SMOOTH",
"317 648 OFFCURVE",
"201 745 OFFCURVE",
"7 745 CURVE",
"7 676 LINE",
"167 674 OFFCURVE",
"240 590 OFFCURVE",
"240 412 CURVE SMOOTH",
"240 98 LINE SMOOTH",
"240 -80 OFFCURVE",
"167 -164 OFFCURVE",
"7 -166 CURVE",
"7 -235 LINE",
"201 -235 OFFCURVE",
"317 -138 OFFCURVE",
"317 93 CURVE SMOOTH"
);
}
);
width = 377;
}
);
note = parenright;
unicode = 0029;
},
{
glyphname = slash;
lastChange = "2020-07-28 15:47:08 +0000";
layers = (
{
layerId = "83CEB4AC-2A3F-4494-A887-C39963512B94";
paths = (
{
closed = 1;
nodes = (
"294 700 LINE",
"0 -200 LINE",
"79 -200 LINE",
"373 700 LINE"
);
}
);
width = 370;
},
{
layerId = "8F42668C-F186-4E73-94E7-C31CD8308E50";
paths = (
{
closed = 1;
nodes = (
"294 700 LINE",
"0 -200 LINE",
"79 -200 LINE",
"373 700 LINE"
);
}
);
width = 370;
}
);
note = slash;
unicode = 002F;
},
{
glyphname = bar;
lastChange = "2020-07-28 15:47:08 +0000";
layers = (
{
layerId = "83CEB4AC-2A3F-4494-A887-C39963512B94";
paths = (
{
closed = 1;
nodes = (
"159 806 LINE",
"80 806 LINE",
"80 -246 LINE",
"159 -246 LINE"
);
}
);
width = 240;
},
{
layerId = "8F42668C-F186-4E73-94E7-C31CD8308E50";
paths = (
{
closed = 1;
nodes = (
"159 806 LINE",
"80 806 LINE",
"80 -246 LINE",
"159 -246 LINE"
);
}
);
width = 240;
}
);
note = bar;
unicode = 007C;
},
{
glyphname = brokenbar;
lastChange = "2020-07-28 15:47:08 +0000";
layers = (
{
layerId = "83CEB4AC-2A3F-4494-A887-C39963512B94";
paths = (
{
closed = 1;
nodes = (
"159 366 LINE",
"159 806 LINE",
"80 806 LINE",
"80 366 LINE"
);
},
{
closed = 1;
nodes = (
"80 194 LINE",
"80 -246 LINE",
"159 -246 LINE",
"159 194 LINE"
);
}
);
width = 240;
},
{
layerId = "8F42668C-F186-4E73-94E7-C31CD8308E50";
paths = (
{
closed = 1;
nodes = (
"159 366 LINE",
"159 806 LINE",
"80 806 LINE",
"80 366 LINE"
);
},
{
closed = 1;
nodes = (
"80 194 LINE",
"80 -246 LINE",
"159 -246 LINE",
"159 194 LINE"
);
}
);
width = 240;
}
);
note = brokenbar;
unicode = 00A6;
},
{
glyphname = backslash;
lastChange = "2020-07-28 15:47:08 +0000";
layers = (
{
layerId = "83CEB4AC-2A3F-4494-A887-C39963512B94";
paths = (
{
closed = 1;
nodes = (
"77 700 LINE",
"-3 700 LINE",
"291 -200 LINE",
"371 -200 LINE"
);
}
);
width = 370;
},
{
layerId = "8F42668C-F186-4E73-94E7-C31CD8308E50";
paths = (
{
closed = 1;
nodes = (
"77 700 LINE",
"-3 700 LINE",
"291 -200 LINE",
"371 -200 LINE"
);
}
);
width = 370;
}
);
note = backslash;
unicode = 005C;
},
{
glyphname = quotesingle;
lastChange = "2020-07-28 15:47:08 +0000";
layers = (
{
layerId = "83CEB4AC-2A3F-4494-A887-C39963512B94";
paths = (
{
closed = 1;
nodes = (
"58 612 OFFCURVE",
"87 585 OFFCURVE",
"126 585 CURVE SMOOTH",
"140 585 LINE",
"140 553 LINE SMOOTH",
"140 528 OFFCURVE",
"129 517 OFFCURVE",
"104 517 CURVE SMOOTH",
"75 517 LINE",
"75 468 LINE",
"107 468 LINE SMOOTH",
"165 468 OFFCURVE",
"193 496 OFFCURVE",
"193 554 CURVE SMOOTH",
"193 646 LINE SMOOTH",
"193 686 OFFCURVE",
"164 714 OFFCURVE",
"126 714 CURVE SMOOTH",
"87 714 OFFCURVE",
"58 687 OFFCURVE",
"58 649 CURVE SMOOTH"
);
}
);
width = 251;
},
{
layerId = "8F42668C-F186-4E73-94E7-C31CD8308E50";
paths = (
{
closed = 1;
nodes = (
"58 612 OFFCURVE",
"87 585 OFFCURVE",
"126 585 CURVE SMOOTH",
"140 585 LINE",
"140 553 LINE SMOOTH",
"140 528 OFFCURVE",
"129 517 OFFCURVE",
"104 517 CURVE SMOOTH",
"75 517 LINE",
"75 468 LINE",
"107 468 LINE SMOOTH",
"165 468 OFFCURVE",
"193 496 OFFCURVE",
"193 554 CURVE SMOOTH",
"193 646 LINE SMOOTH",
"193 686 OFFCURVE",
"164 714 OFFCURVE",
"126 714 CURVE SMOOTH",
"87 714 OFFCURVE",
"58 687 OFFCURVE",
"58 649 CURVE SMOOTH"
);
}
);
width = 251;
}
);
leftKerningGroup = quotesingle;
note = quotesingle;
rightKerningGroup = quotesingle;
unicode = 0027;
},
{
glyphname = quotedbl;
lastChange = "2020-07-28 15:47:08 +0000";
layers = (
{
layerId = "83CEB4AC-2A3F-4494-A887-C39963512B94";
paths = (
{
closed = 1;
nodes = (
"58 612 OFFCURVE",
"87 585 OFFCURVE",
"126 585 CURVE SMOOTH",
"140 585 LINE",
"140 553 LINE SMOOTH",
"140 528 OFFCURVE",
"129 517 OFFCURVE",
"104 517 CURVE SMOOTH",
"75 517 LINE",
"75 468 LINE",
"107 468 LINE SMOOTH",
"165 468 OFFCURVE",
"193 496 OFFCURVE",
"193 554 CURVE SMOOTH",
"193 646 LINE SMOOTH",
"193 686 OFFCURVE",
"164 714 OFFCURVE",
"126 714 CURVE SMOOTH",
"87 714 OFFCURVE",
"58 687 OFFCURVE",
"58 649 CURVE SMOOTH"
);
},
{
closed = 1;
nodes = (
"231 612 OFFCURVE",
"260 585 OFFCURVE",
"299 585 CURVE SMOOTH",
"313 585 LINE",
"313 553 LINE SMOOTH",
"313 528 OFFCURVE",
"302 517 OFFCURVE",
"277 517 CURVE SMOOTH",
"249 517 LINE",
"249 468 LINE",
"281 468 LINE SMOOTH",
"338 468 OFFCURVE",
"366 496 OFFCURVE",
"366 554 CURVE SMOOTH",
"366 646 LINE SMOOTH",
"366 686 OFFCURVE",
"337 714 OFFCURVE",
"299 714 CURVE SMOOTH",
"260 714 OFFCURVE",
"231 687 OFFCURVE",
"231 649 CURVE SMOOTH"
);
}
);
width = 425;
},
{
layerId = "8F42668C-F186-4E73-94E7-C31CD8308E50";
paths = (
{
closed = 1;
nodes = (
"58 612 OFFCURVE",
"87 585 OFFCURVE",
"126 585 CURVE SMOOTH",
"140 585 LINE",
"140 553 LINE SMOOTH",
"140 528 OFFCURVE",
"129 517 OFFCURVE",
"104 517 CURVE SMOOTH",
"75 517 LINE",
"75 468 LINE",
"107 468 LINE SMOOTH",
"165 468 OFFCURVE",
"193 496 OFFCURVE",
"193 554 CURVE SMOOTH",
"193 646 LINE SMOOTH",
"193 686 OFFCURVE",
"164 714 OFFCURVE",
"126 714 CURVE SMOOTH",
"87 714 OFFCURVE",
"58 687 OFFCURVE",
"58 649 CURVE SMOOTH"
);
},
{
closed = 1;
nodes = (
"231 612 OFFCURVE",
"260 585 OFFCURVE",
"299 585 CURVE SMOOTH",
"313 585 LINE",
"313 553 LINE SMOOTH",
"313 528 OFFCURVE",
"302 517 OFFCURVE",
"277 517 CURVE SMOOTH",
"249 517 LINE",
"249 468 LINE",
"281 468 LINE SMOOTH",
"338 468 OFFCURVE",
"366 496 OFFCURVE",
"366 554 CURVE SMOOTH",
"366 646 LINE SMOOTH",
"366 686 OFFCURVE",
"337 714 OFFCURVE",
"299 714 CURVE SMOOTH",
"260 714 OFFCURVE",
"231 687 OFFCURVE",
"231 649 CURVE SMOOTH"
);
}
);
width = 425;
}
);
leftKerningGroup = quotesingle;
note = quotedbl;
rightKerningGroup = quotesingle;
unicode = 0022;
},
{
glyphname = quoteleft;
lastChange = "2020-07-28 15:47:08 +0000";
layers = (
{
layerId = "83CEB4AC-2A3F-4494-A887-C39963512B94";
paths = (
{
closed = 1;
nodes = (
"193 570 OFFCURVE",
"164 596 OFFCURVE",
"126 596 CURVE SMOOTH",
"112 596 LINE",
"112 628 LINE SMOOTH",
"112 653 OFFCURVE",
"123 664 OFFCURVE",
"148 664 CURVE SMOOTH",
"176 664 LINE",
"176 714 LINE",
"144 714 LINE SMOOTH",
"86 714 OFFCURVE",
"58 686 OFFCURVE",
"58 628 CURVE SMOOTH",
"58 535 LINE SMOOTH",
"58 496 OFFCURVE",
"87 468 OFFCURVE",
"126 468 CURVE SMOOTH",
"164 468 OFFCURVE",
"193 495 OFFCURVE",
"193 533 CURVE SMOOTH"
);
}
);
width = 251;
},
{
layerId = "8F42668C-F186-4E73-94E7-C31CD8308E50";
paths = (
{
closed = 1;
nodes = (
"193 570 OFFCURVE",
"164 596 OFFCURVE",
"126 596 CURVE SMOOTH",
"112 596 LINE",
"112 628 LINE SMOOTH",
"112 653 OFFCURVE",
"123 664 OFFCURVE",
"148 664 CURVE SMOOTH",
"176 664 LINE",
"176 714 LINE",
"144 714 LINE SMOOTH",
"86 714 OFFCURVE",
"58 686 OFFCURVE",
"58 628 CURVE SMOOTH",
"58 535 LINE SMOOTH",
"58 496 OFFCURVE",
"87 468 OFFCURVE",
"126 468 CURVE SMOOTH",
"164 468 OFFCURVE",
"193 495 OFFCURVE",
"193 533 CURVE SMOOTH"
);
}
);
width = 251;
}
);
leftKerningGroup = quotesingle;
note = quoteleft;
rightKerningGroup = quotesingle;
unicode = 2018;
},
{
glyphname = quoteright;
lastChange = "2020-07-28 15:47:08 +0000";
layers = (
{
layerId = "83CEB4AC-2A3F-4494-A887-C39963512B94";
paths = (
{
closed = 1;
nodes = (
"58 612 OFFCURVE",
"87 585 OFFCURVE",
"126 585 CURVE SMOOTH",
"140 585 LINE",
"140 553 LINE SMOOTH",
"140 528 OFFCURVE",
"129 517 OFFCURVE",
"104 517 CURVE SMOOTH",
"75 517 LINE",
"75 468 LINE",
"107 468 LINE SMOOTH",
"165 468 OFFCURVE",
"193 496 OFFCURVE",
"193 554 CURVE SMOOTH",
"193 646 LINE SMOOTH",
"193 686 OFFCURVE",
"164 714 OFFCURVE",
"126 714 CURVE SMOOTH",
"87 714 OFFCURVE",
"58 687 OFFCURVE",
"58 649 CURVE SMOOTH"
);
}
);
width = 251;
},
{
layerId = "8F42668C-F186-4E73-94E7-C31CD8308E50";
paths = (
{
closed = 1;
nodes = (
"58 612 OFFCURVE",
"87 585 OFFCURVE",
"126 585 CURVE SMOOTH",
"140 585 LINE",
"140 553 LINE SMOOTH",
"140 528 OFFCURVE",
"129 517 OFFCURVE",
"104 517 CURVE SMOOTH",
"75 517 LINE",
"75 468 LINE",
"107 468 LINE SMOOTH",
"165 468 OFFCURVE",
"193 496 OFFCURVE",
"193 554 CURVE SMOOTH",
"193 646 LINE SMOOTH",
"193 686 OFFCURVE",
"164 714 OFFCURVE",
"126 714 CURVE SMOOTH",
"87 714 OFFCURVE",
"58 687 OFFCURVE",
"58 649 CURVE SMOOTH"
);
}
);
width = 251;
}
);
leftKerningGroup = quotesingle;
note = quoteright;
rightKerningGroup = quotesingle;
unicode = 2019;
},
{
glyphname = quotedblleft;
lastChange = "2020-07-28 15:47:08 +0000";
layers = (
{
layerId = "83CEB4AC-2A3F-4494-A887-C39963512B94";
paths = (
{
closed = 1;
nodes = (
"366 570 OFFCURVE",
"337 596 OFFCURVE",
"299 596 CURVE SMOOTH",
"285 596 LINE",
"285 628 LINE SMOOTH",
"285 653 OFFCURVE",
"296 664 OFFCURVE",
"321 664 CURVE SMOOTH",
"349 664 LINE",
"349 714 LINE",
"317 714 LINE SMOOTH",
"259 714 OFFCURVE",
"231 686 OFFCURVE",
"231 628 CURVE SMOOTH",
"231 535 LINE SMOOTH",
"231 496 OFFCURVE",
"260 468 OFFCURVE",
"299 468 CURVE SMOOTH",
"337 468 OFFCURVE",
"366 495 OFFCURVE",
"366 533 CURVE SMOOTH"
);
},
{
closed = 1;
nodes = (
"193 570 OFFCURVE",
"164 596 OFFCURVE",
"126 596 CURVE SMOOTH",
"112 596 LINE",
"112 628 LINE SMOOTH",
"112 653 OFFCURVE",
"123 664 OFFCURVE",
"148 664 CURVE SMOOTH",
"176 664 LINE",
"176 714 LINE",
"144 714 LINE SMOOTH",
"86 714 OFFCURVE",
"58 686 OFFCURVE",
"58 628 CURVE SMOOTH",
"58 535 LINE SMOOTH",
"58 496 OFFCURVE",
"87 468 OFFCURVE",
"126 468 CURVE SMOOTH",
"164 468 OFFCURVE",
"193 495 OFFCURVE",
"193 533 CURVE SMOOTH"
);
}
);
width = 425;
},
{
layerId = "8F42668C-F186-4E73-94E7-C31CD8308E50";
paths = (
{
closed = 1;
nodes = (
"366 570 OFFCURVE",
"337 596 OFFCURVE",
"299 596 CURVE SMOOTH",
"285 596 LINE",
"285 628 LINE SMOOTH",
"285 653 OFFCURVE",
"296 664 OFFCURVE",
"321 664 CURVE SMOOTH",
"349 664 LINE",
"349 714 LINE",
"317 714 LINE SMOOTH",
"259 714 OFFCURVE",
"231 686 OFFCURVE",
"231 628 CURVE SMOOTH",
"231 535 LINE SMOOTH",
"231 496 OFFCURVE",
"260 468 OFFCURVE",
"299 468 CURVE SMOOTH",
"337 468 OFFCURVE",
"366 495 OFFCURVE",
"366 533 CURVE SMOOTH"
);
},
{
closed = 1;
nodes = (
"193 570 OFFCURVE",
"164 596 OFFCURVE",
"126 596 CURVE SMOOTH",
"112 596 LINE",
"112 628 LINE SMOOTH",
"112 653 OFFCURVE",
"123 664 OFFCURVE",
"148 664 CURVE SMOOTH",
"176 664 LINE",
"176 714 LINE",
"144 714 LINE SMOOTH",
"86 714 OFFCURVE",
"58 686 OFFCURVE",
"58 628 CURVE SMOOTH",
"58 535 LINE SMOOTH",
"58 496 OFFCURVE",
"87 468 OFFCURVE",
"126 468 CURVE SMOOTH",
"164 468 OFFCURVE",
"193 495 OFFCURVE",
"193 533 CURVE SMOOTH"
);
}
);
width = 425;
}
);
leftKerningGroup = quotesingle;
note = quotedblleft;
rightKerningGroup = quotesingle;
unicode = 201C;
},
{
glyphname = quotedblright;
lastChange = "2020-07-28 15:47:08 +0000";
layers = (
{
layerId = "83CEB4AC-2A3F-4494-A887-C39963512B94";
paths = (
{
closed = 1;
nodes = (
"58 612 OFFCURVE",
"87 585 OFFCURVE",
"126 585 CURVE SMOOTH",
"140 585 LINE",
"140 553 LINE SMOOTH",
"140 528 OFFCURVE",
"129 517 OFFCURVE",
"104 517 CURVE SMOOTH",
"75 517 LINE",
"75 468 LINE",
"107 468 LINE SMOOTH",
"165 468 OFFCURVE",
"193 496 OFFCURVE",
"193 554 CURVE SMOOTH",
"193 646 LINE SMOOTH",
"193 686 OFFCURVE",
"164 714 OFFCURVE",
"126 714 CURVE SMOOTH",
"87 714 OFFCURVE",
"58 687 OFFCURVE",
"58 649 CURVE SMOOTH"
);
},
{
closed = 1;
nodes = (
"231 612 OFFCURVE",
"260 585 OFFCURVE",
"299 585 CURVE SMOOTH",
"313 585 LINE",
"313 553 LINE SMOOTH",
"313 528 OFFCURVE",
"302 517 OFFCURVE",
"277 517 CURVE SMOOTH",
"249 517 LINE",
"249 468 LINE",
"281 468 LINE SMOOTH",
"338 468 OFFCURVE",
"366 496 OFFCURVE",
"366 554 CURVE SMOOTH",
"366 646 LINE SMOOTH",
"366 686 OFFCURVE",
"337 714 OFFCURVE",
"299 714 CURVE SMOOTH",
"260 714 OFFCURVE",
"231 687 OFFCURVE",
"231 649 CURVE SMOOTH"
);
}
);
width = 425;
},
{
layerId = "8F42668C-F186-4E73-94E7-C31CD8308E50";
paths = (
{
closed = 1;
nodes = (
"58 612 OFFCURVE",
"87 585 OFFCURVE",
"126 585 CURVE SMOOTH",
"140 585 LINE",
"140 553 LINE SMOOTH",
"140 528 OFFCURVE",
"129 517 OFFCURVE",
"104 517 CURVE SMOOTH",
"75 517 LINE",
"75 468 LINE",
"107 468 LINE SMOOTH",
"165 468 OFFCURVE",
"193 496 OFFCURVE",
"193 554 CURVE SMOOTH",
"193 646 LINE SMOOTH",
"193 686 OFFCURVE",
"164 714 OFFCURVE",
"126 714 CURVE SMOOTH",
"87 714 OFFCURVE",
"58 687 OFFCURVE",
"58 649 CURVE SMOOTH"
);
},
{
closed = 1;
nodes = (
"231 612 OFFCURVE",
"260 585 OFFCURVE",
"299 585 CURVE SMOOTH",
"313 585 LINE",
"313 553 LINE SMOOTH",
"313 528 OFFCURVE",
"302 517 OFFCURVE",
"277 517 CURVE SMOOTH",
"249 517 LINE",
"249 468 LINE",
"281 468 LINE SMOOTH",
"338 468 OFFCURVE",
"366 496 OFFCURVE",
"366 554 CURVE SMOOTH",
"366 646 LINE SMOOTH",
"366 686 OFFCURVE",
"337 714 OFFCURVE",
"299 714 CURVE SMOOTH",
"260 714 OFFCURVE",
"231 687 OFFCURVE",
"231 649 CURVE SMOOTH"
);
}
);
width = 425;
}
);
leftKerningGroup = quotesingle;
note = quotedblright;
rightKerningGroup = quotesingle;
unicode = 201D;
},
{
glyphname = quotesinglbase;
lastChange = "2020-07-28 15:47:08 +0000";
layers = (
{
layerId = "83CEB4AC-2A3F-4494-A887-C39963512B94";
paths = (
{
closed = 1;
nodes = (
"58 19 OFFCURVE",
"87 -7 OFFCURVE",
"126 -7 CURVE SMOOTH",
"140 -7 LINE",
"140 -39 LINE SMOOTH",
"140 -64 OFFCURVE",
"129 -75 OFFCURVE",
"104 -75 CURVE SMOOTH",
"75 -75 LINE",
"75 -125 LINE",
"107 -125 LINE SMOOTH",
"165 -125 OFFCURVE",
"193 -97 OFFCURVE",
"193 -39 CURVE SMOOTH",
"193 54 LINE SMOOTH",
"193 93 OFFCURVE",
"164 121 OFFCURVE",
"126 121 CURVE SMOOTH",
"87 121 OFFCURVE",
"58 94 OFFCURVE",
"58 56 CURVE SMOOTH"
);
}
);
width = 251;
},
{
layerId = "8F42668C-F186-4E73-94E7-C31CD8308E50";
paths = (
{
closed = 1;
nodes = (
"58 19 OFFCURVE",
"87 -7 OFFCURVE",
"126 -7 CURVE SMOOTH",
"140 -7 LINE",
"140 -39 LINE SMOOTH",
"140 -64 OFFCURVE",
"129 -75 OFFCURVE",
"104 -75 CURVE SMOOTH",
"75 -75 LINE",
"75 -125 LINE",
"107 -125 LINE SMOOTH",
"165 -125 OFFCURVE",
"193 -97 OFFCURVE",
"193 -39 CURVE SMOOTH",
"193 54 LINE SMOOTH",
"193 93 OFFCURVE",
"164 121 OFFCURVE",
"126 121 CURVE SMOOTH",
"87 121 OFFCURVE",
"58 94 OFFCURVE",
"58 56 CURVE SMOOTH"
);
}
);
width = 251;
}
);
leftKerningGroup = quotesinglbase;
note = quotesinglbase;
rightKerningGroup = quotesinglbase;
unicode = 201A;
},
{
glyphname = quotedblbase;
lastChange = "2020-07-28 15:47:08 +0000";
layers = (
{
layerId = "83CEB4AC-2A3F-4494-A887-C39963512B94";
paths = (
{
closed = 1;
nodes = (
"58 19 OFFCURVE",
"87 -7 OFFCURVE",
"126 -7 CURVE SMOOTH",
"140 -7 LINE",
"140 -39 LINE SMOOTH",
"140 -64 OFFCURVE",
"129 -75 OFFCURVE",
"104 -75 CURVE SMOOTH",
"75 -75 LINE",
"75 -125 LINE",
"107 -125 LINE SMOOTH",
"165 -125 OFFCURVE",
"193 -97 OFFCURVE",
"193 -39 CURVE SMOOTH",
"193 54 LINE SMOOTH",
"193 93 OFFCURVE",
"164 121 OFFCURVE",
"126 121 CURVE SMOOTH",
"87 121 OFFCURVE",
"58 94 OFFCURVE",
"58 56 CURVE SMOOTH"
);
},
{
closed = 1;
nodes = (
"231 19 OFFCURVE",
"260 -7 OFFCURVE",
"299 -7 CURVE SMOOTH",
"313 -7 LINE",
"313 -39 LINE SMOOTH",
"313 -64 OFFCURVE",
"302 -75 OFFCURVE",
"277 -75 CURVE SMOOTH",
"249 -75 LINE",
"249 -125 LINE",
"281 -125 LINE SMOOTH",
"338 -125 OFFCURVE",
"366 -97 OFFCURVE",
"366 -39 CURVE SMOOTH",
"366 54 LINE SMOOTH",
"366 93 OFFCURVE",
"337 121 OFFCURVE",
"299 121 CURVE SMOOTH",
"260 121 OFFCURVE",
"231 94 OFFCURVE",
"231 56 CURVE SMOOTH"
);
}
);
width = 425;
},
{
layerId = "8F42668C-F186-4E73-94E7-C31CD8308E50";
paths = (
{
closed = 1;
nodes = (
"58 19 OFFCURVE",
"87 -7 OFFCURVE",
"126 -7 CURVE SMOOTH",
"140 -7 LINE",
"140 -39 LINE SMOOTH",
"140 -64 OFFCURVE",
"129 -75 OFFCURVE",
"104 -75 CURVE SMOOTH",
"75 -75 LINE",
"75 -125 LINE",
"107 -125 LINE SMOOTH",
"165 -125 OFFCURVE",
"193 -97 OFFCURVE",
"193 -39 CURVE SMOOTH",
"193 54 LINE SMOOTH",
"193 93 OFFCURVE",
"164 121 OFFCURVE",
"126 121 CURVE SMOOTH",
"87 121 OFFCURVE",
"58 94 OFFCURVE",
"58 56 CURVE SMOOTH"
);
},
{
closed = 1;
nodes = (
"231 19 OFFCURVE",
"260 -7 OFFCURVE",
"299 -7 CURVE SMOOTH",
"313 -7 LINE",
"313 -39 LINE SMOOTH",
"313 -64 OFFCURVE",
"302 -75 OFFCURVE",
"277 -75 CURVE SMOOTH",
"249 -75 LINE",
"249 -125 LINE",
"281 -125 LINE SMOOTH",
"338 -125 OFFCURVE",
"366 -97 OFFCURVE",
"366 -39 CURVE SMOOTH",
"366 54 LINE SMOOTH",
"366 93 OFFCURVE",
"337 121 OFFCURVE",
"299 121 CURVE SMOOTH",
"260 121 OFFCURVE",
"231 94 OFFCURVE",
"231 56 CURVE SMOOTH"
);
}
);
width = 425;
}
);
leftKerningGroup = quotesinglbase;
note = quotedblbase;
rightKerningGroup = quotesinglbase;
unicode = 201E;
},
{
glyphname = period;
lastChange = "2020-07-28 15:47:08 +0000";
layers = (
{
layerId = "83CEB4AC-2A3F-4494-A887-C39963512B94";
paths = (
{
closed = 1;
nodes = (
"58 14 OFFCURVE",
"87 -14 OFFCURVE",
"126 -14 CURVE SMOOTH",
"165 -14 OFFCURVE",
"194 14 OFFCURVE",
"194 54 CURVE SMOOTH",
"194 94 OFFCURVE",
"165 122 OFFCURVE",
"126 122 CURVE SMOOTH",
"87 122 OFFCURVE",
"58 94 OFFCURVE",
"58 54 CURVE SMOOTH"
);
}
);
width = 253;
},
{
layerId = "8F42668C-F186-4E73-94E7-C31CD8308E50";
paths = (
{
closed = 1;
nodes = (
"58 14 OFFCURVE",
"87 -14 OFFCURVE",
"126 -14 CURVE SMOOTH",
"165 -14 OFFCURVE",
"194 14 OFFCURVE",
"194 54 CURVE SMOOTH",
"194 94 OFFCURVE",
"165 122 OFFCURVE",
"126 122 CURVE SMOOTH",
"87 122 OFFCURVE",
"58 94 OFFCURVE",
"58 54 CURVE SMOOTH"
);
}
);
width = 253;
}
);
leftKerningGroup = quotesinglbase;
note = period;
rightKerningGroup = quotesinglbase;
unicode = 002E;
},
{
glyphname = comma;
lastChange = "2020-07-28 15:47:08 +0000";
layers = (
{
layerId = "83CEB4AC-2A3F-4494-A887-C39963512B94";
paths = (
{
closed = 1;
nodes = (
"58 19 OFFCURVE",
"87 -7 OFFCURVE",
"126 -7 CURVE SMOOTH",
"140 -7 LINE",
"140 -39 LINE SMOOTH",
"140 -64 OFFCURVE",
"129 -75 OFFCURVE",
"104 -75 CURVE SMOOTH",
"75 -75 LINE",
"75 -125 LINE",
"107 -125 LINE SMOOTH",
"165 -125 OFFCURVE",
"193 -97 OFFCURVE",
"193 -39 CURVE SMOOTH",
"193 54 LINE SMOOTH",
"193 93 OFFCURVE",
"164 121 OFFCURVE",
"126 121 CURVE SMOOTH",
"87 121 OFFCURVE",
"58 94 OFFCURVE",
"58 56 CURVE SMOOTH"
);
}
);
width = 251;
},
{
layerId = "8F42668C-F186-4E73-94E7-C31CD8308E50";
paths = (
{
closed = 1;
nodes = (
"58 19 OFFCURVE",
"87 -7 OFFCURVE",
"126 -7 CURVE SMOOTH",
"140 -7 LINE",
"140 -39 LINE SMOOTH",
"140 -64 OFFCURVE",
"129 -75 OFFCURVE",
"104 -75 CURVE SMOOTH",
"75 -75 LINE",
"75 -125 LINE",
"107 -125 LINE SMOOTH",
"165 -125 OFFCURVE",
"193 -97 OFFCURVE",
"193 -39 CURVE SMOOTH",
"193 54 LINE SMOOTH",
"193 93 OFFCURVE",
"164 121 OFFCURVE",
"126 121 CURVE SMOOTH",
"87 121 OFFCURVE",
"58 94 OFFCURVE",
"58 56 CURVE SMOOTH"
);
}
);
width = 251;
}
);
leftKerningGroup = quotesinglbase;
note = comma;
rightKerningGroup = quotesinglbase;
unicode = 002C;
},
{
glyphname = colon;
lastChange = "2020-07-28 15:47:08 +0000";
layers = (
{
layerId = "83CEB4AC-2A3F-4494-A887-C39963512B94";
paths = (
{
closed = 1;
nodes = (
"58 395 OFFCURVE",
"87 367 OFFCURVE",
"126 367 CURVE SMOOTH",
"165 367 OFFCURVE",
"194 395 OFFCURVE",
"194 435 CURVE SMOOTH",
"194 475 OFFCURVE",
"165 503 OFFCURVE",
"126 503 CURVE SMOOTH",
"87 503 OFFCURVE",
"58 475 OFFCURVE",
"58 435 CURVE SMOOTH"
);
},
{
closed = 1;
nodes = (
"58 14 OFFCURVE",
"87 -14 OFFCURVE",
"126 -14 CURVE SMOOTH",
"165 -14 OFFCURVE",
"194 14 OFFCURVE",
"194 54 CURVE SMOOTH",
"194 94 OFFCURVE",
"165 122 OFFCURVE",
"126 122 CURVE SMOOTH",
"87 122 OFFCURVE",
"58 94 OFFCURVE",
"58 54 CURVE SMOOTH"
);
}
);
width = 253;
},
{
layerId = "8F42668C-F186-4E73-94E7-C31CD8308E50";
paths = (
{
closed = 1;
nodes = (
"58 395 OFFCURVE",
"87 367 OFFCURVE",
"126 367 CURVE SMOOTH",
"165 367 OFFCURVE",
"194 395 OFFCURVE",
"194 435 CURVE SMOOTH",
"194 475 OFFCURVE",
"165 503 OFFCURVE",
"126 503 CURVE SMOOTH",
"87 503 OFFCURVE",
"58 475 OFFCURVE",
"58 435 CURVE SMOOTH"
);
},
{
closed = 1;
nodes = (
"58 14 OFFCURVE",
"87 -14 OFFCURVE",
"126 -14 CURVE SMOOTH",
"165 -14 OFFCURVE",
"194 14 OFFCURVE",
"194 54 CURVE SMOOTH",
"194 94 OFFCURVE",
"165 122 OFFCURVE",
"126 122 CURVE SMOOTH",
"87 122 OFFCURVE",
"58 94 OFFCURVE",
"58 54 CURVE SMOOTH"
);
}
);
width = 253;
}
);
note = colon;
unicode = 003A;
},
{
glyphname = semicolon;
lastChange = "2020-07-28 15:47:08 +0000";
layers = (
{
layerId = "83CEB4AC-2A3F-4494-A887-C39963512B94";
paths = (
{
closed = 1;
nodes = (
"58 395 OFFCURVE",
"87 367 OFFCURVE",
"126 367 CURVE SMOOTH",
"165 367 OFFCURVE",
"194 395 OFFCURVE",
"194 435 CURVE SMOOTH",
"194 475 OFFCURVE",
"165 503 OFFCURVE",
"126 503 CURVE SMOOTH",
"87 503 OFFCURVE",
"58 475 OFFCURVE",
"58 435 CURVE SMOOTH"
);
},
{
closed = 1;
nodes = (
"59 19 OFFCURVE",
"88 -7 OFFCURVE",
"126 -7 CURVE SMOOTH",
"140 -7 LINE",
"140 -39 LINE SMOOTH",
"140 -64 OFFCURVE",
"129 -75 OFFCURVE",
"104 -75 CURVE SMOOTH",
"76 -75 LINE",
"76 -125 LINE",
"108 -125 LINE SMOOTH",
"166 -125 OFFCURVE",
"194 -97 OFFCURVE",
"194 -39 CURVE SMOOTH",
"194 54 LINE SMOOTH",
"194 93 OFFCURVE",
"165 121 OFFCURVE",
"126 121 CURVE SMOOTH",
"88 121 OFFCURVE",
"59 94 OFFCURVE",
"59 56 CURVE SMOOTH"
);
}
);
width = 253;
},
{
layerId = "8F42668C-F186-4E73-94E7-C31CD8308E50";
paths = (
{
closed = 1;
nodes = (
"58 395 OFFCURVE",
"87 367 OFFCURVE",
"126 367 CURVE SMOOTH",
"165 367 OFFCURVE",
"194 395 OFFCURVE",
"194 435 CURVE SMOOTH",
"194 475 OFFCURVE",
"165 503 OFFCURVE",
"126 503 CURVE SMOOTH",
"87 503 OFFCURVE",
"58 475 OFFCURVE",
"58 435 CURVE SMOOTH"
);
},
{
closed = 1;
nodes = (
"59 19 OFFCURVE",
"88 -7 OFFCURVE",
"126 -7 CURVE SMOOTH",
"140 -7 LINE",
"140 -39 LINE SMOOTH",
"140 -64 OFFCURVE",
"129 -75 OFFCURVE",
"104 -75 CURVE SMOOTH",
"76 -75 LINE",
"76 -125 LINE",
"108 -125 LINE SMOOTH",
"166 -125 OFFCURVE",
"194 -97 OFFCURVE",
"194 -39 CURVE SMOOTH",
"194 54 LINE SMOOTH",
"194 93 OFFCURVE",
"165 121 OFFCURVE",
"126 121 CURVE SMOOTH",
"88 121 OFFCURVE",
"59 94 OFFCURVE",
"59 56 CURVE SMOOTH"
);
}
);
width = 253;
}
);
note = semicolon;
unicode = 003B;
},
{
glyphname = ellipsis;
lastChange = "2020-07-28 15:47:08 +0000";
layers = (
{
layerId = "83CEB4AC-2A3F-4494-A887-C39963512B94";
paths = (
{
closed = 1;
nodes = (
"58 14 OFFCURVE",
"87 -14 OFFCURVE",
"126 -14 CURVE SMOOTH",
"165 -14 OFFCURVE",
"194 14 OFFCURVE",
"194 54 CURVE SMOOTH",
"194 94 OFFCURVE",
"165 122 OFFCURVE",
"126 122 CURVE SMOOTH",
"87 122 OFFCURVE",
"58 94 OFFCURVE",
"58 54 CURVE SMOOTH"
);
},
{
closed = 1;
nodes = (
"271 14 OFFCURVE",
"300 -14 OFFCURVE",
"339 -14 CURVE SMOOTH",
"378 -14 OFFCURVE",
"407 14 OFFCURVE",
"407 54 CURVE SMOOTH",
"407 94 OFFCURVE",
"378 122 OFFCURVE",
"339 122 CURVE SMOOTH",
"300 122 OFFCURVE",
"271 94 OFFCURVE",
"271 54 CURVE SMOOTH"
);
},
{
closed = 1;
nodes = (
"484 14 OFFCURVE",
"513 -14 OFFCURVE",
"552 -14 CURVE SMOOTH",
"592 -14 OFFCURVE",
"620 14 OFFCURVE",
"620 54 CURVE SMOOTH",
"620 94 OFFCURVE",
"592 122 OFFCURVE",
"552 122 CURVE SMOOTH",
"513 122 OFFCURVE",
"484 94 OFFCURVE",
"484 54 CURVE SMOOTH"
);
}
);
width = 679;
},
{
layerId = "8F42668C-F186-4E73-94E7-C31CD8308E50";
paths = (
{
closed = 1;
nodes = (
"58 14 OFFCURVE",
"87 -14 OFFCURVE",
"126 -14 CURVE SMOOTH",
"165 -14 OFFCURVE",
"194 14 OFFCURVE",
"194 54 CURVE SMOOTH",
"194 94 OFFCURVE",
"165 122 OFFCURVE",
"126 122 CURVE SMOOTH",
"87 122 OFFCURVE",
"58 94 OFFCURVE",
"58 54 CURVE SMOOTH"
);
},
{
closed = 1;
nodes = (
"271 14 OFFCURVE",
"300 -14 OFFCURVE",
"339 -14 CURVE SMOOTH",
"378 -14 OFFCURVE",
"407 14 OFFCURVE",
"407 54 CURVE SMOOTH",
"407 94 OFFCURVE",
"378 122 OFFCURVE",
"339 122 CURVE SMOOTH",
"300 122 OFFCURVE",
"271 94 OFFCURVE",
"271 54 CURVE SMOOTH"
);
},
{
closed = 1;
nodes = (
"484 14 OFFCURVE",
"513 -14 OFFCURVE",
"552 -14 CURVE SMOOTH",
"592 -14 OFFCURVE",
"620 14 OFFCURVE",
"620 54 CURVE SMOOTH",
"620 94 OFFCURVE",
"592 122 OFFCURVE",
"552 122 CURVE SMOOTH",
"513 122 OFFCURVE",
"484 94 OFFCURVE",
"484 54 CURVE SMOOTH"
);
}
);
width = 679;
}
);
leftKerningGroup = quotesinglbase;
note = ellipsis;
rightKerningGroup = quotesinglbase;
unicode = 2026;
},
{
glyphname = exclam;
lastChange = "2020-07-28 15:47:08 +0000";
layers = (
{
layerId = "83CEB4AC-2A3F-4494-A887-C39963512B94";
paths = (
{
closed = 1;
nodes = (
"86 700 LINE",
"86 187 LINE",
"167 187 LINE",
"167 700 LINE"
);
},
{
closed = 1;
nodes = (
"58 14 OFFCURVE",
"87 -14 OFFCURVE",
"126 -14 CURVE SMOOTH",
"165 -14 OFFCURVE",
"194 14 OFFCURVE",
"194 54 CURVE SMOOTH",
"194 94 OFFCURVE",
"165 122 OFFCURVE",
"126 122 CURVE SMOOTH",
"87 122 OFFCURVE",
"58 94 OFFCURVE",
"58 54 CURVE SMOOTH"
);
}
);
width = 253;
},
{
layerId = "8F42668C-F186-4E73-94E7-C31CD8308E50";
paths = (
{
closed = 1;
nodes = (
"86 700 LINE",
"86 187 LINE",
"167 187 LINE",
"167 700 LINE"
);
},
{
closed = 1;
nodes = (
"58 14 OFFCURVE",
"87 -14 OFFCURVE",
"126 -14 CURVE SMOOTH",
"165 -14 OFFCURVE",
"194 14 OFFCURVE",
"194 54 CURVE SMOOTH",
"194 94 OFFCURVE",
"165 122 OFFCURVE",
"126 122 CURVE SMOOTH",
"87 122 OFFCURVE",
"58 94 OFFCURVE",
"58 54 CURVE SMOOTH"
);
}
);
width = 253;
}
);
note = exclam;
unicode = 0021;
},
{
glyphname = exclamdown;
lastChange = "2020-07-28 15:47:08 +0000";
layers = (
{
layerId = "83CEB4AC-2A3F-4494-A887-C39963512B94";
paths = (
{
closed = 1;
nodes = (
"194 475 OFFCURVE",
"165 503 OFFCURVE",
"126 503 CURVE SMOOTH",
"87 503 OFFCURVE",
"58 475 OFFCURVE",
"58 435 CURVE SMOOTH",
"58 395 OFFCURVE",
"87 367 OFFCURVE",
"126 367 CURVE SMOOTH",
"165 367 OFFCURVE",
"194 395 OFFCURVE",
"194 435 CURVE SMOOTH"
);
},
{
closed = 1;
nodes = (
"167 -200 LINE",
"167 302 LINE",
"86 302 LINE",
"86 -200 LINE"
);
}
);
width = 253;
},
{
layerId = "8F42668C-F186-4E73-94E7-C31CD8308E50";
paths = (
{
closed = 1;
nodes = (
"194 475 OFFCURVE",
"165 503 OFFCURVE",
"126 503 CURVE SMOOTH",
"87 503 OFFCURVE",
"58 475 OFFCURVE",
"58 435 CURVE SMOOTH",
"58 395 OFFCURVE",
"87 367 OFFCURVE",
"126 367 CURVE SMOOTH",
"165 367 OFFCURVE",
"194 395 OFFCURVE",
"194 435 CURVE SMOOTH"
);
},
{
closed = 1;
nodes = (
"167 -200 LINE",
"167 302 LINE",
"86 302 LINE",
"86 -200 LINE"
);
}
);
width = 253;
}
);
note = exclamdown;
unicode = 00A1;
},
{
glyphname = question;
lastChange = "2020-07-28 15:47:08 +0000";
layers = (
{
layerId = "83CEB4AC-2A3F-4494-A887-C39963512B94";
paths = (
{
closed = 1;
nodes = (
"43 466 LINE",
"124 466 LINE",
"124 501 LINE SMOOTH",
"124 597 OFFCURVE",
"202 643 OFFCURVE",
"293 643 CURVE SMOOTH",
"382 643 OFFCURVE",
"452 597 OFFCURVE",
"452 516 CURVE SMOOTH",
"452 442 OFFCURVE",
"411 407 OFFCURVE",
"342 378 CURVE SMOOTH",
"314 366 LINE SMOOTH",
"256 341 OFFCURVE",
"237 309 OFFCURVE",
"237 248 CURVE SMOOTH",
"237 187 LINE",
"320 187 LINE",
"320 247 LINE SMOOTH",
"320 279 OFFCURVE",
"329 294 OFFCURVE",
"355 305 CURVE SMOOTH",
"382 317 LINE SMOOTH",
"463 351 OFFCURVE",
"534 403 OFFCURVE",
"534 516 CURVE SMOOTH",
"534 631 OFFCURVE",
"435 714 OFFCURVE",
"293 714 CURVE SMOOTH",
"149 714 OFFCURVE",
"43 637 OFFCURVE",
"43 501 CURVE SMOOTH"
);
},
{
closed = 1;
nodes = (
"212 14 OFFCURVE",
"241 -14 OFFCURVE",
"280 -14 CURVE SMOOTH",
"319 -14 OFFCURVE",
"348 14 OFFCURVE",
"348 54 CURVE SMOOTH",
"348 94 OFFCURVE",
"319 122 OFFCURVE",
"280 122 CURVE SMOOTH",
"241 122 OFFCURVE",
"212 94 OFFCURVE",
"212 54 CURVE SMOOTH"
);
}
);
width = 580;
},
{
layerId = "8F42668C-F186-4E73-94E7-C31CD8308E50";
paths = (
{
closed = 1;
nodes = (
"43 466 LINE",
"124 466 LINE",
"124 501 LINE SMOOTH",
"124 597 OFFCURVE",
"202 643 OFFCURVE",
"293 643 CURVE SMOOTH",
"382 643 OFFCURVE",
"452 597 OFFCURVE",
"452 516 CURVE SMOOTH",
"452 442 OFFCURVE",
"411 407 OFFCURVE",
"342 378 CURVE SMOOTH",
"314 366 LINE SMOOTH",
"256 341 OFFCURVE",
"237 309 OFFCURVE",
"237 248 CURVE SMOOTH",
"237 187 LINE",
"320 187 LINE",
"320 247 LINE SMOOTH",
"320 279 OFFCURVE",
"329 294 OFFCURVE",
"355 305 CURVE SMOOTH",
"382 317 LINE SMOOTH",
"463 351 OFFCURVE",
"534 403 OFFCURVE",
"534 516 CURVE SMOOTH",
"534 631 OFFCURVE",
"435 714 OFFCURVE",
"293 714 CURVE SMOOTH",
"149 714 OFFCURVE",
"43 637 OFFCURVE",
"43 501 CURVE SMOOTH"
);
},
{
closed = 1;
nodes = (
"212 14 OFFCURVE",
"241 -14 OFFCURVE",
"280 -14 CURVE SMOOTH",
"319 -14 OFFCURVE",
"348 14 OFFCURVE",
"348 54 CURVE SMOOTH",
"348 94 OFFCURVE",
"319 122 OFFCURVE",
"280 122 CURVE SMOOTH",
"241 122 OFFCURVE",
"212 94 OFFCURVE",
"212 54 CURVE SMOOTH"
);
}
);
width = 580;
}
);
note = question;
unicode = 003F;
},
{
glyphname = questiondown;
lastChange = "2020-07-28 15:47:08 +0000";
layers = (
{
layerId = "83CEB4AC-2A3F-4494-A887-C39963512B94";
paths = (
{
closed = 1;
nodes = (
"368 475 OFFCURVE",
"339 503 OFFCURVE",
"300 503 CURVE SMOOTH",
"261 503 OFFCURVE",
"232 475 OFFCURVE",
"232 435 CURVE SMOOTH",
"232 395 OFFCURVE",
"261 367 OFFCURVE",
"300 367 CURVE SMOOTH",
"339 367 OFFCURVE",
"368 395 OFFCURVE",
"368 435 CURVE SMOOTH"
);
},
{
closed = 1;
nodes = (
"538 33 LINE",
"456 33 LINE",
"456 -3 LINE SMOOTH",
"456 -98 OFFCURVE",
"378 -145 OFFCURVE",
"287 -145 CURVE SMOOTH",
"198 -145 OFFCURVE",
"128 -99 OFFCURVE",
"128 -17 CURVE SMOOTH",
"128 57 OFFCURVE",
"170 90 OFFCURVE",
"238 120 CURVE SMOOTH",
"266 133 LINE SMOOTH",
"324 159 OFFCURVE",
"343 189 OFFCURVE",
"343 251 CURVE SMOOTH",
"343 302 LINE",
"260 302 LINE",
"260 252 LINE SMOOTH",
"260 219 OFFCURVE",
"251 205 OFFCURVE",
"226 194 CURVE SMOOTH",
"198 182 LINE SMOOTH",
"118 146 OFFCURVE",
"46 96 OFFCURVE",
"46 -17 CURVE SMOOTH",
"46 -132 OFFCURVE",
"145 -215 OFFCURVE",
"287 -215 CURVE SMOOTH",
"431 -215 OFFCURVE",
"538 -139 OFFCURVE",
"538 -3 CURVE SMOOTH"
);
}
);
width = 580;
},
{
layerId = "8F42668C-F186-4E73-94E7-C31CD8308E50";
paths = (
{
closed = 1;
nodes = (
"368 475 OFFCURVE",
"339 503 OFFCURVE",
"300 503 CURVE SMOOTH",
"261 503 OFFCURVE",
"232 475 OFFCURVE",
"232 435 CURVE SMOOTH",
"232 395 OFFCURVE",
"261 367 OFFCURVE",
"300 367 CURVE SMOOTH",
"339 367 OFFCURVE",
"368 395 OFFCURVE",
"368 435 CURVE SMOOTH"
);
},
{
closed = 1;
nodes = (
"538 33 LINE",
"456 33 LINE",
"456 -3 LINE SMOOTH",
"456 -98 OFFCURVE",
"378 -145 OFFCURVE",
"287 -145 CURVE SMOOTH",
"198 -145 OFFCURVE",
"128 -99 OFFCURVE",
"128 -17 CURVE SMOOTH",
"128 57 OFFCURVE",
"170 90 OFFCURVE",
"238 120 CURVE SMOOTH",
"266 133 LINE SMOOTH",
"324 159 OFFCURVE",
"343 189 OFFCURVE",
"343 251 CURVE SMOOTH",
"343 302 LINE",
"260 302 LINE",
"260 252 LINE SMOOTH",
"260 219 OFFCURVE",
"251 205 OFFCURVE",
"226 194 CURVE SMOOTH",
"198 182 LINE SMOOTH",
"118 146 OFFCURVE",
"46 96 OFFCURVE",
"46 -17 CURVE SMOOTH",
"46 -132 OFFCURVE",
"145 -215 OFFCURVE",
"287 -215 CURVE SMOOTH",
"431 -215 OFFCURVE",
"538 -139 OFFCURVE",
"538 -3 CURVE SMOOTH"
);
}
);
width = 580;
}
);
note = questiondown;
unicode = 00BF;
},
{
glyphname = guilsinglleft;
lastChange = "2020-07-28 15:47:08 +0000";
layers = (
{
layerId = "83CEB4AC-2A3F-4494-A887-C39963512B94";
paths = (
{
closed = 1;
nodes = (
"52 294 LINE",
"52 200 LINE",
"386 22 LINE",
"392 22 LINE",
"392 106 LINE",
"130 241 LINE",
"130 253 LINE",
"392 389 LINE",
"392 473 LINE",
"386 473 LINE"
);
}
);
width = 462;
},
{
layerId = "8F42668C-F186-4E73-94E7-C31CD8308E50";
paths = (
{
closed = 1;
nodes = (
"52 294 LINE",
"52 200 LINE",
"386 22 LINE",
"392 22 LINE",
"392 106 LINE",
"130 241 LINE",
"130 253 LINE",
"392 389 LINE",
"392 473 LINE",
"386 473 LINE"
);
}
);
width = 462;
}
);
note = guilsinglleft;
unicode = 2039;
},
{
glyphname = guilsinglright;
lastChange = "2020-07-28 15:47:08 +0000";
layers = (
{
layerId = "83CEB4AC-2A3F-4494-A887-C39963512B94";
paths = (
{
closed = 1;
nodes = (
"410 294 LINE",
"75 473 LINE",
"69 473 LINE",
"69 389 LINE",
"332 253 LINE",
"332 241 LINE",
"69 106 LINE",
"69 22 LINE",
"75 22 LINE",
"410 200 LINE"
);
}
);
width = 462;
},
{
layerId = "8F42668C-F186-4E73-94E7-C31CD8308E50";
paths = (
{
closed = 1;
nodes = (
"410 294 LINE",
"75 473 LINE",
"69 473 LINE",
"69 389 LINE",
"332 253 LINE",
"332 241 LINE",
"69 106 LINE",
"69 22 LINE",
"75 22 LINE",
"410 200 LINE"
);
}
);
width = 462;
}
);
note = guilsinglright;
unicode = 203A;
},
{
glyphname = hyphen;
lastChange = "2020-07-28 15:47:08 +0000";
layers = (
{
layerId = "83CEB4AC-2A3F-4494-A887-C39963512B94";
paths = (
{
closed = 1;
nodes = (
"79 221 LINE",
"375 221 LINE",
"375 294 LINE",
"79 294 LINE"
);
}
);
width = 455;
},
{
layerId = "8F42668C-F186-4E73-94E7-C31CD8308E50";
paths = (
{
closed = 1;
nodes = (
"79 221 LINE",
"375 221 LINE",
"375 294 LINE",
"79 294 LINE"
);
}
);
width = 455;
}
);
leftKerningGroup = hyphen;
note = hyphen;
rightKerningGroup = hyphen;
unicode = 002D;
},
{
glyphname = endash;
lastChange = "2020-07-28 15:47:08 +0000";
layers = (
{
layerId = "83CEB4AC-2A3F-4494-A887-C39963512B94";
paths = (
{
closed = 1;
nodes = (
"79 221 LINE",
"527 221 LINE",
"527 294 LINE",
"79 294 LINE"
);
}
);
width = 607;
},
{
layerId = "8F42668C-F186-4E73-94E7-C31CD8308E50";
paths = (
{
closed = 1;
nodes = (
"79 221 LINE",
"527 221 LINE",
"527 294 LINE",
"79 294 LINE"
);
}
);
width = 607;
}
);
leftKerningGroup = hyphen;
note = endash;
rightKerningGroup = hyphen;
unicode = 2013;
},
{
glyphname = emdash;
lastChange = "2020-07-28 15:51:29 +0000";
layers = (
{
layerId = "83CEB4AC-2A3F-4494-A887-C39963512B94";
paths = (
{
closed = 1;
nodes = (
"12 224 LINE",
"600 224 LINE",
"600 296 LINE",
"12 296 LINE"
);
}
);
width = 612;
},
{
layerId = "8F42668C-F186-4E73-94E7-C31CD8308E50";
paths = (
{
closed = 1;
nodes = (
"79 221 LINE",
"831 221 LINE",
"831 294 LINE",
"79 294 LINE"
);
}
);
width = 911;
}
);
leftKerningGroup = hyphen;
note = emdash;
rightKerningGroup = hyphen;
unicode = 2014;
},
{
glyphname = periodcentered;
lastChange = "2020-07-28 15:47:08 +0000";
layers = (
{
layerId = "83CEB4AC-2A3F-4494-A887-C39963512B94";
paths = (
{
closed = 1;
nodes = (
"58 217 OFFCURVE",
"87 189 OFFCURVE",
"126 189 CURVE SMOOTH",
"165 189 OFFCURVE",
"194 217 OFFCURVE",
"194 257 CURVE SMOOTH",
"194 297 OFFCURVE",
"165 325 OFFCURVE",
"126 325 CURVE SMOOTH",
"87 325 OFFCURVE",
"58 297 OFFCURVE",
"58 257 CURVE SMOOTH"
);
}
);
width = 253;
},
{
layerId = "8F42668C-F186-4E73-94E7-C31CD8308E50";
paths = (
{
closed = 1;
nodes = (
"58 217 OFFCURVE",
"87 189 OFFCURVE",
"126 189 CURVE SMOOTH",
"165 189 OFFCURVE",
"194 217 OFFCURVE",
"194 257 CURVE SMOOTH",
"194 297 OFFCURVE",
"165 325 OFFCURVE",
"126 325 CURVE SMOOTH",
"87 325 OFFCURVE",
"58 297 OFFCURVE",
"58 257 CURVE SMOOTH"
);
}
);
width = 253;
}
);
note = periodcentered;
unicode = 00B7;
},
{
glyphname = bullet;
lastChange = "2020-07-28 15:47:08 +0000";
layers = (
{
layerId = "83CEB4AC-2A3F-4494-A887-C39963512B94";
paths = (
{
closed = 1;
nodes = (
"60 282 OFFCURVE",
"113 232 OFFCURVE",
"180 232 CURVE SMOOTH",
"247 232 OFFCURVE",
"300 281 OFFCURVE",
"300 350 CURVE SMOOTH",
"300 418 OFFCURVE",
"248 468 OFFCURVE",
"180 468 CURVE SMOOTH",
"112 468 OFFCURVE",
"60 418 OFFCURVE",
"60 350 CURVE SMOOTH"
);
}
);
width = 360;
},
{
layerId = "8F42668C-F186-4E73-94E7-C31CD8308E50";
paths = (
{
closed = 1;
nodes = (
"60 282 OFFCURVE",
"113 232 OFFCURVE",
"180 232 CURVE SMOOTH",
"247 232 OFFCURVE",
"300 281 OFFCURVE",
"300 350 CURVE SMOOTH",
"300 418 OFFCURVE",
"248 468 OFFCURVE",
"180 468 CURVE SMOOTH",
"112 468 OFFCURVE",
"60 418 OFFCURVE",
"60 350 CURVE SMOOTH"
);
}
);
width = 360;
}
);
note = bullet;
unicode = 2022;
},
{
glyphname = underscore;
lastChange = "2020-07-28 15:47:08 +0000";
layers = (
{
layerId = "83CEB4AC-2A3F-4494-A887-C39963512B94";
paths = (
{
closed = 1;
nodes = (
"77 -122 LINE",
"543 -122 LINE",
"543 -49 LINE",
"77 -49 LINE"
);
}
);
width = 620;
},
{
layerId = "8F42668C-F186-4E73-94E7-C31CD8308E50";
paths = (
{
closed = 1;
nodes = (
"77 -122 LINE",
"543 -122 LINE",
"543 -49 LINE",
"77 -49 LINE"
);
}
);
width = 620;
}
);
note = underscore;
unicode = 005F;
},
{
glyphname = at;
lastChange = "2020-07-28 15:47:08 +0000";
layers = (
{
layerId = "83CEB4AC-2A3F-4494-A887-C39963512B94";
paths = (
{
closed = 1;
nodes = (
"77 242 LINE SMOOTH",
"77 -39 OFFCURVE",
"264 -200 OFFCURVE",
"532 -200 CURVE SMOOTH",
"732 -200 LINE",
"732 -129 LINE",
"536 -129 LINE SMOOTH",
"309 -129 OFFCURVE",
"156 -1 OFFCURVE",
"156 244 CURVE SMOOTH",
"156 260 LINE SMOOTH",
"156 505 OFFCURVE",
"298 633 OFFCURVE",
"517 633 CURVE SMOOTH",
"534 633 LINE SMOOTH",
"746 633 OFFCURVE",
"874 506 OFFCURVE",
"874 285 CURVE SMOOTH",
"874 257 LINE SMOOTH",
"874 123 OFFCURVE",
"844 69 OFFCURVE",
"769 69 CURVE SMOOTH",
"757 69 LINE SMOOTH",
"739 69 OFFCURVE",
"732 76 OFFCURVE",
"732 96 CURVE SMOOTH",
"732 484 LINE",
"655 484 LINE",
"655 414 LINE",
"641 414 LINE",
"621 452 OFFCURVE",
"584 496 OFFCURVE",
"494 496 CURVE SMOOTH",
"377 496 OFFCURVE",
"291 392 OFFCURVE",
"291 251 CURVE SMOOTH",
"291 233 LINE SMOOTH",
"291 93 OFFCURVE",
"378 -12 OFFCURVE",
"497 -12 CURVE SMOOTH",
"589 -12 OFFCURVE",
"628 36 OFFCURVE",
"645 78 CURVE",
"659 78 LINE",
"659 68 LINE SMOOTH",
"659 26 OFFCURVE",
"687 0 OFFCURVE",
"742 0 CURVE SMOOTH",
"775 0 LINE SMOOTH",
"889 0 OFFCURVE",
"953 83 OFFCURVE",
"953 253 CURVE SMOOTH",
"953 287 LINE SMOOTH",
"953 546 OFFCURVE",
"783 704 OFFCURVE",
"535 704 CURVE SMOOTH",
"514 704 LINE SMOOTH",
"253 704 OFFCURVE",
"77 544 OFFCURVE",
"77 263 CURVE SMOOTH"
);
},
{
closed = 1;
nodes = (
"369 248 LINE SMOOTH",
"369 357 OFFCURVE",
"428 426 OFFCURVE",
"512 426 CURVE SMOOTH",
"596 426 OFFCURVE",
"655 359 OFFCURVE",
"655 247 CURVE SMOOTH",
"655 237 LINE SMOOTH",
"655 125 OFFCURVE",
"596 59 OFFCURVE",
"512 59 CURVE SMOOTH",
"428 59 OFFCURVE",
"369 128 OFFCURVE",
"369 236 CURVE SMOOTH"
);
}
);
width = 1026;
},
{
layerId = "8F42668C-F186-4E73-94E7-C31CD8308E50";
paths = (
{
closed = 1;
nodes = (
"77 242 LINE SMOOTH",
"77 -39 OFFCURVE",
"264 -200 OFFCURVE",
"532 -200 CURVE SMOOTH",
"732 -200 LINE",
"732 -129 LINE",
"536 -129 LINE SMOOTH",
"309 -129 OFFCURVE",
"156 -1 OFFCURVE",
"156 244 CURVE SMOOTH",
"156 260 LINE SMOOTH",
"156 505 OFFCURVE",
"298 633 OFFCURVE",
"517 633 CURVE SMOOTH",
"534 633 LINE SMOOTH",
"746 633 OFFCURVE",
"874 506 OFFCURVE",
"874 285 CURVE SMOOTH",
"874 257 LINE SMOOTH",
"874 123 OFFCURVE",
"844 69 OFFCURVE",
"769 69 CURVE SMOOTH",
"757 69 LINE SMOOTH",
"739 69 OFFCURVE",
"732 76 OFFCURVE",
"732 96 CURVE SMOOTH",
"732 484 LINE",
"655 484 LINE",
"655 414 LINE",
"641 414 LINE",
"621 452 OFFCURVE",
"584 496 OFFCURVE",
"494 496 CURVE SMOOTH",
"377 496 OFFCURVE",
"291 392 OFFCURVE",
"291 251 CURVE SMOOTH",
"291 233 LINE SMOOTH",
"291 93 OFFCURVE",
"378 -12 OFFCURVE",
"497 -12 CURVE SMOOTH",
"589 -12 OFFCURVE",
"628 36 OFFCURVE",
"645 78 CURVE",
"659 78 LINE",
"659 68 LINE SMOOTH",
"659 26 OFFCURVE",
"687 0 OFFCURVE",
"742 0 CURVE SMOOTH",
"775 0 LINE SMOOTH",
"889 0 OFFCURVE",
"953 83 OFFCURVE",
"953 253 CURVE SMOOTH",
"953 287 LINE SMOOTH",
"953 546 OFFCURVE",
"783 704 OFFCURVE",
"535 704 CURVE SMOOTH",
"514 704 LINE SMOOTH",
"253 704 OFFCURVE",
"77 544 OFFCURVE",
"77 263 CURVE SMOOTH"
);
},
{
closed = 1;
nodes = (
"369 248 LINE SMOOTH",
"369 357 OFFCURVE",
"428 426 OFFCURVE",
"512 426 CURVE SMOOTH",
"596 426 OFFCURVE",
"655 359 OFFCURVE",
"655 247 CURVE SMOOTH",
"655 237 LINE SMOOTH",
"655 125 OFFCURVE",
"596 59 OFFCURVE",
"512 59 CURVE SMOOTH",
"428 59 OFFCURVE",
"369 128 OFFCURVE",
"369 236 CURVE SMOOTH"
);
}
);
width = 1026;
}
);
note = at;
unicode = 0040;
},
{
glyphname = ampersand;
lastChange = "2020-07-28 15:47:08 +0000";
layers = (
{
layerId = "83CEB4AC-2A3F-4494-A887-C39963512B94";
paths = (
{
closed = 1;
nodes = (
"380 700 LINE",
"254 700 LINE SMOOTH",
"142 700 OFFCURVE",
"50 635 OFFCURVE",
"50 514 CURVE SMOOTH",
"50 427 OFFCURVE",
"102 379 OFFCURVE",
"164 360 CURVE",
"164 349 LINE",
"102 327 OFFCURVE",
"44 273 OFFCURVE",
"44 185 CURVE SMOOTH",
"44 67 OFFCURVE",
"134 0 OFFCURVE",
"250 0 CURVE SMOOTH",
"481 0 LINE",
"481 319 LINE",
"579 319 LINE",
"579 388 LINE",
"481 388 LINE",
"481 495 LINE",
"402 495 LINE",
"402 388 LINE",
"264 388 LINE SMOOTH",
"192 388 OFFCURVE",
"131 424 OFFCURVE",
"131 509 CURVE SMOOTH",
"131 592 OFFCURVE",
"190 632 OFFCURVE",
"264 632 CURVE SMOOTH",
"380 632 LINE"
);
},
{
closed = 1;
nodes = (
"402 319 LINE",
"402 69 LINE",
"260 69 LINE SMOOTH",
"186 69 OFFCURVE",
"124 108 OFFCURVE",
"124 194 CURVE SMOOTH",
"124 279 OFFCURVE",
"184 319 OFFCURVE",
"260 319 CURVE SMOOTH"
);
}
);
width = 604;
},
{
layerId = "8F42668C-F186-4E73-94E7-C31CD8308E50";
paths = (
{
closed = 1;
nodes = (
"380 700 LINE",
"254 700 LINE SMOOTH",
"142 700 OFFCURVE",
"50 635 OFFCURVE",
"50 514 CURVE SMOOTH",
"50 427 OFFCURVE",
"102 379 OFFCURVE",
"164 360 CURVE",
"164 349 LINE",
"102 327 OFFCURVE",
"44 273 OFFCURVE",
"44 185 CURVE SMOOTH",
"44 67 OFFCURVE",
"134 0 OFFCURVE",
"250 0 CURVE SMOOTH",
"481 0 LINE",
"481 319 LINE",
"579 319 LINE",
"579 388 LINE",
"481 388 LINE",
"481 495 LINE",
"402 495 LINE",
"402 388 LINE",
"264 388 LINE SMOOTH",
"192 388 OFFCURVE",
"131 424 OFFCURVE",
"131 509 CURVE SMOOTH",
"131 592 OFFCURVE",
"190 632 OFFCURVE",
"264 632 CURVE SMOOTH",
"380 632 LINE"
);
},
{
closed = 1;
nodes = (
"402 319 LINE",
"402 69 LINE",
"260 69 LINE SMOOTH",
"186 69 OFFCURVE",
"124 108 OFFCURVE",
"124 194 CURVE SMOOTH",
"124 279 OFFCURVE",
"184 319 OFFCURVE",
"260 319 CURVE SMOOTH"
);
}
);
width = 604;
}
);
note = ampersand;
unicode = 0026;
},
{
glyphname = asterisk;
lastChange = "2020-07-28 15:47:08 +0000";
layers = (
{
layerId = "83CEB4AC-2A3F-4494-A887-C39963512B94";
paths = (
{
closed = 1;
nodes = (
"233 274 LINE",
"287 274 LINE",
"287 359 LINE",
"278 428 LINE",
"282 429 OFFCURVE",
"285 431 OFFCURVE",
"289 433 CURVE",
"332 377 LINE",
"392 317 LINE",
"430 355 LINE",
"370 415 LINE",
"314 458 LINE",
"316 461 OFFCURVE",
"318 465 OFFCURVE",
"319 469 CURVE",
"388 460 LINE",
"473 460 LINE",
"473 514 LINE",
"388 514 LINE",
"319 505 LINE",
"318 509 OFFCURVE",
"316 512 OFFCURVE",
"314 516 CURVE",
"370 558 LINE",
"430 619 LINE",
"392 656 LINE",
"332 596 LINE",
"289 541 LINE",
"286 543 OFFCURVE",
"282 544 OFFCURVE",
"278 546 CURVE",
"287 615 LINE",
"287 700 LINE",
"233 700 LINE",
"233 615 LINE",
"242 546 LINE",
"238 544 OFFCURVE",
"235 543 OFFCURVE",
"231 541 CURVE",
"188 596 LINE",
"128 656 LINE",
"90 619 LINE",
"150 558 LINE",
"206 516 LINE",
"204 512 OFFCURVE",
"202 509 OFFCURVE",
"201 505 CURVE",
"132 514 LINE",
"47 514 LINE",
"47 460 LINE",
"132 460 LINE",
"201 469 LINE",
"203 465 OFFCURVE",
"204 461 OFFCURVE",
"206 458 CURVE",
"150 415 LINE",
"90 355 LINE",
"128 317 LINE",
"188 377 LINE",
"231 433 LINE",
"235 431 OFFCURVE",
"238 429 OFFCURVE",
"242 428 CURVE",
"233 359 LINE"
);
}
);
width = 520;
},
{
layerId = "8F42668C-F186-4E73-94E7-C31CD8308E50";
paths = (
{
closed = 1;
nodes = (
"233 274 LINE",
"287 274 LINE",
"287 359 LINE",
"278 428 LINE",
"282 429 OFFCURVE",
"285 431 OFFCURVE",
"289 433 CURVE",
"332 377 LINE",
"392 317 LINE",
"430 355 LINE",
"370 415 LINE",
"314 458 LINE",
"316 461 OFFCURVE",
"318 465 OFFCURVE",
"319 469 CURVE",
"388 460 LINE",
"473 460 LINE",
"473 514 LINE",
"388 514 LINE",
"319 505 LINE",
"318 509 OFFCURVE",
"316 512 OFFCURVE",
"314 516 CURVE",
"370 558 LINE",
"430 619 LINE",
"392 656 LINE",
"332 596 LINE",
"289 541 LINE",
"286 543 OFFCURVE",
"282 544 OFFCURVE",
"278 546 CURVE",
"287 615 LINE",
"287 700 LINE",
"233 700 LINE",
"233 615 LINE",
"242 546 LINE",
"238 544 OFFCURVE",
"235 543 OFFCURVE",
"231 541 CURVE",
"188 596 LINE",
"128 656 LINE",
"90 619 LINE",
"150 558 LINE",
"206 516 LINE",
"204 512 OFFCURVE",
"202 509 OFFCURVE",
"201 505 CURVE",
"132 514 LINE",
"47 514 LINE",
"47 460 LINE",
"132 460 LINE",
"201 469 LINE",
"203 465 OFFCURVE",
"204 461 OFFCURVE",
"206 458 CURVE",
"150 415 LINE",
"90 355 LINE",
"128 317 LINE",
"188 377 LINE",
"231 433 LINE",
"235 431 OFFCURVE",
"238 429 OFFCURVE",
"242 428 CURVE",
"233 359 LINE"
);
}
);
width = 520;
}
);
note = asterisk;
unicode = 002A;
},
{
glyphname = Agrave;
lastChange = "2020-07-28 15:47:08 +0000";
layers = (
{
layerId = "83CEB4AC-2A3F-4494-A887-C39963512B94";
paths = (
{
closed = 1;
nodes = (
"304 882 LINE",
"206 882 LINE",
"294 761 LINE",
"371 761 LINE"
);
},
{
closed = 1;
nodes = (
"241 700 LINE",
"25 0 LINE",
"112 0 LINE",
"166 177 LINE",
"464 177 LINE",
"518 0 LINE",
"605 0 LINE",
"389 700 LINE"
);
},
{
closed = 1;
nodes = (
"188 253 LINE",
"308 649 LINE",
"322 649 LINE",
"442 253 LINE"
);
}
);
width = 630;
},
{
layerId = "8F42668C-F186-4E73-94E7-C31CD8308E50";
paths = (
{
closed = 1;
nodes = (
"304 882 LINE",
"206 882 LINE",
"294 761 LINE",
"371 761 LINE"
);
},
{
closed = 1;
nodes = (
"241 700 LINE",
"25 0 LINE",
"112 0 LINE",
"166 177 LINE",
"464 177 LINE",
"518 0 LINE",
"605 0 LINE",
"389 700 LINE"
);
},
{
closed = 1;
nodes = (
"188 253 LINE",
"308 649 LINE",
"322 649 LINE",
"442 253 LINE"
);
}
);
width = 630;
}
);
leftKerningGroup = A;
note = Agrave;
rightKerningGroup = A;
unicode = 00C0;
},
{
glyphname = Aacute;
lastChange = "2020-07-28 15:47:08 +0000";
layers = (
{
layerId = "83CEB4AC-2A3F-4494-A887-C39963512B94";
paths = (
{
closed = 1;
nodes = (
"326 879 LINE",
"259 758 LINE",
"335 758 LINE",
"424 879 LINE"
);
},
{
closed = 1;
nodes = (
"241 700 LINE",
"25 0 LINE",
"112 0 LINE",
"166 177 LINE",
"464 177 LINE",
"518 0 LINE",
"605 0 LINE",
"389 700 LINE"
);
},
{
closed = 1;
nodes = (
"188 253 LINE",
"308 649 LINE",
"322 649 LINE",
"442 253 LINE"
);
}
);
width = 630;
},
{
layerId = "8F42668C-F186-4E73-94E7-C31CD8308E50";
paths = (
{
closed = 1;
nodes = (
"326 879 LINE",
"259 758 LINE",
"335 758 LINE",
"424 879 LINE"
);
},
{
closed = 1;
nodes = (
"241 700 LINE",
"25 0 LINE",
"112 0 LINE",
"166 177 LINE",
"464 177 LINE",
"518 0 LINE",
"605 0 LINE",
"389 700 LINE"
);
},
{
closed = 1;
nodes = (
"188 253 LINE",
"308 649 LINE",
"322 649 LINE",
"442 253 LINE"
);
}
);
width = 630;
}
);
leftKerningGroup = A;
note = Aacute;
rightKerningGroup = A;
unicode = 00C1;
},
{
glyphname = Acircumflex;
lastChange = "2020-07-28 15:47:08 +0000";
layers = (
{
layerId = "83CEB4AC-2A3F-4494-A887-C39963512B94";
paths = (
{
closed = 1;
nodes = (
"393 758 LINE",
"489 758 LINE",
"362 879 LINE",
"267 879 LINE",
"141 758 LINE",
"237 758 LINE",
"308 831 LINE",
"322 831 LINE"
);
},
{
closed = 1;
nodes = (
"241 700 LINE",
"25 0 LINE",
"112 0 LINE",
"166 177 LINE",
"464 177 LINE",
"518 0 LINE",
"605 0 LINE",
"389 700 LINE"
);
},
{
closed = 1;
nodes = (
"188 253 LINE",
"308 649 LINE",
"322 649 LINE",
"442 253 LINE"
);
}
);
width = 630;
},
{
layerId = "8F42668C-F186-4E73-94E7-C31CD8308E50";
paths = (
{
closed = 1;
nodes = (
"393 758 LINE",
"489 758 LINE",
"362 879 LINE",
"267 879 LINE",
"141 758 LINE",
"237 758 LINE",
"308 831 LINE",
"322 831 LINE"
);
},
{
closed = 1;
nodes = (
"241 700 LINE",
"25 0 LINE",
"112 0 LINE",
"166 177 LINE",
"464 177 LINE",
"518 0 LINE",
"605 0 LINE",
"389 700 LINE"
);
},
{
closed = 1;
nodes = (
"188 253 LINE",
"308 649 LINE",
"322 649 LINE",
"442 253 LINE"
);
}
);
width = 630;
}
);
leftKerningGroup = A;
note = Acircumflex;
rightKerningGroup = A;
unicode = 00C2;
},
{
glyphname = Atilde;
lastChange = "2020-07-28 15:47:08 +0000";
layers = (
{
layerId = "83CEB4AC-2A3F-4494-A887-C39963512B94";
paths = (
{
closed = 1;
nodes = (
"149 790 LINE",
"196 758 LINE",
"221 798 LINE SMOOTH",
"230 811 OFFCURVE",
"240 822 OFFCURVE",
"256 822 CURVE SMOOTH",
"272 822 OFFCURVE",
"282 813 OFFCURVE",
"299 795 CURVE SMOOTH",
"325 768 OFFCURVE",
"345 755 OFFCURVE",
"376 755 CURVE SMOOTH",
"411 755 OFFCURVE",
"433 774 OFFCURVE",
"449 799 CURVE SMOOTH",
"481 849 LINE",
"434 881 LINE",
"408 840 LINE SMOOTH",
"399 827 OFFCURVE",
"389 816 OFFCURVE",
"373 816 CURVE SMOOTH",
"358 816 OFFCURVE",
"348 826 OFFCURVE",
"330 844 CURVE SMOOTH",
"304 870 OFFCURVE",
"285 884 OFFCURVE",
"254 884 CURVE SMOOTH",
"219 884 OFFCURVE",
"197 865 OFFCURVE",
"181 840 CURVE SMOOTH"
);
},
{
closed = 1;
nodes = (
"241 700 LINE",
"25 0 LINE",
"112 0 LINE",
"166 177 LINE",
"464 177 LINE",
"518 0 LINE",
"605 0 LINE",
"389 700 LINE"
);
},
{
closed = 1;
nodes = (
"188 253 LINE",
"308 649 LINE",
"322 649 LINE",
"442 253 LINE"
);
}
);
width = 630;
},
{
layerId = "8F42668C-F186-4E73-94E7-C31CD8308E50";
paths = (
{
closed = 1;
nodes = (
"149 790 LINE",
"196 758 LINE",
"221 798 LINE SMOOTH",
"230 811 OFFCURVE",
"240 822 OFFCURVE",
"256 822 CURVE SMOOTH",
"272 822 OFFCURVE",
"282 813 OFFCURVE",
"299 795 CURVE SMOOTH",
"325 768 OFFCURVE",
"345 755 OFFCURVE",
"376 755 CURVE SMOOTH",
"411 755 OFFCURVE",
"433 774 OFFCURVE",
"449 799 CURVE SMOOTH",
"481 849 LINE",
"434 881 LINE",
"408 840 LINE SMOOTH",
"399 827 OFFCURVE",
"389 816 OFFCURVE",
"373 816 CURVE SMOOTH",
"358 816 OFFCURVE",
"348 826 OFFCURVE",
"330 844 CURVE SMOOTH",
"304 870 OFFCURVE",
"285 884 OFFCURVE",
"254 884 CURVE SMOOTH",
"219 884 OFFCURVE",
"197 865 OFFCURVE",
"181 840 CURVE SMOOTH"
);
},
{
closed = 1;
nodes = (
"241 700 LINE",
"25 0 LINE",
"112 0 LINE",
"166 177 LINE",
"464 177 LINE",
"518 0 LINE",
"605 0 LINE",
"389 700 LINE"
);
},
{
closed = 1;
nodes = (
"188 253 LINE",
"308 649 LINE",
"322 649 LINE",
"442 253 LINE"
);
}
);
width = 630;
}
);
leftKerningGroup = A;
note = Atilde;
rightKerningGroup = A;
unicode = 00C3;
},
{
glyphname = Adieresis;
lastChange = "2020-07-28 15:47:08 +0000";
layers = (
{
layerId = "83CEB4AC-2A3F-4494-A887-C39963512B94";
paths = (
{
closed = 1;
nodes = (
"156 784 OFFCURVE",
"181 760 OFFCURVE",
"216 760 CURVE SMOOTH",
"251 760 OFFCURVE",
"276 784 OFFCURVE",
"276 819 CURVE SMOOTH",
"276 855 OFFCURVE",
"251 879 OFFCURVE",
"216 879 CURVE SMOOTH",
"181 879 OFFCURVE",
"156 855 OFFCURVE",
"156 819 CURVE SMOOTH"
);
},
{
closed = 1;
nodes = (
"354 784 OFFCURVE",
"379 760 OFFCURVE",
"414 760 CURVE SMOOTH",
"448 760 OFFCURVE",
"474 784 OFFCURVE",
"474 819 CURVE SMOOTH",
"474 855 OFFCURVE",
"448 879 OFFCURVE",
"414 879 CURVE SMOOTH",
"379 879 OFFCURVE",
"354 855 OFFCURVE",
"354 819 CURVE SMOOTH"
);
},
{
closed = 1;
nodes = (
"241 700 LINE",
"25 0 LINE",
"112 0 LINE",
"166 177 LINE",
"464 177 LINE",
"518 0 LINE",
"605 0 LINE",
"389 700 LINE"
);
},
{
closed = 1;
nodes = (
"188 253 LINE",
"308 649 LINE",
"322 649 LINE",
"442 253 LINE"
);
}
);
width = 630;
},
{
layerId = "8F42668C-F186-4E73-94E7-C31CD8308E50";
paths = (
{
closed = 1;
nodes = (
"156 784 OFFCURVE",
"181 760 OFFCURVE",
"216 760 CURVE SMOOTH",
"251 760 OFFCURVE",
"276 784 OFFCURVE",
"276 819 CURVE SMOOTH",
"276 855 OFFCURVE",
"251 879 OFFCURVE",
"216 879 CURVE SMOOTH",
"181 879 OFFCURVE",
"156 855 OFFCURVE",
"156 819 CURVE SMOOTH"
);
},
{
closed = 1;
nodes = (
"354 784 OFFCURVE",
"379 760 OFFCURVE",
"414 760 CURVE SMOOTH",
"448 760 OFFCURVE",
"474 784 OFFCURVE",
"474 819 CURVE SMOOTH",
"474 855 OFFCURVE",
"448 879 OFFCURVE",
"414 879 CURVE SMOOTH",
"379 879 OFFCURVE",
"354 855 OFFCURVE",
"354 819 CURVE SMOOTH"
);
},
{
closed = 1;
nodes = (
"241 700 LINE",
"25 0 LINE",
"112 0 LINE",
"166 177 LINE",
"464 177 LINE",
"518 0 LINE",
"605 0 LINE",
"389 700 LINE"
);
},
{
closed = 1;
nodes = (
"188 253 LINE",
"308 649 LINE",
"322 649 LINE",
"442 253 LINE"
);
}
);
width = 630;
}
);
leftKerningGroup = A;
note = Adieresis;
rightKerningGroup = A;
unicode = 00C4;
},
{
glyphname = Amacron;
lastChange = "2020-07-28 15:47:08 +0000";
layers = (
{
layerId = "83CEB4AC-2A3F-4494-A887-C39963512B94";
paths = (
{
closed = 1;
nodes = (
"469 836 LINE",
"161 836 LINE",
"161 771 LINE",
"469 771 LINE"
);
},
{
closed = 1;
nodes = (
"241 700 LINE",
"25 0 LINE",
"112 0 LINE",
"166 177 LINE",
"464 177 LINE",
"518 0 LINE",
"605 0 LINE",
"389 700 LINE"
);
},
{
closed = 1;
nodes = (
"188 253 LINE",
"308 649 LINE",
"322 649 LINE",
"442 253 LINE"
);
}
);
width = 630;
},
{
layerId = "8F42668C-F186-4E73-94E7-C31CD8308E50";
paths = (
{
closed = 1;
nodes = (
"469 836 LINE",
"161 836 LINE",
"161 771 LINE",
"469 771 LINE"
);
},
{
closed = 1;
nodes = (
"241 700 LINE",
"25 0 LINE",
"112 0 LINE",
"166 177 LINE",
"464 177 LINE",
"518 0 LINE",
"605 0 LINE",
"389 700 LINE"
);
},
{
closed = 1;
nodes = (
"188 253 LINE",
"308 649 LINE",
"322 649 LINE",
"442 253 LINE"
);
}
);
width = 630;
}
);
leftKerningGroup = A;
note = Amacron;
rightKerningGroup = A;
unicode = 0100;
},
{
glyphname = Abreve;
lastChange = "2020-07-28 15:47:08 +0000";
layers = (
{
layerId = "83CEB4AC-2A3F-4494-A887-C39963512B94";
paths = (
{
closed = 1;
nodes = (
"395 881 LINE",
"395 878 LINE SMOOTH",
"395 836 OFFCURVE",
"370 808 OFFCURVE",
"315 808 CURVE SMOOTH",
"261 808 OFFCURVE",
"235 836 OFFCURVE",
"235 878 CURVE SMOOTH",
"235 881 LINE",
"166 881 LINE",
"166 878 LINE SMOOTH",
"166 803 OFFCURVE",
"220 752 OFFCURVE",
"315 752 CURVE SMOOTH",
"409 752 OFFCURVE",
"465 803 OFFCURVE",
"465 878 CURVE SMOOTH",
"465 881 LINE"
);
},
{
closed = 1;
nodes = (
"241 700 LINE",
"25 0 LINE",
"112 0 LINE",
"166 177 LINE",
"464 177 LINE",
"518 0 LINE",
"605 0 LINE",
"389 700 LINE"
);
},
{
closed = 1;
nodes = (
"188 253 LINE",
"308 649 LINE",
"322 649 LINE",
"442 253 LINE"
);
}
);
width = 630;
},
{
layerId = "8F42668C-F186-4E73-94E7-C31CD8308E50";
paths = (
{
closed = 1;
nodes = (
"395 881 LINE",
"395 878 LINE SMOOTH",
"395 836 OFFCURVE",
"370 808 OFFCURVE",
"315 808 CURVE SMOOTH",
"261 808 OFFCURVE",
"235 836 OFFCURVE",
"235 878 CURVE SMOOTH",
"235 881 LINE",
"166 881 LINE",
"166 878 LINE SMOOTH",
"166 803 OFFCURVE",
"220 752 OFFCURVE",
"315 752 CURVE SMOOTH",
"409 752 OFFCURVE",
"465 803 OFFCURVE",
"465 878 CURVE SMOOTH",
"465 881 LINE"
);
},
{
closed = 1;
nodes = (
"241 700 LINE",
"25 0 LINE",
"112 0 LINE",
"166 177 LINE",
"464 177 LINE",
"518 0 LINE",
"605 0 LINE",
"389 700 LINE"
);
},
{
closed = 1;
nodes = (
"188 253 LINE",
"308 649 LINE",
"322 649 LINE",
"442 253 LINE"
);
}
);
width = 630;
}
);
leftKerningGroup = A;
note = Abreve;
rightKerningGroup = A;
unicode = 0102;
},
{
glyphname = Aring;
lastChange = "2020-07-28 15:47:08 +0000";
layers = (
{
layerId = "83CEB4AC-2A3F-4494-A887-C39963512B94";
paths = (
{
closed = 1;
nodes = (
"217 787 OFFCURVE",
"260 748 OFFCURVE",
"315 748 CURVE SMOOTH",
"370 748 OFFCURVE",
"414 786 OFFCURVE",
"414 844 CURVE SMOOTH",
"414 901 OFFCURVE",
"371 939 OFFCURVE",
"315 939 CURVE SMOOTH",
"259 939 OFFCURVE",
"217 900 OFFCURVE",
"217 844 CURVE SMOOTH"
);
},
{
closed = 1;
nodes = (
"272 869 OFFCURVE",
"289 887 OFFCURVE",
"315 887 CURVE SMOOTH",
"341 887 OFFCURVE",
"358 869 OFFCURVE",
"358 844 CURVE SMOOTH",
"358 819 OFFCURVE",
"341 801 OFFCURVE",
"315 801 CURVE SMOOTH",
"289 801 OFFCURVE",
"272 819 OFFCURVE",
"272 844 CURVE SMOOTH"
);
},
{
closed = 1;
nodes = (
"241 700 LINE",
"25 0 LINE",
"112 0 LINE",
"166 177 LINE",
"464 177 LINE",
"518 0 LINE",
"605 0 LINE",
"389 700 LINE"
);
},
{
closed = 1;
nodes = (
"188 253 LINE",
"308 649 LINE",
"322 649 LINE",
"442 253 LINE"
);
}
);
width = 630;
},
{
layerId = "8F42668C-F186-4E73-94E7-C31CD8308E50";
paths = (
{
closed = 1;
nodes = (
"217 787 OFFCURVE",
"260 748 OFFCURVE",
"315 748 CURVE SMOOTH",
"370 748 OFFCURVE",
"414 786 OFFCURVE",
"414 844 CURVE SMOOTH",
"414 901 OFFCURVE",
"371 939 OFFCURVE",
"315 939 CURVE SMOOTH",
"259 939 OFFCURVE",
"217 900 OFFCURVE",
"217 844 CURVE SMOOTH"
);
},
{
closed = 1;
nodes = (
"272 869 OFFCURVE",
"289 887 OFFCURVE",
"315 887 CURVE SMOOTH",
"341 887 OFFCURVE",
"358 869 OFFCURVE",
"358 844 CURVE SMOOTH",
"358 819 OFFCURVE",
"341 801 OFFCURVE",
"315 801 CURVE SMOOTH",
"289 801 OFFCURVE",
"272 819 OFFCURVE",
"272 844 CURVE SMOOTH"
);
},
{
closed = 1;
nodes = (
"241 700 LINE",
"25 0 LINE",
"112 0 LINE",
"166 177 LINE",
"464 177 LINE",
"518 0 LINE",
"605 0 LINE",
"389 700 LINE"
);
},
{
closed = 1;
nodes = (
"188 253 LINE",
"308 649 LINE",
"322 649 LINE",
"442 253 LINE"
);
}
);
width = 630;
}
);
leftKerningGroup = A;
note = Aring;
rightKerningGroup = A;
unicode = 00C5;
},
{
glyphname = Aogonek;
lastChange = "2020-07-28 15:47:08 +0000";
layers = (
{
layerId = "83CEB4AC-2A3F-4494-A887-C39963512B94";
paths = (
{
closed = 1;
nodes = (
"241 700 LINE",
"25 0 LINE",
"112 0 LINE",
"166 177 LINE",
"464 177 LINE",
"518 0 LINE",
"532 0 LINE",
"523 -39 LINE SMOOTH",
"518 -60 OFFCURVE",
"514 -80 OFFCURVE",
"514 -99 CURVE SMOOTH",
"514 -141 OFFCURVE",
"541 -164 OFFCURVE",
"585 -164 CURVE SMOOTH",
"642 -164 LINE",
"642 -103 LINE",
"600 -103 LINE SMOOTH",
"585 -103 OFFCURVE",
"577 -96 OFFCURVE",
"577 -83 CURVE SMOOTH",
"577 -74 OFFCURVE",
"579 -68 OFFCURVE",
"581 -56 CURVE SMOOTH",
"592 0 LINE",
"605 0 LINE",
"389 700 LINE"
);
},
{
closed = 1;
nodes = (
"188 253 LINE",
"308 649 LINE",
"322 649 LINE",
"442 253 LINE"
);
}
);
width = 630;
},
{
layerId = "8F42668C-F186-4E73-94E7-C31CD8308E50";
paths = (
{
closed = 1;
nodes = (
"241 700 LINE",
"25 0 LINE",
"112 0 LINE",
"166 177 LINE",
"464 177 LINE",
"518 0 LINE",
"532 0 LINE",
"523 -39 LINE SMOOTH",
"518 -60 OFFCURVE",
"514 -80 OFFCURVE",
"514 -99 CURVE SMOOTH",
"514 -141 OFFCURVE",
"541 -164 OFFCURVE",
"585 -164 CURVE SMOOTH",
"642 -164 LINE",
"642 -103 LINE",
"600 -103 LINE SMOOTH",
"585 -103 OFFCURVE",
"577 -96 OFFCURVE",
"577 -83 CURVE SMOOTH",
"577 -74 OFFCURVE",
"579 -68 OFFCURVE",
"581 -56 CURVE SMOOTH",
"592 0 LINE",
"605 0 LINE",
"389 700 LINE"
);
},
{
closed = 1;
nodes = (
"188 253 LINE",
"308 649 LINE",
"322 649 LINE",
"442 253 LINE"
);
}
);
width = 630;
}
);
leftKerningGroup = A;
note = Aogonek;
rightKerningGroup = A;
unicode = 0104;
},
{
glyphname = AE;
lastChange = "2020-07-28 15:47:08 +0000";
layers = (
{
layerId = "83CEB4AC-2A3F-4494-A887-C39963512B94";
paths = (
{
closed = 1;
nodes = (
"388 177 LINE",
"388 0 LINE",
"783 0 LINE",
"783 76 LINE",
"472 76 LINE",
"472 314 LINE",
"751 314 LINE",
"751 390 LINE",
"472 390 LINE",
"472 624 LINE",
"779 624 LINE",
"779 700 LINE",
"310 700 LINE",
"25 0 LINE",
"114 0 LINE",
"185 177 LINE"
);
},
{
closed = 1;
nodes = (
"388 253 LINE",
"214 253 LINE",
"375 653 LINE",
"388 653 LINE"
);
}
);
width = 831;
},
{
layerId = "8F42668C-F186-4E73-94E7-C31CD8308E50";
paths = (
{
closed = 1;
nodes = (
"388 177 LINE",
"388 0 LINE",
"783 0 LINE",
"783 76 LINE",
"472 76 LINE",
"472 314 LINE",
"751 314 LINE",
"751 390 LINE",
"472 390 LINE",
"472 624 LINE",
"779 624 LINE",
"779 700 LINE",
"310 700 LINE",
"25 0 LINE",
"114 0 LINE",
"185 177 LINE"
);
},
{
closed = 1;
nodes = (
"388 253 LINE",
"214 253 LINE",
"375 653 LINE",
"388 653 LINE"
);
}
);
width = 831;
}
);
leftKerningGroup = A;
note = AE;
rightKerningGroup = E;
unicode = 00C6;
},
{
glyphname = Ccedilla;
lastChange = "2020-07-28 15:47:08 +0000";
layers = (
{
layerId = "83CEB4AC-2A3F-4494-A887-C39963512B94";
paths = (
{
closed = 1;
nodes = (
"60 270 LINE SMOOTH",
"60 97 OFFCURVE",
"153 -1 OFFCURVE",
"302 -13 CURVE",
"295 -84 LINE",
"332 -84 LINE SMOOTH",
"363 -84 OFFCURVE",
"381 -95 OFFCURVE",
"381 -116 CURVE SMOOTH",
"381 -140 OFFCURVE",
"360 -150 OFFCURVE",
"332 -150 CURVE SMOOTH",
"301 -150 OFFCURVE",
"275 -139 OFFCURVE",
"253 -126 CURVE",
"229 -176 LINE",
"256 -193 OFFCURVE",
"293 -205 OFFCURVE",
"334 -205 CURVE SMOOTH",
"393 -205 OFFCURVE",
"444 -179 OFFCURVE",
"444 -123 CURVE SMOOTH",
"444 -73 OFFCURVE",
"409 -45 OFFCURVE",
"357 -45 CURVE",
"360 -13 LINE",
"508 -3 OFFCURVE",
"590 93 OFFCURVE",
"590 244 CURVE SMOOTH",
"590 257 LINE",
"507 257 LINE",
"507 241 LINE SMOOTH",
"507 136 OFFCURVE",
"452 61 OFFCURVE",
"333 61 CURVE SMOOTH",
"214 61 OFFCURVE",
"144 138 OFFCURVE",
"144 268 CURVE SMOOTH",
"144 432 LINE SMOOTH",
"144 562 OFFCURVE",
"214 639 OFFCURVE",
"333 639 CURVE SMOOTH",
"452 639 OFFCURVE",
"507 564 OFFCURVE",
"507 459 CURVE SMOOTH",
"507 451 LINE",
"590 451 LINE",
"590 456 LINE SMOOTH",
"590 615 OFFCURVE",
"498 714 OFFCURVE",
"333 714 CURVE SMOOTH",
"167 714 OFFCURVE",
"60 615 OFFCURVE",
"60 430 CURVE SMOOTH"
);
}
);
width = 642;
},
{
layerId = "8F42668C-F186-4E73-94E7-C31CD8308E50";
paths = (
{
closed = 1;
nodes = (
"60 270 LINE SMOOTH",
"60 97 OFFCURVE",
"153 -1 OFFCURVE",
"302 -13 CURVE",
"295 -84 LINE",
"332 -84 LINE SMOOTH",
"363 -84 OFFCURVE",
"381 -95 OFFCURVE",
"381 -116 CURVE SMOOTH",
"381 -140 OFFCURVE",
"360 -150 OFFCURVE",
"332 -150 CURVE SMOOTH",
"301 -150 OFFCURVE",
"275 -139 OFFCURVE",
"253 -126 CURVE",
"229 -176 LINE",
"256 -193 OFFCURVE",
"293 -205 OFFCURVE",
"334 -205 CURVE SMOOTH",
"393 -205 OFFCURVE",
"444 -179 OFFCURVE",
"444 -123 CURVE SMOOTH",
"444 -73 OFFCURVE",
"409 -45 OFFCURVE",
"357 -45 CURVE",
"360 -13 LINE",
"508 -3 OFFCURVE",
"590 93 OFFCURVE",
"590 244 CURVE SMOOTH",
"590 257 LINE",
"507 257 LINE",
"507 241 LINE SMOOTH",
"507 136 OFFCURVE",
"452 61 OFFCURVE",
"333 61 CURVE SMOOTH",
"214 61 OFFCURVE",
"144 138 OFFCURVE",
"144 268 CURVE SMOOTH",
"144 432 LINE SMOOTH",
"144 562 OFFCURVE",
"214 639 OFFCURVE",
"333 639 CURVE SMOOTH",
"452 639 OFFCURVE",
"507 564 OFFCURVE",
"507 459 CURVE SMOOTH",
"507 451 LINE",
"590 451 LINE",
"590 456 LINE SMOOTH",
"590 615 OFFCURVE",
"498 714 OFFCURVE",
"333 714 CURVE SMOOTH",
"167 714 OFFCURVE",
"60 615 OFFCURVE",
"60 430 CURVE SMOOTH"
);
}
);
width = 642;
}
);
leftKerningGroup = C;
note = Ccedilla;
rightKerningGroup = C;
unicode = 00C7;
},
{
glyphname = Cacute;
lastChange = "2020-07-28 15:47:08 +0000";
layers = (
{
layerId = "83CEB4AC-2A3F-4494-A887-C39963512B94";
paths = (
{
closed = 1;
nodes = (
"345 879 LINE",
"277 758 LINE",
"354 758 LINE",
"442 879 LINE"
);
},
{
closed = 1;
nodes = (
"60 270 LINE SMOOTH",
"60 85 OFFCURVE",
"167 -14 OFFCURVE",
"333 -14 CURVE SMOOTH",
"498 -14 OFFCURVE",
"590 85 OFFCURVE",
"590 244 CURVE SMOOTH",
"590 257 LINE",
"507 257 LINE",
"507 241 LINE SMOOTH",
"507 136 OFFCURVE",
"452 61 OFFCURVE",
"333 61 CURVE SMOOTH",
"214 61 OFFCURVE",
"144 138 OFFCURVE",
"144 268 CURVE SMOOTH",
"144 432 LINE SMOOTH",
"144 562 OFFCURVE",
"214 639 OFFCURVE",
"333 639 CURVE SMOOTH",
"452 639 OFFCURVE",
"507 564 OFFCURVE",
"507 459 CURVE SMOOTH",
"507 451 LINE",
"590 451 LINE",
"590 456 LINE SMOOTH",
"590 615 OFFCURVE",
"498 714 OFFCURVE",
"333 714 CURVE SMOOTH",
"167 714 OFFCURVE",
"60 615 OFFCURVE",
"60 430 CURVE SMOOTH"
);
}
);
width = 642;
},
{
layerId = "8F42668C-F186-4E73-94E7-C31CD8308E50";
paths = (
{
closed = 1;
nodes = (
"345 879 LINE",
"277 758 LINE",
"354 758 LINE",
"442 879 LINE"
);
},
{
closed = 1;
nodes = (
"60 270 LINE SMOOTH",
"60 85 OFFCURVE",
"167 -14 OFFCURVE",
"333 -14 CURVE SMOOTH",
"498 -14 OFFCURVE",
"590 85 OFFCURVE",
"590 244 CURVE SMOOTH",
"590 257 LINE",
"507 257 LINE",
"507 241 LINE SMOOTH",
"507 136 OFFCURVE",
"452 61 OFFCURVE",
"333 61 CURVE SMOOTH",
"214 61 OFFCURVE",
"144 138 OFFCURVE",
"144 268 CURVE SMOOTH",
"144 432 LINE SMOOTH",
"144 562 OFFCURVE",
"214 639 OFFCURVE",
"333 639 CURVE SMOOTH",
"452 639 OFFCURVE",
"507 564 OFFCURVE",
"507 459 CURVE SMOOTH",
"507 451 LINE",
"590 451 LINE",
"590 456 LINE SMOOTH",
"590 615 OFFCURVE",
"498 714 OFFCURVE",
"333 714 CURVE SMOOTH",
"167 714 OFFCURVE",
"60 615 OFFCURVE",
"60 430 CURVE SMOOTH"
);
}
);
width = 642;
}
);
leftKerningGroup = C;
note = Cacute;
rightKerningGroup = C;
unicode = 0106;
},
{
glyphname = Ccircumflex;
lastChange = "2020-07-28 15:47:08 +0000";
layers = (
{
layerId = "83CEB4AC-2A3F-4494-A887-C39963512B94";
paths = (
{
closed = 1;
nodes = (
"411 758 LINE",
"508 758 LINE",
"381 879 LINE",
"286 879 LINE",
"159 758 LINE",
"256 758 LINE",
"327 831 LINE",
"340 831 LINE"
);
},
{
closed = 1;
nodes = (
"60 270 LINE SMOOTH",
"60 85 OFFCURVE",
"167 -14 OFFCURVE",
"333 -14 CURVE SMOOTH",
"498 -14 OFFCURVE",
"590 85 OFFCURVE",
"590 244 CURVE SMOOTH",
"590 257 LINE",
"507 257 LINE",
"507 241 LINE SMOOTH",
"507 136 OFFCURVE",
"452 61 OFFCURVE",
"333 61 CURVE SMOOTH",
"214 61 OFFCURVE",
"144 138 OFFCURVE",
"144 268 CURVE SMOOTH",
"144 432 LINE SMOOTH",
"144 562 OFFCURVE",
"214 639 OFFCURVE",
"333 639 CURVE SMOOTH",
"452 639 OFFCURVE",
"507 564 OFFCURVE",
"507 459 CURVE SMOOTH",
"507 451 LINE",
"590 451 LINE",
"590 456 LINE SMOOTH",
"590 615 OFFCURVE",
"498 714 OFFCURVE",
"333 714 CURVE SMOOTH",
"167 714 OFFCURVE",
"60 615 OFFCURVE",
"60 430 CURVE SMOOTH"
);
}
);
width = 642;
},
{
layerId = "8F42668C-F186-4E73-94E7-C31CD8308E50";
paths = (
{
closed = 1;
nodes = (
"411 758 LINE",
"508 758 LINE",
"381 879 LINE",
"286 879 LINE",
"159 758 LINE",
"256 758 LINE",
"327 831 LINE",
"340 831 LINE"
);
},
{
closed = 1;
nodes = (
"60 270 LINE SMOOTH",
"60 85 OFFCURVE",
"167 -14 OFFCURVE",
"333 -14 CURVE SMOOTH",
"498 -14 OFFCURVE",
"590 85 OFFCURVE",
"590 244 CURVE SMOOTH",
"590 257 LINE",
"507 257 LINE",
"507 241 LINE SMOOTH",
"507 136 OFFCURVE",
"452 61 OFFCURVE",
"333 61 CURVE SMOOTH",
"214 61 OFFCURVE",
"144 138 OFFCURVE",
"144 268 CURVE SMOOTH",
"144 432 LINE SMOOTH",
"144 562 OFFCURVE",
"214 639 OFFCURVE",
"333 639 CURVE SMOOTH",
"452 639 OFFCURVE",
"507 564 OFFCURVE",
"507 459 CURVE SMOOTH",
"507 451 LINE",
"590 451 LINE",
"590 456 LINE SMOOTH",
"590 615 OFFCURVE",
"498 714 OFFCURVE",
"333 714 CURVE SMOOTH",
"167 714 OFFCURVE",
"60 615 OFFCURVE",
"60 430 CURVE SMOOTH"
);
}
);
width = 642;
}
);
leftKerningGroup = C;
note = Ccircumflex;
rightKerningGroup = C;
unicode = 0108;
},
{
glyphname = Ccaron;
lastChange = "2020-07-28 15:47:08 +0000";
layers = (
{
layerId = "83CEB4AC-2A3F-4494-A887-C39963512B94";
paths = (
{
closed = 1;
nodes = (
"256 879 LINE",
"159 879 LINE",
"286 758 LINE",
"381 758 LINE",
"508 879 LINE",
"411 879 LINE",
"340 806 LINE",
"327 806 LINE"
);
},
{
closed = 1;
nodes = (
"60 270 LINE SMOOTH",
"60 85 OFFCURVE",
"167 -14 OFFCURVE",
"333 -14 CURVE SMOOTH",
"498 -14 OFFCURVE",
"590 85 OFFCURVE",
"590 244 CURVE SMOOTH",
"590 257 LINE",
"507 257 LINE",
"507 241 LINE SMOOTH",
"507 136 OFFCURVE",
"452 61 OFFCURVE",
"333 61 CURVE SMOOTH",
"214 61 OFFCURVE",
"144 138 OFFCURVE",
"144 268 CURVE SMOOTH",
"144 432 LINE SMOOTH",
"144 562 OFFCURVE",
"214 639 OFFCURVE",
"333 639 CURVE SMOOTH",
"452 639 OFFCURVE",
"507 564 OFFCURVE",
"507 459 CURVE SMOOTH",
"507 451 LINE",
"590 451 LINE",
"590 456 LINE SMOOTH",
"590 615 OFFCURVE",
"498 714 OFFCURVE",
"333 714 CURVE SMOOTH",
"167 714 OFFCURVE",
"60 615 OFFCURVE",
"60 430 CURVE SMOOTH"
);
}
);
width = 642;
},
{
layerId = "8F42668C-F186-4E73-94E7-C31CD8308E50";
paths = (
{
closed = 1;
nodes = (
"256 879 LINE",
"159 879 LINE",
"286 758 LINE",
"381 758 LINE",
"508 879 LINE",
"411 879 LINE",
"340 806 LINE",
"327 806 LINE"
);
},
{
closed = 1;
nodes = (
"60 270 LINE SMOOTH",
"60 85 OFFCURVE",
"167 -14 OFFCURVE",
"333 -14 CURVE SMOOTH",
"498 -14 OFFCURVE",
"590 85 OFFCURVE",
"590 244 CURVE SMOOTH",
"590 257 LINE",
"507 257 LINE",
"507 241 LINE SMOOTH",
"507 136 OFFCURVE",
"452 61 OFFCURVE",
"333 61 CURVE SMOOTH",
"214 61 OFFCURVE",
"144 138 OFFCURVE",
"144 268 CURVE SMOOTH",
"144 432 LINE SMOOTH",
"144 562 OFFCURVE",
"214 639 OFFCURVE",
"333 639 CURVE SMOOTH",
"452 639 OFFCURVE",
"507 564 OFFCURVE",
"507 459 CURVE SMOOTH",
"507 451 LINE",
"590 451 LINE",
"590 456 LINE SMOOTH",
"590 615 OFFCURVE",
"498 714 OFFCURVE",
"333 714 CURVE SMOOTH",
"167 714 OFFCURVE",
"60 615 OFFCURVE",
"60 430 CURVE SMOOTH"
);
}
);
width = 642;
}
);
leftKerningGroup = C;
note = Ccaron;
rightKerningGroup = C;
unicode = 010C;
},
{
glyphname = Cdotaccent;
lastChange = "2020-07-28 15:47:08 +0000";
layers = (
{
layerId = "83CEB4AC-2A3F-4494-A887-C39963512B94";
paths = (
{
closed = 1;
nodes = (
"273 785 OFFCURVE",
"299 760 OFFCURVE",
"333 760 CURVE SMOOTH",
"368 760 OFFCURVE",
"394 785 OFFCURVE",
"394 820 CURVE SMOOTH",
"394 855 OFFCURVE",
"368 880 OFFCURVE",
"333 880 CURVE SMOOTH",
"299 880 OFFCURVE",
"273 855 OFFCURVE",
"273 820 CURVE SMOOTH"
);
},
{
closed = 1;
nodes = (
"60 270 LINE SMOOTH",
"60 85 OFFCURVE",
"167 -14 OFFCURVE",
"333 -14 CURVE SMOOTH",
"498 -14 OFFCURVE",
"590 85 OFFCURVE",
"590 244 CURVE SMOOTH",
"590 257 LINE",
"507 257 LINE",
"507 241 LINE SMOOTH",
"507 136 OFFCURVE",
"452 61 OFFCURVE",
"333 61 CURVE SMOOTH",
"214 61 OFFCURVE",
"144 138 OFFCURVE",
"144 268 CURVE SMOOTH",
"144 432 LINE SMOOTH",
"144 562 OFFCURVE",
"214 639 OFFCURVE",
"333 639 CURVE SMOOTH",
"452 639 OFFCURVE",
"507 564 OFFCURVE",
"507 459 CURVE SMOOTH",
"507 451 LINE",
"590 451 LINE",
"590 456 LINE SMOOTH",
"590 615 OFFCURVE",
"498 714 OFFCURVE",
"333 714 CURVE SMOOTH",
"167 714 OFFCURVE",
"60 615 OFFCURVE",
"60 430 CURVE SMOOTH"
);
}
);
width = 642;
},
{
layerId = "8F42668C-F186-4E73-94E7-C31CD8308E50";
paths = (
{
closed = 1;
nodes = (
"273 785 OFFCURVE",
"299 760 OFFCURVE",
"333 760 CURVE SMOOTH",
"368 760 OFFCURVE",
"394 785 OFFCURVE",
"394 820 CURVE SMOOTH",
"394 855 OFFCURVE",
"368 880 OFFCURVE",
"333 880 CURVE SMOOTH",
"299 880 OFFCURVE",
"273 855 OFFCURVE",
"273 820 CURVE SMOOTH"
);
},
{
closed = 1;
nodes = (
"60 270 LINE SMOOTH",
"60 85 OFFCURVE",
"167 -14 OFFCURVE",
"333 -14 CURVE SMOOTH",
"498 -14 OFFCURVE",
"590 85 OFFCURVE",
"590 244 CURVE SMOOTH",
"590 257 LINE",
"507 257 LINE",
"507 241 LINE SMOOTH",
"507 136 OFFCURVE",
"452 61 OFFCURVE",
"333 61 CURVE SMOOTH",
"214 61 OFFCURVE",
"144 138 OFFCURVE",
"144 268 CURVE SMOOTH",
"144 432 LINE SMOOTH",
"144 562 OFFCURVE",
"214 639 OFFCURVE",
"333 639 CURVE SMOOTH",
"452 639 OFFCURVE",
"507 564 OFFCURVE",
"507 459 CURVE SMOOTH",
"507 451 LINE",
"590 451 LINE",
"590 456 LINE SMOOTH",
"590 615 OFFCURVE",
"498 714 OFFCURVE",
"333 714 CURVE SMOOTH",
"167 714 OFFCURVE",
"60 615 OFFCURVE",
"60 430 CURVE SMOOTH"
);
}
);
width = 642;
}
);
leftKerningGroup = C;
note = Cdotaccent;
rightKerningGroup = C;
unicode = 010A;
},
{
glyphname = Eth;
lastChange = "2020-07-28 15:47:08 +0000";
layers = (
{
layerId = "83CEB4AC-2A3F-4494-A887-C39963512B94";
paths = (
{
closed = 1;
nodes = (
"47 316 LINE",
"145 316 LINE",
"145 75 LINE",
"47 75 LINE",
"47 0 LINE",
"320 0 LINE SMOOTH",
"504 0 OFFCURVE",
"609 91 OFFCURVE",
"609 285 CURVE SMOOTH",
"609 415 LINE SMOOTH",
"609 608 OFFCURVE",
"504 700 OFFCURVE",
"320 700 CURVE SMOOTH",
"47 700 LINE",
"47 625 LINE",
"145 625 LINE",
"145 378 LINE",
"47 378 LINE"
);
},
{
closed = 1;
nodes = (
"229 623 LINE",
"320 623 LINE SMOOTH",
"455 623 OFFCURVE",
"526 560 OFFCURVE",
"526 418 CURVE SMOOTH",
"526 281 LINE SMOOTH",
"526 140 OFFCURVE",
"455 76 OFFCURVE",
"320 76 CURVE SMOOTH",
"229 76 LINE",
"229 316 LINE",
"351 316 LINE",
"351 378 LINE",
"229 378 LINE"
);
}
);
width = 663;
},
{
layerId = "8F42668C-F186-4E73-94E7-C31CD8308E50";
paths = (
{
closed = 1;
nodes = (
"47 316 LINE",
"145 316 LINE",
"145 75 LINE",
"47 75 LINE",
"47 0 LINE",
"320 0 LINE SMOOTH",
"504 0 OFFCURVE",
"609 91 OFFCURVE",
"609 285 CURVE SMOOTH",
"609 415 LINE SMOOTH",
"609 608 OFFCURVE",
"504 700 OFFCURVE",
"320 700 CURVE SMOOTH",
"47 700 LINE",
"47 625 LINE",
"145 625 LINE",
"145 378 LINE",
"47 378 LINE"
);
},
{
closed = 1;
nodes = (
"229 623 LINE",
"320 623 LINE SMOOTH",
"455 623 OFFCURVE",
"526 560 OFFCURVE",
"526 418 CURVE SMOOTH",
"526 281 LINE SMOOTH",
"526 140 OFFCURVE",
"455 76 OFFCURVE",
"320 76 CURVE SMOOTH",
"229 76 LINE",
"229 316 LINE",
"351 316 LINE",
"351 378 LINE",
"229 378 LINE"
);
}
);
width = 663;
}
);
note = Eth;
rightKerningGroup = D;
unicode = 00D0;
},
{
glyphname = Dcaron;
lastChange = "2020-07-28 15:47:08 +0000";
layers = (
{
layerId = "83CEB4AC-2A3F-4494-A887-C39963512B94";
paths = (
{
closed = 1;
nodes = (
"240 879 LINE",
"144 879 LINE",
"270 758 LINE",
"365 758 LINE",
"492 879 LINE",
"396 879 LINE",
"325 806 LINE",
"311 806 LINE"
);
},
{
closed = 1;
nodes = (
"47 700 LINE",
"47 625 LINE",
"145 625 LINE",
"145 75 LINE",
"47 75 LINE",
"47 0 LINE",
"320 0 LINE SMOOTH",
"504 0 OFFCURVE",
"609 91 OFFCURVE",
"609 285 CURVE SMOOTH",
"609 415 LINE SMOOTH",
"609 608 OFFCURVE",
"504 700 OFFCURVE",
"320 700 CURVE SMOOTH"
);
},
{
closed = 1;
nodes = (
"229 623 LINE",
"320 623 LINE SMOOTH",
"455 623 OFFCURVE",
"526 560 OFFCURVE",
"526 418 CURVE SMOOTH",
"526 281 LINE SMOOTH",
"526 140 OFFCURVE",
"455 76 OFFCURVE",
"320 76 CURVE SMOOTH",
"229 76 LINE"
);
}
);
width = 663;
},
{
layerId = "8F42668C-F186-4E73-94E7-C31CD8308E50";
paths = (
{
closed = 1;
nodes = (
"240 879 LINE",
"144 879 LINE",
"270 758 LINE",
"365 758 LINE",
"492 879 LINE",
"396 879 LINE",
"325 806 LINE",
"311 806 LINE"
);
},
{
closed = 1;
nodes = (
"47 700 LINE",
"47 625 LINE",
"145 625 LINE",
"145 75 LINE",
"47 75 LINE",
"47 0 LINE",
"320 0 LINE SMOOTH",
"504 0 OFFCURVE",
"609 91 OFFCURVE",
"609 285 CURVE SMOOTH",
"609 415 LINE SMOOTH",
"609 608 OFFCURVE",
"504 700 OFFCURVE",
"320 700 CURVE SMOOTH"
);
},
{
closed = 1;
nodes = (
"229 623 LINE",
"320 623 LINE SMOOTH",
"455 623 OFFCURVE",
"526 560 OFFCURVE",
"526 418 CURVE SMOOTH",
"526 281 LINE SMOOTH",
"526 140 OFFCURVE",
"455 76 OFFCURVE",
"320 76 CURVE SMOOTH",
"229 76 LINE"
);
}
);
width = 663;
}
);
leftKerningGroup = B;
note = Dcaron;
rightKerningGroup = D;
unicode = 010E;
},
{
glyphname = uni1E0E;
lastChange = "2020-07-28 15:47:08 +0000";
layers = (
{
layerId = "83CEB4AC-2A3F-4494-A887-C39963512B94";
paths = (
{
closed = 1;
nodes = (
"47 700 LINE",
"47 625 LINE",
"145 625 LINE",
"145 75 LINE",
"47 75 LINE",
"47 0 LINE",
"320 0 LINE SMOOTH",
"504 0 OFFCURVE",
"609 91 OFFCURVE",
"609 285 CURVE SMOOTH",
"609 415 LINE SMOOTH",
"609 608 OFFCURVE",
"504 700 OFFCURVE",
"320 700 CURVE SMOOTH"
);
},
{
closed = 1;
nodes = (
"229 623 LINE",
"320 623 LINE SMOOTH",
"455 623 OFFCURVE",
"526 560 OFFCURVE",
"526 418 CURVE SMOOTH",
"526 281 LINE SMOOTH",
"526 140 OFFCURVE",
"455 76 OFFCURVE",
"320 76 CURVE SMOOTH",
"229 76 LINE"
);
},
{
closed = 1;
nodes = (
"472 -86 LINE",
"164 -86 LINE",
"164 -152 LINE",
"472 -152 LINE"
);
}
);
width = 663;
},
{
layerId = "8F42668C-F186-4E73-94E7-C31CD8308E50";
paths = (
{
closed = 1;
nodes = (
"47 700 LINE",
"47 625 LINE",
"145 625 LINE",
"145 75 LINE",
"47 75 LINE",
"47 0 LINE",
"320 0 LINE SMOOTH",
"504 0 OFFCURVE",
"609 91 OFFCURVE",
"609 285 CURVE SMOOTH",
"609 415 LINE SMOOTH",
"609 608 OFFCURVE",
"504 700 OFFCURVE",
"320 700 CURVE SMOOTH"
);
},
{
closed = 1;
nodes = (
"229 623 LINE",
"320 623 LINE SMOOTH",
"455 623 OFFCURVE",
"526 560 OFFCURVE",
"526 418 CURVE SMOOTH",
"526 281 LINE SMOOTH",
"526 140 OFFCURVE",
"455 76 OFFCURVE",
"320 76 CURVE SMOOTH",
"229 76 LINE"
);
},
{
closed = 1;
nodes = (
"472 -86 LINE",
"164 -86 LINE",
"164 -152 LINE",
"472 -152 LINE"
);
}
);
width = 663;
}
);
leftKerningGroup = B;
note = uni1E0E;
rightKerningGroup = D;
unicode = 1E0E;
},
{
glyphname = Dcroat;
lastChange = "2020-07-28 15:47:08 +0000";
layers = (
{
layerId = "83CEB4AC-2A3F-4494-A887-C39963512B94";
paths = (
{
closed = 1;
nodes = (
"47 316 LINE",
"145 316 LINE",
"145 75 LINE",
"47 75 LINE",
"47 0 LINE",
"320 0 LINE SMOOTH",
"504 0 OFFCURVE",
"609 91 OFFCURVE",
"609 285 CURVE SMOOTH",
"609 415 LINE SMOOTH",
"609 608 OFFCURVE",
"504 700 OFFCURVE",
"320 700 CURVE SMOOTH",
"47 700 LINE",
"47 625 LINE",
"145 625 LINE",
"145 378 LINE",
"47 378 LINE"
);
},
{
closed = 1;
nodes = (
"229 623 LINE",
"320 623 LINE SMOOTH",
"455 623 OFFCURVE",
"526 560 OFFCURVE",
"526 418 CURVE SMOOTH",
"526 281 LINE SMOOTH",
"526 140 OFFCURVE",
"455 76 OFFCURVE",
"320 76 CURVE SMOOTH",
"229 76 LINE",
"229 316 LINE",
"351 316 LINE",
"351 378 LINE",
"229 378 LINE"
);
}
);
width = 663;
},
{
layerId = "8F42668C-F186-4E73-94E7-C31CD8308E50";
paths = (
{
closed = 1;
nodes = (
"47 316 LINE",
"145 316 LINE",
"145 75 LINE",
"47 75 LINE",
"47 0 LINE",
"320 0 LINE SMOOTH",
"504 0 OFFCURVE",
"609 91 OFFCURVE",
"609 285 CURVE SMOOTH",
"609 415 LINE SMOOTH",
"609 608 OFFCURVE",
"504 700 OFFCURVE",
"320 700 CURVE SMOOTH",
"47 700 LINE",
"47 625 LINE",
"145 625 LINE",
"145 378 LINE",
"47 378 LINE"
);
},
{
closed = 1;
nodes = (
"229 623 LINE",
"320 623 LINE SMOOTH",
"455 623 OFFCURVE",
"526 560 OFFCURVE",
"526 418 CURVE SMOOTH",
"526 281 LINE SMOOTH",
"526 140 OFFCURVE",
"455 76 OFFCURVE",
"320 76 CURVE SMOOTH",
"229 76 LINE",
"229 316 LINE",
"351 316 LINE",
"351 378 LINE",
"229 378 LINE"
);
}
);
width = 663;
}
);
note = Dcroat;
rightKerningGroup = D;
unicode = 0110;
},
{
glyphname = Egrave;
lastChange = "2020-07-28 15:47:08 +0000";
layers = (
{
layerId = "83CEB4AC-2A3F-4494-A887-C39963512B94";
paths = (
{
closed = 1;
nodes = (
"291 882 LINE",
"193 882 LINE",
"281 761 LINE",
"358 761 LINE"
);
},
{
closed = 1;
nodes = (
"80 700 LINE",
"80 0 LINE",
"516 0 LINE",
"516 76 LINE",
"164 76 LINE",
"164 314 LINE",
"483 314 LINE",
"483 390 LINE",
"164 390 LINE",
"164 624 LINE",
"511 624 LINE",
"511 700 LINE"
);
}
);
width = 563;
},
{
layerId = "8F42668C-F186-4E73-94E7-C31CD8308E50";
paths = (
{
closed = 1;
nodes = (
"291 882 LINE",
"193 882 LINE",
"281 761 LINE",
"358 761 LINE"
);
},
{
closed = 1;
nodes = (
"80 700 LINE",
"80 0 LINE",
"516 0 LINE",
"516 76 LINE",
"164 76 LINE",
"164 314 LINE",
"483 314 LINE",
"483 390 LINE",
"164 390 LINE",
"164 624 LINE",
"511 624 LINE",
"511 700 LINE"
);
}
);
width = 563;
}
);
note = Egrave;
rightKerningGroup = E;
unicode = 00C8;
},
{
glyphname = Eacute;
lastChange = "2020-07-28 15:47:08 +0000";
layers = (
{
layerId = "83CEB4AC-2A3F-4494-A887-C39963512B94";
paths = (
{
closed = 1;
nodes = (
"313 879 LINE",
"246 758 LINE",
"322 758 LINE",
"411 879 LINE"
);
},
{
closed = 1;
nodes = (
"80 700 LINE",
"80 0 LINE",
"516 0 LINE",
"516 76 LINE",
"164 76 LINE",
"164 314 LINE",
"483 314 LINE",
"483 390 LINE",
"164 390 LINE",
"164 624 LINE",
"511 624 LINE",
"511 700 LINE"
);
}
);
width = 563;
},
{
layerId = "8F42668C-F186-4E73-94E7-C31CD8308E50";
paths = (
{
closed = 1;
nodes = (
"313 879 LINE",
"246 758 LINE",
"322 758 LINE",
"411 879 LINE"
);
},
{
closed = 1;
nodes = (
"80 700 LINE",
"80 0 LINE",
"516 0 LINE",
"516 76 LINE",
"164 76 LINE",
"164 314 LINE",
"483 314 LINE",
"483 390 LINE",
"164 390 LINE",
"164 624 LINE",
"511 624 LINE",
"511 700 LINE"
);
}
);
width = 563;
}
);
note = Eacute;
rightKerningGroup = E;
unicode = 00C9;
},
{
glyphname = Ecircumflex;
lastChange = "2020-07-28 15:47:08 +0000";
layers = (
{
layerId = "83CEB4AC-2A3F-4494-A887-C39963512B94";
paths = (
{
closed = 1;
nodes = (
"380 758 LINE",
"476 758 LINE",
"349 879 LINE",
"254 879 LINE",
"127 758 LINE",
"224 758 LINE",
"295 831 LINE",
"309 831 LINE"
);
},
{
closed = 1;
nodes = (
"80 700 LINE",
"80 0 LINE",
"516 0 LINE",
"516 76 LINE",
"164 76 LINE",
"164 314 LINE",
"483 314 LINE",
"483 390 LINE",
"164 390 LINE",
"164 624 LINE",
"511 624 LINE",
"511 700 LINE"
);
}
);
width = 563;
},
{
layerId = "8F42668C-F186-4E73-94E7-C31CD8308E50";
paths = (
{
closed = 1;
nodes = (
"380 758 LINE",
"476 758 LINE",
"349 879 LINE",
"254 879 LINE",
"127 758 LINE",
"224 758 LINE",
"295 831 LINE",
"309 831 LINE"
);
},
{
closed = 1;
nodes = (
"80 700 LINE",
"80 0 LINE",
"516 0 LINE",
"516 76 LINE",
"164 76 LINE",
"164 314 LINE",
"483 314 LINE",
"483 390 LINE",
"164 390 LINE",
"164 624 LINE",
"511 624 LINE",
"511 700 LINE"
);
}
);
width = 563;
}
);
note = Ecircumflex;
rightKerningGroup = E;
unicode = 00CA;
},
{
glyphname = Ecaron;
lastChange = "2020-07-28 15:47:08 +0000";
layers = (
{
layerId = "83CEB4AC-2A3F-4494-A887-C39963512B94";
paths = (
{
closed = 1;
nodes = (
"224 879 LINE",
"127 879 LINE",
"254 758 LINE",
"349 758 LINE",
"476 879 LINE",
"380 879 LINE",
"309 806 LINE",
"295 806 LINE"
);
},
{
closed = 1;
nodes = (
"80 700 LINE",
"80 0 LINE",
"516 0 LINE",
"516 76 LINE",
"164 76 LINE",
"164 314 LINE",
"483 314 LINE",
"483 390 LINE",
"164 390 LINE",
"164 624 LINE",
"511 624 LINE",
"511 700 LINE"
);
}
);
width = 563;
},
{
layerId = "8F42668C-F186-4E73-94E7-C31CD8308E50";
paths = (
{
closed = 1;
nodes = (
"224 879 LINE",
"127 879 LINE",
"254 758 LINE",
"349 758 LINE",
"476 879 LINE",
"380 879 LINE",
"309 806 LINE",
"295 806 LINE"
);
},
{
closed = 1;
nodes = (
"80 700 LINE",
"80 0 LINE",
"516 0 LINE",
"516 76 LINE",
"164 76 LINE",
"164 314 LINE",
"483 314 LINE",
"483 390 LINE",
"164 390 LINE",
"164 624 LINE",
"511 624 LINE",
"511 700 LINE"
);
}
);
width = 563;
}
);
note = Ecaron;
rightKerningGroup = E;
unicode = 011A;
},
{
glyphname = Edieresis;
lastChange = "2020-07-28 15:47:08 +0000";
layers = (
{
layerId = "83CEB4AC-2A3F-4494-A887-C39963512B94";
paths = (
{
closed = 1;
nodes = (
"143 784 OFFCURVE",
"168 760 OFFCURVE",
"203 760 CURVE SMOOTH",
"237 760 OFFCURVE",
"262 784 OFFCURVE",
"262 819 CURVE SMOOTH",
"262 855 OFFCURVE",
"237 879 OFFCURVE",
"203 879 CURVE SMOOTH",
"168 879 OFFCURVE",
"143 855 OFFCURVE",
"143 819 CURVE SMOOTH"
);
},
{
closed = 1;
nodes = (
"341 784 OFFCURVE",
"366 760 OFFCURVE",
"401 760 CURVE SMOOTH",
"435 760 OFFCURVE",
"460 784 OFFCURVE",
"460 819 CURVE SMOOTH",
"460 855 OFFCURVE",
"435 879 OFFCURVE",
"401 879 CURVE SMOOTH",
"366 879 OFFCURVE",
"341 855 OFFCURVE",
"341 819 CURVE SMOOTH"
);
},
{
closed = 1;
nodes = (
"80 700 LINE",
"80 0 LINE",
"516 0 LINE",
"516 76 LINE",
"164 76 LINE",
"164 314 LINE",
"483 314 LINE",
"483 390 LINE",
"164 390 LINE",
"164 624 LINE",
"511 624 LINE",
"511 700 LINE"
);
}
);
width = 563;
},
{
layerId = "8F42668C-F186-4E73-94E7-C31CD8308E50";
paths = (
{
closed = 1;
nodes = (
"143 784 OFFCURVE",
"168 760 OFFCURVE",
"203 760 CURVE SMOOTH",
"237 760 OFFCURVE",
"262 784 OFFCURVE",
"262 819 CURVE SMOOTH",
"262 855 OFFCURVE",
"237 879 OFFCURVE",
"203 879 CURVE SMOOTH",
"168 879 OFFCURVE",
"143 855 OFFCURVE",
"143 819 CURVE SMOOTH"
);
},
{
closed = 1;
nodes = (
"341 784 OFFCURVE",
"366 760 OFFCURVE",
"401 760 CURVE SMOOTH",
"435 760 OFFCURVE",
"460 784 OFFCURVE",
"460 819 CURVE SMOOTH",
"460 855 OFFCURVE",
"435 879 OFFCURVE",
"401 879 CURVE SMOOTH",
"366 879 OFFCURVE",
"341 855 OFFCURVE",
"341 819 CURVE SMOOTH"
);
},
{
closed = 1;
nodes = (
"80 700 LINE",
"80 0 LINE",
"516 0 LINE",
"516 76 LINE",
"164 76 LINE",
"164 314 LINE",
"483 314 LINE",
"483 390 LINE",
"164 390 LINE",
"164 624 LINE",
"511 624 LINE",
"511 700 LINE"
);
}
);
width = 563;
}
);
note = Edieresis;
rightKerningGroup = E;
unicode = 00CB;
},
{
glyphname = Emacron;
lastChange = "2020-07-28 15:47:08 +0000";
layers = (
{
layerId = "83CEB4AC-2A3F-4494-A887-C39963512B94";
paths = (
{
closed = 1;
nodes = (
"456 836 LINE",
"148 836 LINE",
"148 771 LINE",
"456 771 LINE"
);
},
{
closed = 1;
nodes = (
"80 700 LINE",
"80 0 LINE",
"516 0 LINE",
"516 76 LINE",
"164 76 LINE",
"164 314 LINE",
"483 314 LINE",
"483 390 LINE",
"164 390 LINE",
"164 624 LINE",
"511 624 LINE",
"511 700 LINE"
);
}
);
width = 563;
},
{
layerId = "8F42668C-F186-4E73-94E7-C31CD8308E50";
paths = (
{
closed = 1;
nodes = (
"456 836 LINE",
"148 836 LINE",
"148 771 LINE",
"456 771 LINE"
);
},
{
closed = 1;
nodes = (
"80 700 LINE",
"80 0 LINE",
"516 0 LINE",
"516 76 LINE",
"164 76 LINE",
"164 314 LINE",
"483 314 LINE",
"483 390 LINE",
"164 390 LINE",
"164 624 LINE",
"511 624 LINE",
"511 700 LINE"
);
}
);
width = 563;
}
);
note = Emacron;
rightKerningGroup = E;
unicode = 0112;
},
{
glyphname = Ebreve;
lastChange = "2020-07-28 15:47:08 +0000";
layers = (
{
layerId = "83CEB4AC-2A3F-4494-A887-C39963512B94";
paths = (
{
closed = 1;
nodes = (
"382 881 LINE",
"382 878 LINE SMOOTH",
"382 836 OFFCURVE",
"356 808 OFFCURVE",
"302 808 CURVE SMOOTH",
"248 808 OFFCURVE",
"222 836 OFFCURVE",
"222 878 CURVE SMOOTH",
"222 881 LINE",
"153 881 LINE",
"153 878 LINE SMOOTH",
"153 803 OFFCURVE",
"207 752 OFFCURVE",
"302 752 CURVE SMOOTH",
"396 752 OFFCURVE",
"451 803 OFFCURVE",
"451 878 CURVE SMOOTH",
"451 881 LINE"
);
},
{
closed = 1;
nodes = (
"80 700 LINE",
"80 0 LINE",
"516 0 LINE",
"516 76 LINE",
"164 76 LINE",
"164 314 LINE",
"483 314 LINE",
"483 390 LINE",
"164 390 LINE",
"164 624 LINE",
"511 624 LINE",
"511 700 LINE"
);
}
);
width = 563;
},
{
layerId = "8F42668C-F186-4E73-94E7-C31CD8308E50";
paths = (
{
closed = 1;
nodes = (
"382 881 LINE",
"382 878 LINE SMOOTH",
"382 836 OFFCURVE",
"356 808 OFFCURVE",
"302 808 CURVE SMOOTH",
"248 808 OFFCURVE",
"222 836 OFFCURVE",
"222 878 CURVE SMOOTH",
"222 881 LINE",
"153 881 LINE",
"153 878 LINE SMOOTH",
"153 803 OFFCURVE",
"207 752 OFFCURVE",
"302 752 CURVE SMOOTH",
"396 752 OFFCURVE",
"451 803 OFFCURVE",
"451 878 CURVE SMOOTH",
"451 881 LINE"
);
},
{
closed = 1;
nodes = (
"80 700 LINE",
"80 0 LINE",
"516 0 LINE",
"516 76 LINE",
"164 76 LINE",
"164 314 LINE",
"483 314 LINE",
"483 390 LINE",
"164 390 LINE",
"164 624 LINE",
"511 624 LINE",
"511 700 LINE"
);
}
);
width = 563;
}
);
note = Ebreve;
rightKerningGroup = E;
unicode = 0114;
},
{
glyphname = Edotaccent;
lastChange = "2020-07-28 15:47:08 +0000";
layers = (
{
layerId = "83CEB4AC-2A3F-4494-A887-C39963512B94";
paths = (
{
closed = 1;
nodes = (
"241 785 OFFCURVE",
"267 760 OFFCURVE",
"302 760 CURVE SMOOTH",
"336 760 OFFCURVE",
"362 785 OFFCURVE",
"362 820 CURVE SMOOTH",
"362 855 OFFCURVE",
"336 880 OFFCURVE",
"302 880 CURVE SMOOTH",
"267 880 OFFCURVE",
"241 855 OFFCURVE",
"241 820 CURVE SMOOTH"
);
},
{
closed = 1;
nodes = (
"80 700 LINE",
"80 0 LINE",
"516 0 LINE",
"516 76 LINE",
"164 76 LINE",
"164 314 LINE",
"483 314 LINE",
"483 390 LINE",
"164 390 LINE",
"164 624 LINE",
"511 624 LINE",
"511 700 LINE"
);
}
);
width = 563;
},
{
layerId = "8F42668C-F186-4E73-94E7-C31CD8308E50";
paths = (
{
closed = 1;
nodes = (
"241 785 OFFCURVE",
"267 760 OFFCURVE",
"302 760 CURVE SMOOTH",
"336 760 OFFCURVE",
"362 785 OFFCURVE",
"362 820 CURVE SMOOTH",
"362 855 OFFCURVE",
"336 880 OFFCURVE",
"302 880 CURVE SMOOTH",
"267 880 OFFCURVE",
"241 855 OFFCURVE",
"241 820 CURVE SMOOTH"
);
},
{
closed = 1;
nodes = (
"80 700 LINE",
"80 0 LINE",
"516 0 LINE",
"516 76 LINE",
"164 76 LINE",
"164 314 LINE",
"483 314 LINE",
"483 390 LINE",
"164 390 LINE",
"164 624 LINE",
"511 624 LINE",
"511 700 LINE"
);
}
);
width = 563;
}
);
note = Edotaccent;
rightKerningGroup = E;
unicode = 0116;
},
{
glyphname = Eogonek;
lastChange = "2020-07-28 15:47:08 +0000";
layers = (
{
layerId = "83CEB4AC-2A3F-4494-A887-C39963512B94";
paths = (
{
closed = 1;
nodes = (
"80 700 LINE",
"80 0 LINE",
"405 0 LINE",
"396 -39 LINE SMOOTH",
"391 -60 OFFCURVE",
"387 -80 OFFCURVE",
"387 -99 CURVE SMOOTH",
"387 -141 OFFCURVE",
"414 -164 OFFCURVE",
"458 -164 CURVE SMOOTH",
"515 -164 LINE",
"515 -103 LINE",
"472 -103 LINE SMOOTH",
"458 -103 OFFCURVE",
"450 -96 OFFCURVE",
"450 -83 CURVE SMOOTH",
"450 -74 OFFCURVE",
"452 -68 OFFCURVE",
"454 -56 CURVE SMOOTH",
"465 0 LINE",
"516 0 LINE",
"516 76 LINE",
"164 76 LINE",
"164 314 LINE",
"483 314 LINE",
"483 390 LINE",
"164 390 LINE",
"164 624 LINE",
"511 624 LINE",
"511 700 LINE"
);
}
);
width = 563;
},
{
layerId = "8F42668C-F186-4E73-94E7-C31CD8308E50";
paths = (
{
closed = 1;
nodes = (
"80 700 LINE",
"80 0 LINE",
"405 0 LINE",
"396 -39 LINE SMOOTH",
"391 -60 OFFCURVE",
"387 -80 OFFCURVE",
"387 -99 CURVE SMOOTH",
"387 -141 OFFCURVE",
"414 -164 OFFCURVE",
"458 -164 CURVE SMOOTH",
"515 -164 LINE",
"515 -103 LINE",
"472 -103 LINE SMOOTH",
"458 -103 OFFCURVE",
"450 -96 OFFCURVE",
"450 -83 CURVE SMOOTH",
"450 -74 OFFCURVE",
"452 -68 OFFCURVE",
"454 -56 CURVE SMOOTH",
"465 0 LINE",
"516 0 LINE",
"516 76 LINE",
"164 76 LINE",
"164 314 LINE",
"483 314 LINE",
"483 390 LINE",
"164 390 LINE",
"164 624 LINE",
"511 624 LINE",
"511 700 LINE"
);
}
);
width = 563;
}
);
note = Eogonek;
rightKerningGroup = E;
unicode = 0118;
},
{
glyphname = Gcircumflex;
lastChange = "2020-07-28 15:47:08 +0000";
layers = (
{
layerId = "83CEB4AC-2A3F-4494-A887-C39963512B94";
paths = (
{
closed = 1;
nodes = (
"413 758 LINE",
"509 758 LINE",
"382 879 LINE",
"288 879 LINE",
"161 758 LINE",
"257 758 LINE",
"328 831 LINE",
"342 831 LINE"
);
},
{
closed = 1;
nodes = (
"60 270 LINE SMOOTH",
"60 85 OFFCURVE",
"168 -14 OFFCURVE",
"324 -14 CURVE SMOOTH",
"432 -14 OFFCURVE",
"476 31 OFFCURVE",
"497 76 CURVE",
"511 76 LINE",
"511 0 LINE",
"587 0 LINE",
"587 333 LINE",
"293 333 LINE",
"293 261 LINE",
"505 261 LINE",
"505 244 LINE SMOOTH",
"505 133 OFFCURVE",
"451 61 OFFCURVE",
"334 61 CURVE SMOOTH",
"214 61 OFFCURVE",
"144 138 OFFCURVE",
"144 268 CURVE SMOOTH",
"144 432 LINE SMOOTH",
"144 562 OFFCURVE",
"214 639 OFFCURVE",
"333 639 CURVE SMOOTH",
"452 639 OFFCURVE",
"504 565 OFFCURVE",
"504 466 CURVE SMOOTH",
"504 459 LINE",
"587 459 LINE",
"587 464 LINE SMOOTH",
"587 616 OFFCURVE",
"498 714 OFFCURVE",
"333 714 CURVE SMOOTH",
"167 714 OFFCURVE",
"60 615 OFFCURVE",
"60 430 CURVE SMOOTH"
);
}
);
width = 660;
},
{
layerId = "8F42668C-F186-4E73-94E7-C31CD8308E50";
paths = (
{
closed = 1;
nodes = (
"413 758 LINE",
"509 758 LINE",
"382 879 LINE",
"288 879 LINE",
"161 758 LINE",
"257 758 LINE",
"328 831 LINE",
"342 831 LINE"
);
},
{
closed = 1;
nodes = (
"60 270 LINE SMOOTH",
"60 85 OFFCURVE",
"168 -14 OFFCURVE",
"324 -14 CURVE SMOOTH",
"432 -14 OFFCURVE",
"476 31 OFFCURVE",
"497 76 CURVE",
"511 76 LINE",
"511 0 LINE",
"587 0 LINE",
"587 333 LINE",
"293 333 LINE",
"293 261 LINE",
"505 261 LINE",
"505 244 LINE SMOOTH",
"505 133 OFFCURVE",
"451 61 OFFCURVE",
"334 61 CURVE SMOOTH",
"214 61 OFFCURVE",
"144 138 OFFCURVE",
"144 268 CURVE SMOOTH",
"144 432 LINE SMOOTH",
"144 562 OFFCURVE",
"214 639 OFFCURVE",
"333 639 CURVE SMOOTH",
"452 639 OFFCURVE",
"504 565 OFFCURVE",
"504 466 CURVE SMOOTH",
"504 459 LINE",
"587 459 LINE",
"587 464 LINE SMOOTH",
"587 616 OFFCURVE",
"498 714 OFFCURVE",
"333 714 CURVE SMOOTH",
"167 714 OFFCURVE",
"60 615 OFFCURVE",
"60 430 CURVE SMOOTH"
);
}
);
width = 660;
}
);
leftKerningGroup = C;
note = Gcircumflex;
rightKerningGroup = G;
unicode = 011C;
},
{
glyphname = Gbreve;
lastChange = "2020-07-28 15:47:08 +0000";
layers = (
{
layerId = "83CEB4AC-2A3F-4494-A887-C39963512B94";
paths = (
{
closed = 1;
nodes = (
"415 881 LINE",
"415 878 LINE SMOOTH",
"415 836 OFFCURVE",
"390 808 OFFCURVE",
"335 808 CURVE SMOOTH",
"281 808 OFFCURVE",
"255 836 OFFCURVE",
"255 878 CURVE SMOOTH",
"255 881 LINE",
"186 881 LINE",
"186 878 LINE SMOOTH",
"186 803 OFFCURVE",
"241 752 OFFCURVE",
"335 752 CURVE SMOOTH",
"429 752 OFFCURVE",
"485 803 OFFCURVE",
"485 878 CURVE SMOOTH",
"485 881 LINE"
);
},
{
closed = 1;
nodes = (
"60 270 LINE SMOOTH",
"60 85 OFFCURVE",
"168 -14 OFFCURVE",
"324 -14 CURVE SMOOTH",
"432 -14 OFFCURVE",
"476 31 OFFCURVE",
"497 76 CURVE",
"511 76 LINE",
"511 0 LINE",
"587 0 LINE",
"587 333 LINE",
"293 333 LINE",
"293 261 LINE",
"505 261 LINE",
"505 244 LINE SMOOTH",
"505 133 OFFCURVE",
"451 61 OFFCURVE",
"334 61 CURVE SMOOTH",
"214 61 OFFCURVE",
"144 138 OFFCURVE",
"144 268 CURVE SMOOTH",
"144 432 LINE SMOOTH",
"144 562 OFFCURVE",
"214 639 OFFCURVE",
"333 639 CURVE SMOOTH",
"452 639 OFFCURVE",
"504 565 OFFCURVE",
"504 466 CURVE SMOOTH",
"504 459 LINE",
"587 459 LINE",
"587 464 LINE SMOOTH",
"587 616 OFFCURVE",
"498 714 OFFCURVE",
"333 714 CURVE SMOOTH",
"167 714 OFFCURVE",
"60 615 OFFCURVE",
"60 430 CURVE SMOOTH"
);
}
);
width = 660;
},
{
layerId = "8F42668C-F186-4E73-94E7-C31CD8308E50";
paths = (
{
closed = 1;
nodes = (
"415 881 LINE",
"415 878 LINE SMOOTH",
"415 836 OFFCURVE",
"390 808 OFFCURVE",
"335 808 CURVE SMOOTH",
"281 808 OFFCURVE",
"255 836 OFFCURVE",
"255 878 CURVE SMOOTH",
"255 881 LINE",
"186 881 LINE",
"186 878 LINE SMOOTH",
"186 803 OFFCURVE",
"241 752 OFFCURVE",
"335 752 CURVE SMOOTH",
"429 752 OFFCURVE",
"485 803 OFFCURVE",
"485 878 CURVE SMOOTH",
"485 881 LINE"
);
},
{
closed = 1;
nodes = (
"60 270 LINE SMOOTH",
"60 85 OFFCURVE",
"168 -14 OFFCURVE",
"324 -14 CURVE SMOOTH",
"432 -14 OFFCURVE",
"476 31 OFFCURVE",
"497 76 CURVE",
"511 76 LINE",
"511 0 LINE",
"587 0 LINE",
"587 333 LINE",
"293 333 LINE",
"293 261 LINE",
"505 261 LINE",
"505 244 LINE SMOOTH",
"505 133 OFFCURVE",
"451 61 OFFCURVE",
"334 61 CURVE SMOOTH",
"214 61 OFFCURVE",
"144 138 OFFCURVE",
"144 268 CURVE SMOOTH",
"144 432 LINE SMOOTH",
"144 562 OFFCURVE",
"214 639 OFFCURVE",
"333 639 CURVE SMOOTH",
"452 639 OFFCURVE",
"504 565 OFFCURVE",
"504 466 CURVE SMOOTH",
"504 459 LINE",
"587 459 LINE",
"587 464 LINE SMOOTH",
"587 616 OFFCURVE",
"498 714 OFFCURVE",
"333 714 CURVE SMOOTH",
"167 714 OFFCURVE",
"60 615 OFFCURVE",
"60 430 CURVE SMOOTH"
);
}
);
width = 660;
}
);
leftKerningGroup = C;
note = Gbreve;
rightKerningGroup = G;
unicode = 011E;
},
{
glyphname = Gdotaccent;
lastChange = "2020-07-28 15:47:08 +0000";
layers = (
{
layerId = "83CEB4AC-2A3F-4494-A887-C39963512B94";
paths = (
{
closed = 1;
nodes = (
"275 785 OFFCURVE",
"300 760 OFFCURVE",
"335 760 CURVE SMOOTH",
"370 760 OFFCURVE",
"395 785 OFFCURVE",
"395 820 CURVE SMOOTH",
"395 855 OFFCURVE",
"370 880 OFFCURVE",
"335 880 CURVE SMOOTH",
"300 880 OFFCURVE",
"275 855 OFFCURVE",
"275 820 CURVE SMOOTH"
);
},
{
closed = 1;
nodes = (
"60 270 LINE SMOOTH",
"60 85 OFFCURVE",
"168 -14 OFFCURVE",
"324 -14 CURVE SMOOTH",
"432 -14 OFFCURVE",
"476 31 OFFCURVE",
"497 76 CURVE",
"511 76 LINE",
"511 0 LINE",
"587 0 LINE",
"587 333 LINE",
"293 333 LINE",
"293 261 LINE",
"505 261 LINE",
"505 244 LINE SMOOTH",
"505 133 OFFCURVE",
"451 61 OFFCURVE",
"334 61 CURVE SMOOTH",
"214 61 OFFCURVE",
"144 138 OFFCURVE",
"144 268 CURVE SMOOTH",
"144 432 LINE SMOOTH",
"144 562 OFFCURVE",
"214 639 OFFCURVE",
"333 639 CURVE SMOOTH",
"452 639 OFFCURVE",
"504 565 OFFCURVE",
"504 466 CURVE SMOOTH",
"504 459 LINE",
"587 459 LINE",
"587 464 LINE SMOOTH",
"587 616 OFFCURVE",
"498 714 OFFCURVE",
"333 714 CURVE SMOOTH",
"167 714 OFFCURVE",
"60 615 OFFCURVE",
"60 430 CURVE SMOOTH"
);
}
);
width = 660;
},
{
layerId = "8F42668C-F186-4E73-94E7-C31CD8308E50";
paths = (
{
closed = 1;
nodes = (
"275 785 OFFCURVE",
"300 760 OFFCURVE",
"335 760 CURVE SMOOTH",
"370 760 OFFCURVE",
"395 785 OFFCURVE",
"395 820 CURVE SMOOTH",
"395 855 OFFCURVE",
"370 880 OFFCURVE",
"335 880 CURVE SMOOTH",
"300 880 OFFCURVE",
"275 855 OFFCURVE",
"275 820 CURVE SMOOTH"
);
},
{
closed = 1;
nodes = (
"60 270 LINE SMOOTH",
"60 85 OFFCURVE",
"168 -14 OFFCURVE",
"324 -14 CURVE SMOOTH",
"432 -14 OFFCURVE",
"476 31 OFFCURVE",
"497 76 CURVE",
"511 76 LINE",
"511 0 LINE",
"587 0 LINE",
"587 333 LINE",
"293 333 LINE",
"293 261 LINE",
"505 261 LINE",
"505 244 LINE SMOOTH",
"505 133 OFFCURVE",
"451 61 OFFCURVE",
"334 61 CURVE SMOOTH",
"214 61 OFFCURVE",
"144 138 OFFCURVE",
"144 268 CURVE SMOOTH",
"144 432 LINE SMOOTH",
"144 562 OFFCURVE",
"214 639 OFFCURVE",
"333 639 CURVE SMOOTH",
"452 639 OFFCURVE",
"504 565 OFFCURVE",
"504 466 CURVE SMOOTH",
"504 459 LINE",
"587 459 LINE",
"587 464 LINE SMOOTH",
"587 616 OFFCURVE",
"498 714 OFFCURVE",
"333 714 CURVE SMOOTH",
"167 714 OFFCURVE",
"60 615 OFFCURVE",
"60 430 CURVE SMOOTH"
);
}
);
width = 660;
}
);
leftKerningGroup = C;
note = Gdotaccent;
rightKerningGroup = G;
unicode = 0120;
},
{
glyphname = Hcircumflex;
lastChange = "2020-07-28 15:47:08 +0000";
layers = (
{
layerId = "83CEB4AC-2A3F-4494-A887-C39963512B94";
paths = (
{
closed = 1;
nodes = (
"406 758 LINE",
"502 758 LINE",
"375 879 LINE",
"281 879 LINE",
"154 758 LINE",
"250 758 LINE",
"321 831 LINE",
"335 831 LINE"
);
},
{
closed = 1;
nodes = (
"80 700 LINE",
"80 0 LINE",
"164 0 LINE",
"164 313 LINE",
"492 313 LINE",
"492 0 LINE",
"576 0 LINE",
"576 700 LINE",
"492 700 LINE",
"492 389 LINE",
"164 389 LINE",
"164 700 LINE"
);
}
);
width = 656;
},
{
layerId = "8F42668C-F186-4E73-94E7-C31CD8308E50";
paths = (
{
closed = 1;
nodes = (
"406 758 LINE",
"502 758 LINE",
"375 879 LINE",
"281 879 LINE",
"154 758 LINE",
"250 758 LINE",
"321 831 LINE",
"335 831 LINE"
);
},
{
closed = 1;
nodes = (
"80 700 LINE",
"80 0 LINE",
"164 0 LINE",
"164 313 LINE",
"492 313 LINE",
"492 0 LINE",
"576 0 LINE",
"576 700 LINE",
"492 700 LINE",
"492 389 LINE",
"164 389 LINE",
"164 700 LINE"
);
}
);
width = 656;
}
);
note = Hcircumflex;
rightKerningGroup = H;
unicode = 0124;
},
{
glyphname = Hbar;
lastChange = "2020-07-28 15:47:08 +0000";
layers = (
{
layerId = "83CEB4AC-2A3F-4494-A887-C39963512B94";
paths = (
{
closed = 1;
nodes = (
"80 700 LINE",
"80 570 LINE",
"12 570 LINE",
"12 509 LINE",
"80 509 LINE",
"80 0 LINE",
"164 0 LINE",
"164 313 LINE",
"492 313 LINE",
"492 0 LINE",
"576 0 LINE",
"576 509 LINE",
"645 509 LINE",
"645 570 LINE",
"576 570 LINE",
"576 700 LINE",
"492 700 LINE",
"492 570 LINE",
"164 570 LINE",
"164 700 LINE"
);
},
{
closed = 1;
nodes = (
"164 389 LINE",
"164 509 LINE",
"492 509 LINE",
"492 389 LINE"
);
}
);
width = 656;
},
{
layerId = "8F42668C-F186-4E73-94E7-C31CD8308E50";
paths = (
{
closed = 1;
nodes = (
"80 700 LINE",
"80 570 LINE",
"12 570 LINE",
"12 509 LINE",
"80 509 LINE",
"80 0 LINE",
"164 0 LINE",
"164 313 LINE",
"492 313 LINE",
"492 0 LINE",
"576 0 LINE",
"576 509 LINE",
"645 509 LINE",
"645 570 LINE",
"576 570 LINE",
"576 700 LINE",
"492 700 LINE",
"492 570 LINE",
"164 570 LINE",
"164 700 LINE"
);
},
{
closed = 1;
nodes = (
"164 389 LINE",
"164 509 LINE",
"492 509 LINE",
"492 389 LINE"
);
}
);
width = 656;
}
);
note = Hbar;
rightKerningGroup = H;
unicode = 0126;
},
{
glyphname = Igrave;
lastChange = "2020-07-28 15:47:08 +0000";
layers = (
{
layerId = "83CEB4AC-2A3F-4494-A887-C39963512B94";
paths = (
{
closed = 1;
nodes = (
"111 882 LINE",
"13 882 LINE",
"102 761 LINE",
"178 761 LINE"
);
},
{
closed = 1;
nodes = (
"80 700 LINE",
"80 0 LINE",
"164 0 LINE",
"164 700 LINE"
);
}
);
width = 244;
},
{
layerId = "8F42668C-F186-4E73-94E7-C31CD8308E50";
paths = (
{
closed = 1;
nodes = (
"111 882 LINE",
"13 882 LINE",
"102 761 LINE",
"178 761 LINE"
);
},
{
closed = 1;
nodes = (
"80 700 LINE",
"80 0 LINE",
"164 0 LINE",
"164 700 LINE"
);
}
);
width = 244;
}
);
note = Igrave;
unicode = 00CC;
},
{
glyphname = Iacute;
lastChange = "2020-07-28 15:47:08 +0000";
layers = (
{
layerId = "83CEB4AC-2A3F-4494-A887-C39963512B94";
paths = (
{
closed = 1;
nodes = (
"133 879 LINE",
"66 758 LINE",
"143 758 LINE",
"231 879 LINE"
);
},
{
closed = 1;
nodes = (
"80 700 LINE",
"80 0 LINE",
"164 0 LINE",
"164 700 LINE"
);
}
);
width = 244;
},
{
layerId = "8F42668C-F186-4E73-94E7-C31CD8308E50";
paths = (
{
closed = 1;
nodes = (
"133 879 LINE",
"66 758 LINE",
"143 758 LINE",
"231 879 LINE"
);
},
{
closed = 1;
nodes = (
"80 700 LINE",
"80 0 LINE",
"164 0 LINE",
"164 700 LINE"
);
}
);
width = 244;
}
);
note = Iacute;
unicode = 00CD;
},
{
glyphname = Icircumflex;
lastChange = "2020-07-28 15:47:08 +0000";
layers = (
{
layerId = "83CEB4AC-2A3F-4494-A887-C39963512B94";
paths = (
{
closed = 1;
nodes = (
"200 758 LINE",
"296 758 LINE",
"170 879 LINE",
"75 879 LINE",
"-52 758 LINE",
"44 758 LINE",
"115 831 LINE",
"129 831 LINE"
);
},
{
closed = 1;
nodes = (
"80 700 LINE",
"80 0 LINE",
"164 0 LINE",
"164 700 LINE"
);
}
);
width = 244;
},
{
layerId = "8F42668C-F186-4E73-94E7-C31CD8308E50";
paths = (
{
closed = 1;
nodes = (
"200 758 LINE",
"296 758 LINE",
"170 879 LINE",
"75 879 LINE",
"-52 758 LINE",
"44 758 LINE",
"115 831 LINE",
"129 831 LINE"
);
},
{
closed = 1;
nodes = (
"80 700 LINE",
"80 0 LINE",
"164 0 LINE",
"164 700 LINE"
);
}
);
width = 244;
}
);
leftKerningGroup = Icircumflex;
note = Icircumflex;
rightKerningGroup = Icircumflex;
unicode = 00CE;
},
{
glyphname = Itilde;
lastChange = "2020-07-28 15:47:08 +0000";
layers = (
{
layerId = "83CEB4AC-2A3F-4494-A887-C39963512B94";
paths = (
{
closed = 1;
nodes = (
"-44 790 LINE",
"3 758 LINE",
"28 798 LINE",
"38 811 OFFCURVE",
"47 822 OFFCURVE",
"64 822 CURVE SMOOTH",
"79 822 OFFCURVE",
"89 813 OFFCURVE",
"107 795 CURVE SMOOTH",
"133 768 OFFCURVE",
"152 755 OFFCURVE",
"183 755 CURVE SMOOTH",
"218 755 OFFCURVE",
"240 774 OFFCURVE",
"256 799 CURVE SMOOTH",
"288 849 LINE",
"241 881 LINE",
"215 840 LINE SMOOTH",
"206 827 OFFCURVE",
"197 816 OFFCURVE",
"181 816 CURVE SMOOTH",
"165 816 OFFCURVE",
"155 826 OFFCURVE",
"137 844 CURVE SMOOTH",
"112 870 OFFCURVE",
"92 884 OFFCURVE",
"61 884 CURVE SMOOTH",
"26 884 OFFCURVE",
"4 865 OFFCURVE",
"-12 840 CURVE SMOOTH"
);
},
{
closed = 1;
nodes = (
"80 700 LINE",
"80 0 LINE",
"164 0 LINE",
"164 700 LINE"
);
}
);
width = 244;
},
{
layerId = "8F42668C-F186-4E73-94E7-C31CD8308E50";
paths = (
{
closed = 1;
nodes = (
"-44 790 LINE",
"3 758 LINE",
"28 798 LINE",
"38 811 OFFCURVE",
"47 822 OFFCURVE",
"64 822 CURVE SMOOTH",
"79 822 OFFCURVE",
"89 813 OFFCURVE",
"107 795 CURVE SMOOTH",
"133 768 OFFCURVE",
"152 755 OFFCURVE",
"183 755 CURVE SMOOTH",
"218 755 OFFCURVE",
"240 774 OFFCURVE",
"256 799 CURVE SMOOTH",
"288 849 LINE",
"241 881 LINE",
"215 840 LINE SMOOTH",
"206 827 OFFCURVE",
"197 816 OFFCURVE",
"181 816 CURVE SMOOTH",
"165 816 OFFCURVE",
"155 826 OFFCURVE",
"137 844 CURVE SMOOTH",
"112 870 OFFCURVE",
"92 884 OFFCURVE",
"61 884 CURVE SMOOTH",
"26 884 OFFCURVE",
"4 865 OFFCURVE",
"-12 840 CURVE SMOOTH"
);
},
{
closed = 1;
nodes = (
"80 700 LINE",
"80 0 LINE",
"164 0 LINE",
"164 700 LINE"
);
}
);
width = 244;
}
);
leftKerningGroup = Icircumflex;
note = Itilde;
rightKerningGroup = Icircumflex;
unicode = 0128;
},
{
glyphname = Idieresis;
lastChange = "2020-07-28 15:47:08 +0000";
layers = (
{
layerId = "83CEB4AC-2A3F-4494-A887-C39963512B94";
paths = (
{
closed = 1;
nodes = (
"-37 784 OFFCURVE",
"-12 760 OFFCURVE",
"23 760 CURVE SMOOTH",
"58 760 OFFCURVE",
"83 784 OFFCURVE",
"83 819 CURVE SMOOTH",
"83 855 OFFCURVE",
"58 879 OFFCURVE",
"23 879 CURVE SMOOTH",
"-12 879 OFFCURVE",
"-37 855 OFFCURVE",
"-37 819 CURVE SMOOTH"
);
},
{
closed = 1;
nodes = (
"161 784 OFFCURVE",
"186 760 OFFCURVE",
"221 760 CURVE SMOOTH",
"256 760 OFFCURVE",
"281 784 OFFCURVE",
"281 819 CURVE SMOOTH",
"281 855 OFFCURVE",
"256 879 OFFCURVE",
"221 879 CURVE SMOOTH",
"186 879 OFFCURVE",
"161 855 OFFCURVE",
"161 819 CURVE SMOOTH"
);
},
{
closed = 1;
nodes = (
"80 700 LINE",
"80 0 LINE",
"164 0 LINE",
"164 700 LINE"
);
}
);
width = 244;
},
{
layerId = "8F42668C-F186-4E73-94E7-C31CD8308E50";
paths = (
{
closed = 1;
nodes = (
"-37 784 OFFCURVE",
"-12 760 OFFCURVE",
"23 760 CURVE SMOOTH",
"58 760 OFFCURVE",
"83 784 OFFCURVE",
"83 819 CURVE SMOOTH",
"83 855 OFFCURVE",
"58 879 OFFCURVE",
"23 879 CURVE SMOOTH",
"-12 879 OFFCURVE",
"-37 855 OFFCURVE",
"-37 819 CURVE SMOOTH"
);
},
{
closed = 1;
nodes = (
"161 784 OFFCURVE",
"186 760 OFFCURVE",
"221 760 CURVE SMOOTH",
"256 760 OFFCURVE",
"281 784 OFFCURVE",
"281 819 CURVE SMOOTH",
"281 855 OFFCURVE",
"256 879 OFFCURVE",
"221 879 CURVE SMOOTH",
"186 879 OFFCURVE",
"161 855 OFFCURVE",
"161 819 CURVE SMOOTH"
);
},
{
closed = 1;
nodes = (
"80 700 LINE",
"80 0 LINE",
"164 0 LINE",
"164 700 LINE"
);
}
);
width = 244;
}
);
leftKerningGroup = Icircumflex;
note = Idieresis;
rightKerningGroup = Icircumflex;
unicode = 00CF;
},
{
glyphname = Imacron;
lastChange = "2020-07-28 15:47:08 +0000";
layers = (
{
layerId = "83CEB4AC-2A3F-4494-A887-C39963512B94";
paths = (
{
closed = 1;
nodes = (
"276 836 LINE",
"-32 836 LINE",
"-32 771 LINE",
"276 771 LINE"
);
},
{
closed = 1;
nodes = (
"80 700 LINE",
"80 0 LINE",
"164 0 LINE",
"164 700 LINE"
);
}
);
width = 244;
},
{
layerId = "8F42668C-F186-4E73-94E7-C31CD8308E50";
paths = (
{
closed = 1;
nodes = (
"276 836 LINE",
"-32 836 LINE",
"-32 771 LINE",
"276 771 LINE"
);
},
{
closed = 1;
nodes = (
"80 700 LINE",
"80 0 LINE",
"164 0 LINE",
"164 700 LINE"
);
}
);
width = 244;
}
);
leftKerningGroup = Icircumflex;
note = Imacron;
rightKerningGroup = Icircumflex;
unicode = 012A;
},
{
glyphname = Idotaccent;
lastChange = "2020-07-28 15:47:08 +0000";
layers = (
{
layerId = "83CEB4AC-2A3F-4494-A887-C39963512B94";
paths = (
{
closed = 1;
nodes = (
"62 785 OFFCURVE",
"87 760 OFFCURVE",
"122 760 CURVE SMOOTH",
"157 760 OFFCURVE",
"182 785 OFFCURVE",
"182 820 CURVE SMOOTH",
"182 855 OFFCURVE",
"157 880 OFFCURVE",
"122 880 CURVE SMOOTH",
"87 880 OFFCURVE",
"62 855 OFFCURVE",
"62 820 CURVE SMOOTH"
);
},
{
closed = 1;
nodes = (
"80 700 LINE",
"80 0 LINE",
"164 0 LINE",
"164 700 LINE"
);
}
);
width = 244;
},
{
layerId = "8F42668C-F186-4E73-94E7-C31CD8308E50";
paths = (
{
closed = 1;
nodes = (
"62 785 OFFCURVE",
"87 760 OFFCURVE",
"122 760 CURVE SMOOTH",
"157 760 OFFCURVE",
"182 785 OFFCURVE",
"182 820 CURVE SMOOTH",
"182 855 OFFCURVE",
"157 880 OFFCURVE",
"122 880 CURVE SMOOTH",
"87 880 OFFCURVE",
"62 855 OFFCURVE",
"62 820 CURVE SMOOTH"
);
},
{
closed = 1;
nodes = (
"80 700 LINE",
"80 0 LINE",
"164 0 LINE",
"164 700 LINE"
);
}
);
width = 244;
}
);
note = Idotaccent;
unicode = 0130;
},
{
glyphname = Iogonek;
lastChange = "2020-07-28 15:47:08 +0000";
layers = (
{
layerId = "83CEB4AC-2A3F-4494-A887-C39963512B94";
paths = (
{
closed = 1;
nodes = (
"80 700 LINE",
"80 0 LINE",
"92 0 LINE",
"83 -39 LINE SMOOTH",
"78 -60 OFFCURVE",
"74 -80 OFFCURVE",
"74 -99 CURVE SMOOTH",
"74 -141 OFFCURVE",
"101 -164 OFFCURVE",
"144 -164 CURVE SMOOTH",
"202 -164 LINE",
"202 -103 LINE",
"159 -103 LINE SMOOTH",
"145 -103 OFFCURVE",
"137 -96 OFFCURVE",
"137 -83 CURVE SMOOTH",
"137 -74 OFFCURVE",
"139 -68 OFFCURVE",
"141 -56 CURVE SMOOTH",
"151 0 LINE",
"164 0 LINE",
"164 700 LINE"
);
}
);
width = 244;
},
{
layerId = "8F42668C-F186-4E73-94E7-C31CD8308E50";
paths = (
{
closed = 1;
nodes = (
"80 700 LINE",
"80 0 LINE",
"92 0 LINE",
"83 -39 LINE SMOOTH",
"78 -60 OFFCURVE",
"74 -80 OFFCURVE",
"74 -99 CURVE SMOOTH",
"74 -141 OFFCURVE",
"101 -164 OFFCURVE",
"144 -164 CURVE SMOOTH",
"202 -164 LINE",
"202 -103 LINE",
"159 -103 LINE SMOOTH",
"145 -103 OFFCURVE",
"137 -96 OFFCURVE",
"137 -83 CURVE SMOOTH",
"137 -74 OFFCURVE",
"139 -68 OFFCURVE",
"141 -56 CURVE SMOOTH",
"151 0 LINE",
"164 0 LINE",
"164 700 LINE"
);
}
);
width = 244;
}
);
note = Iogonek;
unicode = 012E;
},
{
glyphname = Ibreve;
lastChange = "2020-07-28 15:47:08 +0000";
layers = (
{
layerId = "83CEB4AC-2A3F-4494-A887-C39963512B94";
paths = (
{
closed = 1;
nodes = (
"203 881 LINE",
"203 878 LINE SMOOTH",
"203 836 OFFCURVE",
"177 808 OFFCURVE",
"122 808 CURVE SMOOTH",
"68 808 OFFCURVE",
"42 836 OFFCURVE",
"42 878 CURVE SMOOTH",
"42 881 LINE",
"-27 881 LINE",
"-27 878 LINE SMOOTH",
"-27 803 OFFCURVE",
"28 752 OFFCURVE",
"122 752 CURVE SMOOTH",
"217 752 OFFCURVE",
"272 803 OFFCURVE",
"272 878 CURVE SMOOTH",
"272 881 LINE"
);
},
{
closed = 1;
nodes = (
"80 700 LINE",
"80 0 LINE",
"164 0 LINE",
"164 700 LINE"
);
}
);
width = 244;
},
{
layerId = "8F42668C-F186-4E73-94E7-C31CD8308E50";
paths = (
{
closed = 1;
nodes = (
"203 881 LINE",
"203 878 LINE SMOOTH",
"203 836 OFFCURVE",
"177 808 OFFCURVE",
"122 808 CURVE SMOOTH",
"68 808 OFFCURVE",
"42 836 OFFCURVE",
"42 878 CURVE SMOOTH",
"42 881 LINE",
"-27 881 LINE",
"-27 878 LINE SMOOTH",
"-27 803 OFFCURVE",
"28 752 OFFCURVE",
"122 752 CURVE SMOOTH",
"217 752 OFFCURVE",
"272 803 OFFCURVE",
"272 878 CURVE SMOOTH",
"272 881 LINE"
);
},
{
closed = 1;
nodes = (
"80 700 LINE",
"80 0 LINE",
"164 0 LINE",
"164 700 LINE"
);
}
);
width = 244;
}
);
leftKerningGroup = Icircumflex;
note = Ibreve;
rightKerningGroup = Icircumflex;
unicode = 012C;
},
{
glyphname = Jcircumflex;
lastChange = "2020-07-28 15:47:08 +0000";
layers = (
{
layerId = "83CEB4AC-2A3F-4494-A887-C39963512B94";
paths = (
{
closed = 1;
nodes = (
"486 758 LINE",
"583 758 LINE",
"456 879 LINE",
"361 879 LINE",
"234 758 LINE",
"331 758 LINE",
"402 831 LINE",
"415 831 LINE"
);
},
{
closed = 1;
nodes = (
"267 700 LINE",
"267 624 LINE",
"390 624 LINE",
"390 210 LINE SMOOTH",
"390 122 OFFCURVE",
"355 63 OFFCURVE",
"262 63 CURVE SMOOTH",
"170 63 OFFCURVE",
"124 122 OFFCURVE",
"124 210 CURVE SMOOTH",
"124 264 LINE",
"41 264 LINE",
"41 210 LINE SMOOTH",
"41 65 OFFCURVE",
"126 -14 OFFCURVE",
"263 -14 CURVE SMOOTH",
"400 -14 OFFCURVE",
"474 64 OFFCURVE",
"474 210 CURVE SMOOTH",
"474 624 LINE",
"550 624 LINE",
"550 700 LINE"
);
}
);
width = 594;
},
{
layerId = "8F42668C-F186-4E73-94E7-C31CD8308E50";
paths = (
{
closed = 1;
nodes = (
"486 758 LINE",
"583 758 LINE",
"456 879 LINE",
"361 879 LINE",
"234 758 LINE",
"331 758 LINE",
"402 831 LINE",
"415 831 LINE"
);
},
{
closed = 1;
nodes = (
"267 700 LINE",
"267 624 LINE",
"390 624 LINE",
"390 210 LINE SMOOTH",
"390 122 OFFCURVE",
"355 63 OFFCURVE",
"262 63 CURVE SMOOTH",
"170 63 OFFCURVE",
"124 122 OFFCURVE",
"124 210 CURVE SMOOTH",
"124 264 LINE",
"41 264 LINE",
"41 210 LINE SMOOTH",
"41 65 OFFCURVE",
"126 -14 OFFCURVE",
"263 -14 CURVE SMOOTH",
"400 -14 OFFCURVE",
"474 64 OFFCURVE",
"474 210 CURVE SMOOTH",
"474 624 LINE",
"550 624 LINE",
"550 700 LINE"
);
}
);
width = 594;
}
);
leftKerningGroup = J;
note = Jcircumflex;
rightKerningGroup = J;
unicode = 0134;
},
